{
.appVersion = "1361";
classes = (
{
code = "dotcenter-ar
#dotcenter_threedotsdownbelow-ar
#twodotshorizontalcenter-ar
#twodotshorizontalcenter_tahabove-ar
#twodotsverticalcenter-ar
#threedotsupcenter-ar
#threedotsdowncenter-ar
#fourdotscenter-ar
#fourcenter-ar
#tahcenter-ar
#vinvertedcenter-ar
";
name = dotcenter;
},
{
code = "dotbelow-ar
#dotbelow_threedotsdownbelow-ar
#twodotshorizontalbelow-ar
#twodotshorizontalbelow_tahabove-ar
#twodotsverticalbelow-ar
#threedotsupbelow-ar
#threedotsdownbelow-ar
#fourdotsbelow-ar
#fourbelow-ar
#tahbelow-ar
#vinvertedbelow-ar
";
name = dotbelow;
},
{
code = "hamzaabove-ar
madda-ar
shadda-ar
fatha-ar
damma-ar
fathatan-ar
dammatan-ar
sukun-ar
kasra-ar
kasratan-ar
";
name = marktop;
},
{

glyphs = (
{
color = 3;
glyphname = A;
layers = (
{
anchors = (
{
name = bottom;
position = "{343, 0}";
},
{
name = ogonek;
position = "{630, 0}";
},
{
name = top;
position = "{345, 658}";
}
);
layerId = "3114FB65-9464-41A5-B67E-A8F9F43C0EF1";
paths = (
{
closed = 1;
nodes = (
"630 0 LINE",
"362 658 LINE",
"330 658 LINE",
"55 0 LINE",
"93 0 LINE",
"350 635 LINE",
"336 635 LINE",
"590 0 LINE"
);
},
{
closed = 1;
nodes = (
"507 255 LINE",
"491 285 LINE",
"186 285 LINE",
"175 255 LINE"
);
}
);
width = 684;
},
{
anchors = (
{
name = bottom;
position = "{340, 0}";
},
{
name = ogonek;
position = "{643, 0}";
},
{
name = top;
position = "{342, 658}";
}
);
layerId = "14EEE41F-D714-4243-A717-73445EE7DABA";
paths = (
{
closed = 1;
nodes = (
"643 0 LINE",
"386 658 LINE",
"305 658 LINE",
"36 0 LINE",
"132 0 LINE",
"354 607 LINE",
"317 607 LINE",
"540 0 LINE"
);
},
{
closed = 1;
nodes = (
"513 210 LINE",
"473 285 LINE",
"181 285 LINE",
"154 210 LINE"
);
}
);
width = 678;
},
{
anchors = (
{
name = bottom;
position = "{346, 0}";
},
{
name = ogonek;
position = "{676, 0}";
},
{
name = top;
position = "{347, 658}";
}
);
layerId = "090CB6A0-BE7C-4D17-A551-206C7456A8A3";
paths = (
{
closed = 1;
nodes = (
"676 0 LINE",
"432 658 LINE",
"272 658 LINE",
"19 0 LINE",
"177 0 LINE",
"358 570 LINE",
"317 570 LINE",
"494 0 LINE"
);
},
{
closed = 1;
nodes = (
"537 154 LINE",
"477 273 LINE",
"179 273 LINE",
"135 154 LINE"
);
}
);
width = 695;
}
);
leftKerningGroup = A;
rightKerningGroup = A;
unicode = 0041;
},
{
color = 3;
glyphname = Aogonek;
layers = (
{
components = (
{
name = A;
}
);
layerId = "3114FB65-9464-41A5-B67E-A8F9F43C0EF1";
paths = (
{
closed = 1;
nodes = (
"616 -289 OFFCURVE",
"641 -279 OFFCURVE",
"666 -259 CURVE",
"654 -239 LINE",
"636 -255 OFFCURVE",
"617 -262 OFFCURVE",
"590 -262 CURVE SMOOTH",
"529 -262 OFFCURVE",
"495 -224 OFFCURVE",
"495 -170 CURVE SMOOTH",
"495 -112 OFFCURVE",
"535 -49 OFFCURVE",
"630 0 CURVE",
"606 15 LINE",
"500 -41 OFFCURVE",
"459 -113 OFFCURVE",
"459 -177 CURVE SMOOTH",
"459 -245 OFFCURVE",
"505 -289 OFFCURVE",
"580 -289 CURVE SMOOTH"
);
}
);
width = 720;
},
{
components = (
{
name = A;
}
);
layerId = "14EEE41F-D714-4243-A717-73445EE7DABA";
paths = (
{
closed = 1;
nodes = (
"630 -289 OFFCURVE",
"660 -279 OFFCURVE",
"689 -259 CURVE",
"667 -212 LINE",
"653 -221 OFFCURVE",
"638 -225 OFFCURVE",
"620 -225 CURVE SMOOTH",
"562 -225 OFFCURVE",
"535 -185 OFFCURVE",
"535 -140 CURVE SMOOTH",
"535 -89 OFFCURVE",
"568 -39 OFFCURVE",
"643 0 CURVE",
"581 32 LINE",
"483 -23 OFFCURVE",
"443 -95 OFFCURVE",
"443 -161 CURVE SMOOTH",
"443 -238 OFFCURVE",
"496 -289 OFFCURVE",
"589 -289 CURVE SMOOTH"
);
}
);
width = 724;
},
{
components = (
{
name = A;
}
);
layerId = "090CB6A0-BE7C-4D17-A551-206C7456A8A3";
paths = (
{
closed = 1;
nodes = (
"646 -289 OFFCURVE",
"684 -275 OFFCURVE",
"720 -250 CURVE",
"691 -187 LINE",
"679 -192 OFFCURVE",
"666 -194 OFFCURVE",
"654 -194 CURVE SMOOTH",
"602 -194 OFFCURVE",
"581 -158 OFFCURVE",
"581 -118 CURVE SMOOTH",
"581 -71 OFFCURVE",
"610 -32 OFFCURVE",
"676 0 CURVE",
"593 41 LINE",
"481 -13 OFFCURVE",
"434 -82 OFFCURVE",
"434 -153 CURVE SMOOTH",
"434 -233 OFFCURVE",
"491 -289 OFFCURVE",
"596 -289 CURVE SMOOTH"
);
}
);
width = 739;
}
);
leftKerningGroup = A;
leftMetricsKey = A;
rightKerningGroup = A;
rightMetricsKey = A;
unicode = 0104;
},
{
color = 3;
glyphname = AE;
layers = (
{
anchors = (
{
name = bottom;
position = "{432, 0}";
},
{
name = top;
position = "{550, 658}";
}
);
layerId = "3114FB65-9464-41A5-B67E-A8F9F43C0EF1";
paths = (
{
closed = 1;
nodes = (
"47 0 LINE",
"439 658 LINE",
"407 658 LINE",
"4 0 LINE"
);
},
{
closed = 1;
nodes = (
"443 235 LINE",
"443 266 LINE",
"189 266 LINE",
"171 235 LINE"
);
},
{
closed = 1;
nodes = (
"736 319 LINE",
"736 349 LINE",
"442 349 LINE",
"442 319 LINE"
);
},
{
closed = 1;
nodes = (
"804 0 LINE",
"804 30 LINE",
"458 30 LINE",
"458 628 LINE",
"774 628 LINE",
"774 658 LINE",
"424 658 LINE",
"424 0 LINE"
);
}
);
width = 851;
},
{
anchors = (
{
name = bottom;
position = "{448, 0}";
},
{
name = top;
position = "{545, 658}";
}
);
layerId = "14EEE41F-D714-4243-A717-73445EE7DABA";
paths = (
{
closed = 1;
nodes = (
"104 0 LINE",
"469 658 LINE",
"390.007 658 LINE",
"-5 0 LINE"
);
},
{
closed = 1;
nodes = (
"482 214 LINE",
"482 290 LINE",
"229 290 LINE",
"188 214 LINE"
);
},
{
closed = 1;
nodes = (
"763 295 LINE",
"763 371 LINE",
"481 371 LINE",
"481 295 LINE"
);
},
{
closed = 1;
nodes = (
"831 0 LINE",
"831 76 LINE",
"523 76 LINE",
"523 582 LINE",
"801 582 LINE",
"801 658 LINE",
"436 658 LINE",
"436 0 LINE"
);
}
);
width = 877;
},
{
anchors = (
{
name = bottom;
position = "{490, 0}";
},
{
name = top;
position = "{554, 658}";
}
);
layerId = "090CB6A0-BE7C-4D17-A551-206C7456A8A3";
paths = (
{
closed = 1;
nodes = (
"153 0 LINE",
"498 658 LINE",
"364 658 LINE",
"-14 0 LINE"
);
},
{
closed = 1;
nodes = (
"500 179 LINE",
"500 294 LINE",
"229 294 LINE",
"197 179 LINE"
);
},
{
closed = 1;
nodes = (
"801 275 LINE",
"801 390 LINE",
"544 390 LINE",
"544 275 LINE"
);
},
{
closed = 1;
nodes = (
"866 0 LINE",
"866 120 LINE",
"585 120 LINE",
"585 538 LINE",
"841 538 LINE",
"841 658 LINE",
"439 658 LINE",
"439 0 LINE"
);
}
);
width = 903;
}
);
leftKerningGroup = A;
unicode = 00C6;
},
{
color = 3;
glyphname = B;
layers = (
{
anchors = (
{
name = bottom;
position = "{288, 0}";
},
{
name = top;
position = "{288, 658}";
}
);
layerId = "3114FB65-9464-41A5-B67E-A8F9F43C0EF1";
paths = (
{
closed = 1;
nodes = (
"402 332 OFFCURVE",
"476 402 OFFCURVE",
"476 501 CURVE SMOOTH",
"476 599 OFFCURVE",
"404 658 OFFCURVE",
"282 658 CURVE SMOOTH",
"119 658 LINE",
"119 0 LINE",
"307 0 LINE SMOOTH",
"438 0 OFFCURVE",
"523 74 OFFCURVE",
"523 180 CURVE SMOOTH",
"523 288 OFFCURVE",
"434 355 OFFCURVE",
"301 355 CURVE",
"296 332 LINE"
);
},
{
closed = 1;
nodes = (
"142 329 LINE",
"294 329 LINE SMOOTH",
"415 329 OFFCURVE",
"487 272 OFFCURVE",
"487 180 CURVE SMOOTH",
"487 90 OFFCURVE",
"419 29 OFFCURVE",
"311 29 CURVE SMOOTH",
"155 29 LINE",
"155 629 LINE",
"277 629 LINE SMOOTH",
"388 629 OFFCURVE",
"442 578 OFFCURVE",
"442 496 CURVE SMOOTH",
"442 412 OFFCURVE",
"384 357 OFFCURVE",
"299 357 CURVE SMOOTH",
"142 357 LINE"
);
}
);
width = 575;
},
{
anchors = (
{
name = bottom;
position = "{292, 0}";
},
{
name = top;
position = "{292, 658}";
}
);
layerId = "14EEE41F-D714-4243-A717-73445EE7DABA";
paths = (
{
closed = 1;
nodes = (
"407 316 OFFCURVE",
"497 399 OFFCURVE",
"497 500 CURVE SMOOTH",
"497 596 OFFCURVE",
"417 658 OFFCURVE",
"295 658 CURVE SMOOTH",
"103 658 LINE",
"103 0 LINE",
"293 0 LINE SMOOTH",
"445 0 OFFCURVE",
"540 77 OFFCURVE",
"540 189 CURVE SMOOTH",
"540 299 OFFCURVE",
"444 370 OFFCURVE",
"304 370 CURVE",
"289 316 LINE"
);
},
{
closed = 1;
nodes = (
"163 310 LINE",
"284 310 LINE SMOOTH",
"394 310 OFFCURVE",
"446 263 OFFCURVE",
"446 189 CURVE SMOOTH",
"446 116 OFFCURVE",
"397 68 OFFCURVE",
"307 68 CURVE SMOOTH",
"192 68 LINE",
"192 590 LINE",
"280 590 LINE SMOOTH",
"374 590 OFFCURVE",
"409 542 OFFCURVE",
"409 482 CURVE SMOOTH",
"409 417 OFFCURVE",
"364 376 OFFCURVE",
"299 376 CURVE SMOOTH",
"163 376 LINE"
);
}
);
width = 587;
},
{
anchors = (
{
name = bottom;
position = "{325, 0}";
},
{
name = top;
position = "{325, 658}";
}
);
layerId = "090CB6A0-BE7C-4D17-A551-206C7456A8A3";
paths = (
{
closed = 1;
nodes = (
"430 307 OFFCURVE",
"538 389 OFFCURVE",
"538 503 CURVE SMOOTH",
"538 598 OFFCURVE",
"449 658 OFFCURVE",
"330 658 CURVE SMOOTH",
"87 658 LINE",
"87 0 LINE",
"315 0 LINE SMOOTH",
"478 0 OFFCURVE",
"581 83 OFFCURVE",
"581 198 CURVE SMOOTH",
"581 313 OFFCURVE",
"475 384 OFFCURVE",
"329 384 CURVE",
"316 307 LINE"
);
},
{
closed = 1;
nodes = (
"195 285 LINE",
"305 285 LINE SMOOTH",
"385 285 OFFCURVE",
"418 251 OFFCURVE",
"418 198 CURVE SMOOTH",
"418 145 OFFCURVE",
"387 113 OFFCURVE",
"323 113 CURVE SMOOTH",
"233 113 LINE",
"233 548 LINE",
"304 548 LINE SMOOTH",
"375 548 OFFCURVE",
"396 510 OFFCURVE",
"396 470 CURVE SMOOTH",
"396 423 OFFCURVE",
"364 394 OFFCURVE",
"316 394 CURVE SMOOTH",
"195 394 LINE"
);
}
);
width = 620;
}
);
leftMetricsKey = E;
rightKerningGroup = B;
unicode = 0042;
},
{
color = 3;
glyphname = C;
layers = (
{
anchors = (
{
name = bottom;
position = "{378, 0}";
},
{
name = top;
position = "{379, 658}";
}
);
layerId = "3114FB65-9464-41A5-B67E-A8F9F43C0EF1";
paths = (
{
closed = 1;
nodes = (
"480 -7 OFFCURVE",
"547 17 OFFCURVE",
"610 61 CURVE",
"592 90 LINE",
"538 46 OFFCURVE",
"474 22 OFFCURVE",
"398 22 CURVE SMOOTH",
"226 22 OFFCURVE",
"99 145 OFFCURVE",
"99 330 CURVE SMOOTH",
"99 509 OFFCURVE",
"216 636 OFFCURVE",
"392 636 CURVE SMOOTH",
"466 636 OFFCURVE",
"524 615 OFFCURVE",
"579 580 CURVE",
"597 611 LINE",
"540 645 OFFCURVE",
"476 665 OFFCURVE",
"401 665 CURVE SMOOTH",
"199 665 OFFCURVE",
"60 525 OFFCURVE",
"60 325 CURVE SMOOTH",
"60 126 OFFCURVE",
"198 -7 OFFCURVE",
"396 -7 CURVE SMOOTH"
);
}
);
width = 653;
},
{
anchors = (
{
name = bottom;
position = "{386, 0}";
},
{
name = top;
position = "{389, 658}";
}
);
layerId = "14EEE41F-D714-4243-A717-73445EE7DABA";
paths = (
{
closed = 1;
nodes = (
"479 -11 OFFCURVE",
"555 12 OFFCURVE",
"622 56 CURVE",
"582 132 LINE",
"537 87 OFFCURVE",
"475 59 OFFCURVE",
"403 59 CURVE SMOOTH",
"267 59 OFFCURVE",
"158 169 OFFCURVE",
"158 336 CURVE SMOOTH",
"158 495 OFFCURVE",
"247 597 OFFCURVE",
"388 597 CURVE SMOOTH",
"454 597 OFFCURVE",
"512 574 OFFCURVE",
"570 528 CURVE",
"614 612 LINE",
"551 650 OFFCURVE",
"481 669 OFFCURVE",
"409 669 CURVE SMOOTH",
"210 669 OFFCURVE",
"55 535 OFFCURVE",
"55 320 CURVE SMOOTH",
"55 123 OFFCURVE",
"192 -11 OFFCURVE",
"395 -11 CURVE SMOOTH"
);
}
);
width = 652;
},
{
anchors = (
{
name = bottom;
position = "{390, 0}";
},
{
name = top;
position = "{399, 658}";
}
);
layerId = "090CB6A0-BE7C-4D17-A551-206C7456A8A3";
paths = (
{
closed = 1;
nodes = (
"477 -15 OFFCURVE",
"563 5 OFFCURVE",
"634 50 CURVE",
"579 167 LINE",
"544 128 OFFCURVE",
"491 98 OFFCURVE",
"424 98 CURVE SMOOTH",
"317 98 OFFCURVE",
"235 188 OFFCURVE",
"235 340 CURVE SMOOTH",
"235 483 OFFCURVE",
"299 559 OFFCURVE",
"401 559 CURVE SMOOTH",
"459 559 OFFCURVE",
"512 535 OFFCURVE",
"566 489 CURVE",
"627 619 LINE",
"561 656 OFFCURVE",
"484 673 OFFCURVE",
"413 673 CURVE SMOOTH",
"206 673 OFFCURVE",
"50 538 OFFCURVE",
"50 316 CURVE SMOOTH",
"50 117 OFFCURVE",
"182 -15 OFFCURVE",
"393 -15 CURVE SMOOTH"
);
}
);
width = 656;
}
);
leftKerningGroup = O;
leftMetricsKey = "=O";
rightKerningGroup = C;
unicode = 0043;
},
{
color = 3;
glyphname = D;
layers = (
{
anchors = (
{
name = bottom;
position = "{346, 0}";
},
{
name = center;
position = "{213, 328}";
},
{
name = top;
position = "{340, 658}";
}
);
layerId = "3114FB65-9464-41A5-B67E-A8F9F43C0EF1";
paths = (
{
closed = 1;
nodes = (
"321 0 LINE SMOOTH",
"566 0 OFFCURVE",
"683 159 OFFCURVE",
"683 333 CURVE SMOOTH",
"683 527 OFFCURVE",
"539 658 OFFCURVE",
"313 658 CURVE SMOOTH",
"119 658 LINE",
"119 0 LINE"
);
},
{
closed = 1;
nodes = (
"156 629 LINE",
"308 629 LINE SMOOTH",
"526 629 OFFCURVE",
"644 500 OFFCURVE",
"644 328 CURVE SMOOTH",
"644 166 OFFCURVE",
"541 28 OFFCURVE",
"323 28 CURVE SMOOTH",
"156 28 LINE"
);
}
);
width = 743;
},
{
anchors = (
{
name = bottom;
position = "{343, 0}";
},
{
name = center;
position = "{218, 328}";
},
{
name = top;
position = "{332, 658}";
}
);
layerId = "14EEE41F-D714-4243-A717-73445EE7DABA";
paths = (
{
closed = 1;
nodes = (
"305 0 LINE SMOOTH",
"576 0 OFFCURVE",
"682 177 OFFCURVE",
"682 342 CURVE SMOOTH",
"682 540 OFFCURVE",
"529 658 OFFCURVE",
"313 658 CURVE SMOOTH",
"103 658 LINE",
"103 0 LINE"
);
},
{
closed = 1;
nodes = (
"198 587 LINE",
"298 587 LINE SMOOTH",
"499 587 OFFCURVE",
"581 468 OFFCURVE",
"581 326 CURVE SMOOTH",
"581 192 OFFCURVE",
"516 69 OFFCURVE",
"313 69 CURVE SMOOTH",
"198 69 LINE"
);
}
);
width = 737;
},
{
anchors = (
{
name = bottom;
position = "{360, 0}";
},
{
name = center;
position = "{211, 328}";
},
{
name = top;
position = "{352, 658}";
}
);
layerId = "090CB6A0-BE7C-4D17-A551-206C7456A8A3";
paths = (
{
closed = 1;
nodes = (
"307 0 LINE SMOOTH",
"570 0 OFFCURVE",
"700 155 OFFCURVE",
"700 347 CURVE SMOOTH",
"700 555 OFFCURVE",
"536 658 OFFCURVE",
"321 658 CURVE SMOOTH",
"87 658 LINE",
"87 0 LINE"
);
},
{
closed = 1;
nodes = (
"251 547 LINE",
"312 547 LINE SMOOTH",
"472 547 OFFCURVE",
"526 443 OFFCURVE",
"526 321 CURVE SMOOTH",
"526 206 OFFCURVE",
"482 108 OFFCURVE",
"321 108 CURVE SMOOTH",
"251 108 LINE"
);
}
);
width = 750;
}
);
leftMetricsKey = H;
rightKerningGroup = O;
rightMetricsKey = O;
unicode = 0044;
},
{
color = 3;
glyphname = Eth;
layers = (
{
components = (
{
name = D;
transform = "{1, 0, 0, 1, 2, 0}";
}
);
layerId = "3114FB65-9464-41A5-B67E-A8F9F43C0EF1";
paths = (
{
closed = 1;
nodes = (
"381 314 LINE",
"381 343 LINE",
"24 343 LINE",
"24 314 LINE"
);
}
);
width = 745;
},
{
components = (
{
name = D;
transform = "{1, 0, 0, 1, 8, 0}";
}
);
layerId = "14EEE41F-D714-4243-A717-73445EE7DABA";
paths = (
{
closed = 1;
nodes = (
"389 293 LINE",
"389 364 LINE",
"27 364 LINE",
"27 293 LINE"
);
}
);
width = 745;
},
{
components = (
{
name = D;
transform = "{1, 0, 0, 1, 16, 0}";
}
);
layerId = "090CB6A0-BE7C-4D17-A551-206C7456A8A3";
paths = (
{
closed = 1;
nodes = (
"411 274 LINE",
"411 384 LINE",
"22 384 LINE",
"22 274 LINE"
);
}
);
width = 766;
}
);
rightKerningGroup = O;
rightMetricsKey = D;
unicode = 00D0;
},
{
color = 3;
glyphname = E;
layers = (
{
anchors = (
{
name = bottom;
position = "{315, 0}";
},
{
name = ogonek;
position = "{521, 0}";
},
{
name = top;
position = "{315, 658}";
},
{
name = topleft;
position = "{60, 658}";
}
);
layerId = "3114FB65-9464-41A5-B67E-A8F9F43C0EF1";
paths = (
{
closed = 1;
nodes = (
"521 30 LINE",
"155 30 LINE",
"155 628 LINE",
"492 628 LINE",
"492 658 LINE",
"119 658 LINE",
"119 0 LINE",
"521 0 LINE"
);
},
{
closed = 1;
nodes = (
"454 319 LINE",
"454 349 LINE",
"133 349 LINE",
"133 319 LINE"
);
}
);
width = 579;
},
{
anchors = (
{
name = bottom;
position = "{315, 0}";
},
{
name = ogonek;
position = "{526, 0}";
},
{
name = top;
position = "{315, 658}";
},
{
name = topleft;
position = "{60, 658}";
}
);
layerId = "14EEE41F-D714-4243-A717-73445EE7DABA";
paths = (
{
closed = 1;
nodes = (
"526 76 LINE",
"196 76 LINE",
"196 582 LINE",
"493 582 LINE",
"493 658 LINE",
"103 658 LINE",
"103 0 LINE",
"526 0 LINE"
);
},
{
closed = 1;
nodes = (
"455 297 LINE",
"455 371 LINE",
"134 371 LINE",
"134 297 LINE"
);
}
);
width = 579;
},
{
anchors = (
{
name = bottom;
position = "{319, 0}";
},
{
name = ogonek;
position = "{544, 0}";
},
{
name = top;
position = "{318, 658}";
},
{
name = topleft;
position = "{64, 658}";
}
);
layerId = "090CB6A0-BE7C-4D17-A551-206C7456A8A3";
paths = (
{
closed = 1;
nodes = (
"544 120 LINE",
"249 120 LINE",
"249 538 LINE",
"515 538 LINE",
"515 658 LINE",
"87 658 LINE",
"87 0 LINE",
"544 0 LINE"
);
},
{
closed = 1;
nodes = (
"475 277 LINE",
"475 390 LINE",
"138 390 LINE",
"138 277 LINE"
);
}
);
width = 587;
}
);
leftMetricsKey = H;
unicode = 0045;
},
{
color = 3;
glyphname = Eogonek;
layers = (
{
components = (
{
name = E;
}
);
layerId = "3114FB65-9464-41A5-B67E-A8F9F43C0EF1";
paths = (
{
closed = 1;
nodes = (
"507 -289 OFFCURVE",
"532 -279 OFFCURVE",
"557 -259 CURVE",
"545 -239 LINE",
"527 -254 OFFCURVE",
"507 -262 OFFCURVE",
"481 -262 CURVE SMOOTH",
"420 -262 OFFCURVE",
"386 -224 OFFCURVE",
"386 -170 CURVE SMOOTH",
"386 -111 OFFCURVE",
"426 -49 OFFCURVE",
"521 0 CURVE",
"507 17 LINE",
"393 -39 OFFCURVE",
"350 -112 OFFCURVE",
"350 -177 CURVE SMOOTH",
"350 -245 OFFCURVE",
"396 -289 OFFCURVE",
"471 -289 CURVE SMOOTH"
);
}
);
width = 579;
},
{
components = (
{
name = E;
}
);
layerId = "14EEE41F-D714-4243-A717-73445EE7DABA";
paths = (
{
closed = 1;
nodes = (
"513 -289 OFFCURVE",
"543 -279 OFFCURVE",
"572 -259 CURVE",
"550 -212 LINE",
"536 -221 OFFCURVE",
"520 -225 OFFCURVE",
"503 -225 CURVE SMOOTH",
"445 -225 OFFCURVE",
"418 -185 OFFCURVE",
"418 -140 CURVE SMOOTH",
"418 -89 OFFCURVE",
"451 -39 OFFCURVE",
"526 0 CURVE",
"495 39 LINE",
"375 -18 OFFCURVE",
"326 -93 OFFCURVE",
"326 -161 CURVE SMOOTH",
"326 -238 OFFCURVE",
"379 -289 OFFCURVE",
"472 -289 CURVE SMOOTH"
);
}
);
width = 579;
},
{
components = (
{
name = E;
}
);
layerId = "090CB6A0-BE7C-4D17-A551-206C7456A8A3";
paths = (
{
closed = 1;
nodes = (
"510 -289 OFFCURVE",
"548 -275 OFFCURVE",
"584 -250 CURVE",
"555 -187 LINE",
"542 -193 OFFCURVE",
"529 -195 OFFCURVE",
"518 -195 CURVE SMOOTH",
"470 -195 OFFCURVE",
"449 -161 OFFCURVE",
"449 -123 CURVE SMOOTH",
"449 -78 OFFCURVE",
"479 -30 OFFCURVE",
"544 0 CURVE",
"494 47 LINE",
"358 -9 OFFCURVE",
"302 -80 OFFCURVE",
"302 -153 CURVE SMOOTH",
"302 -233 OFFCURVE",
"358 -289 OFFCURVE",
"460 -289 CURVE SMOOTH"
);
}
);
width = 587;
}
);
unicode = 0118;
},
{
color = 3;
glyphname = F;
layers = (
{
anchors = (
{
name = bottom;
position = "{269, 0}";
},
{
name = top;
position = "{269, 658}";
}
);
layerId = "3114FB65-9464-41A5-B67E-A8F9F43C0EF1";
paths = (
{
closed = 1;
nodes = (
"156 0 LINE",
"156 628 LINE",
"493 628 LINE",
"493 658 LINE",
"119 658 LINE",
"119 0 LINE"
);
},
{
closed = 1;
nodes = (
"455 298 LINE",
"455 328 LINE",
"134 328 LINE",
"134 298 LINE"
);
}
);
width = 542;
},
{
anchors = (
{
name = bottom;
position = "{273, 0}";
},
{
name = top;
position = "{273, 658}";
}
);
layerId = "14EEE41F-D714-4243-A717-73445EE7DABA";
paths = (
{
closed = 1;
nodes = (
"198 0 LINE",
"198 582 LINE",
"496 582 LINE",
"496 658 LINE",
"103 658 LINE",
"103 0 LINE"
);
},
{
closed = 1;
nodes = (
"458 273 LINE",
"458 348 LINE",
"134 348 LINE",
"134 273 LINE"
);
}
);
width = 540;
},
{
anchors = (
{
name = bottom;
position = "{282, 0}";
},
{
name = top;
position = "{282, 658}";
}
);
layerId = "090CB6A0-BE7C-4D17-A551-206C7456A8A3";
paths = (
{
closed = 1;
nodes = (
"251 0 LINE",
"251 534 LINE",
"523 534 LINE",
"523 658 LINE",
"87 658 LINE",
"87 0 LINE"
);
},
{
closed = 1;
nodes = (
"485 239 LINE",
"485 362 LINE",
"138 362 LINE",
"138 239 LINE"
);
}
);
width = 561;
}
);
leftMetricsKey = E;
rightKerningGroup = F;
unicode = 0046;
},
{
color = 3;
glyphname = G;
layers = (
{
anchors = (
{
name = bottom;
position = "{419, 0}";
},
{
name = top;
position = "{407, 658}";
}
);
layerId = "3114FB65-9464-41A5-B67E-A8F9F43C0EF1";
paths = (
{
closed = 1;
nodes = (
"495 -7 OFFCURVE",
"574 13 OFFCURVE",
"638 49 CURVE",
"638 285 LINE",
"430 285 LINE",
"430 256 LINE",
"602 256 LINE",
"602 49 LINE",
"620 74 LINE",
"562 40 OFFCURVE",
"493 22 OFFCURVE",
"422 22 CURVE SMOOTH",
"233 22 OFFCURVE",
"99 146 OFFCURVE",
"99 330 CURVE SMOOTH",
"99 507 OFFCURVE",
"224 636 OFFCURVE",
"413 636 CURVE SMOOTH",
"489 636 OFFCURVE",
"559 613 OFFCURVE",
"617 562 CURVE",
"635 595 LINE",
"578 642 OFFCURVE",
"503 665 OFFCURVE",
"420 665 CURVE SMOOTH",
"205 665 OFFCURVE",
"60 521 OFFCURVE",
"60 325 CURVE SMOOTH",
"60 126 OFFCURVE",
"207 -7 OFFCURVE",
"417 -7 CURVE SMOOTH"
);
}
);
width = 719;
},
{
anchors = (
{
name = bottom;
position = "{418, 0}";
},
{
name = top;
position = "{403, 658}";
}
);
layerId = "14EEE41F-D714-4243-A717-73445EE7DABA";
paths = (
{
closed = 1;
nodes = (
"498 -11 OFFCURVE",
"581 7 OFFCURVE",
"648 44 CURVE",
"648 317 LINE",
"424 317 LINE",
"424 247 LINE",
"559 247 LINE",
"559 44 LINE",
"608 102 LINE",
"557 72 OFFCURVE",
"496 59 OFFCURVE",
"436 59 CURVE SMOOTH",
"270 59 OFFCURVE",
"158 171 OFFCURVE",
"158 334 CURVE SMOOTH",
"158 488 OFFCURVE",
"251 597 OFFCURVE",
"405 597 CURVE SMOOTH",
"467 597 OFFCURVE",
"539 578 OFFCURVE",
"602 518 CURVE",
"645 605 LINE",
"585 649 OFFCURVE",
"502 669 OFFCURVE",
"425 669 CURVE SMOOTH",
"208 669 OFFCURVE",
"55 522 OFFCURVE",
"55 319 CURVE SMOOTH",
"55 122 OFFCURVE",
"197 -11 OFFCURVE",
"420 -11 CURVE SMOOTH"
);
}
);
width = 721;
},
{
anchors = (
{
name = bottom;
position = "{420, 0}";
},
{
name = top;
position = "{405, 658}";
}
);
layerId = "090CB6A0-BE7C-4D17-A551-206C7456A8A3";
paths = (
{
closed = 1;
nodes = (
"502 -15 OFFCURVE",
"594 0 OFFCURVE",
"664 37 CURVE",
"664 344 LINE",
"419 344 LINE",
"419 240 LINE",
"521 240 LINE",
"521 67 LINE",
"577 131 LINE",
"539 108 OFFCURVE",
"491 97 OFFCURVE",
"442 97 CURVE SMOOTH",
"313 97 OFFCURVE",
"231 183 OFFCURVE",
"231 338 CURVE SMOOTH",
"231 476 OFFCURVE",
"296 558 OFFCURVE",
"411 558 CURVE SMOOTH",
"468 558 OFFCURVE",
"527 539 OFFCURVE",
"592 479 CURVE",
"660 618 LINE",
"593 656 OFFCURVE",
"506 673 OFFCURVE",
"428 673 CURVE SMOOTH",
"205 673 OFFCURVE",
"50 528 OFFCURVE",
"50 316 CURVE SMOOTH",
"50 116 OFFCURVE",
"184 -15 OFFCURVE",
"424 -15 CURVE SMOOTH"
);
}
);
width = 726;
}
);
leftKerningGroup = O;
leftMetricsKey = O;
unicode = 0047;
},
{
color = 3;
glyphname = H;
layers = (
{
anchors = (
{
name = bottom;
position = "{380, 0}";
},
{
name = center;
position = "{380, 329}";
},
{
name = top;
position = "{380, 658}";
},
{
name = topleft;
position = "{6, 658}";
}
);
layerId = "3114FB65-9464-41A5-B67E-A8F9F43C0EF1";
paths = (
{
closed = 1;
nodes = (
"648 0 LINE",
"648 658 LINE",
"611 658 LINE",
"611 0 LINE"
);
},
{
closed = 1;
nodes = (
"156 0 LINE",
"156 658 LINE",
"119 658 LINE",
"119 0 LINE"
);
},
{
closed = 1;
nodes = (
"635 319 LINE",
"635 349 LINE",
"133 349 LINE",
"133 319 LINE"
);
}
);
width = 767;
},
{
anchors = (
{
name = bottom;
position = "{381, 0}";
},
{
name = center;
position = "{381, 329}";
},
{
name = top;
position = "{381, 658}";
},
{
name = topleft;
position = "{16, 658}";
}
);
layerId = "14EEE41F-D714-4243-A717-73445EE7DABA";
paths = (
{
closed = 1;
nodes = (
"662 0 LINE",
"662 658 LINE",
"567 658 LINE",
"567 0 LINE"
);
},
{
closed = 1;
nodes = (
"199 0 LINE",
"199 658 LINE",
"103 658 LINE",
"103 0 LINE"
);
},
{
closed = 1;
nodes = (
"632 296 LINE",
"632 373 LINE",
"134 373 LINE",
"134 296 LINE"
);
}
);
width = 765;
},
{
anchors = (
{
name = bottom;
position = "{389, 0}";
},
{
name = center;
position = "{389, 329}";
},
{
name = top;
position = "{389, 658}";
},
{
name = topleft;
position = "{25, 658}";
}
);
layerId = "090CB6A0-BE7C-4D17-A551-206C7456A8A3";
paths = (
{
closed = 1;
nodes = (
"690 0 LINE",
"690 658 LINE",
"526 658 LINE",
"526 0 LINE"
);
},
{
closed = 1;
nodes = (
"252 0 LINE",
"252 658 LINE",
"87 658 LINE",
"87 0 LINE"
);
},
{
closed = 1;
nodes = (
"622 270 LINE",
"622 398 LINE",
"134 398 LINE",
"134 270 LINE"
);
}
);
width = 776;
}
);
rightKerningGroup = H;
unicode = 0048;
},
{
color = 3;
glyphname = Hbar;
layers = (
{
layerId = "3114FB65-9464-41A5-B67E-A8F9F43C0EF1";
paths = (
{
closed = 1;
nodes = (
"648 0 LINE",
"648 658 LINE",
"611 658 LINE",
"611 0 LINE"
);
},
{
closed = 1;
nodes = (
"156 0 LINE",
"156 658 LINE",
"119 658 LINE",
"119 0 LINE"
);
},
{
closed = 1;
nodes = (
"635 197 LINE",
"635 226 LINE",
"134 226 LINE",
"134 197 LINE"
);
},
{
closed = 1;
nodes = (
"635 442 LINE",
"635 471 LINE",
"134 471 LINE",
"134 442 LINE"
);
}
);
width = 766;
},
{
layerId = "14EEE41F-D714-4243-A717-73445EE7DABA";
paths = (
{
closed = 1;
nodes = (
"660 0 LINE",
"660 658 LINE",
"565 658 LINE",
"565 0 LINE"
);
},
{
closed = 1;
nodes = (
"198 0 LINE",
"198 658 LINE",
"103 658 LINE",
"103 0 LINE"
);
},
{
closed = 1;
nodes = (
"630 184 LINE",
"630 255 LINE",
"134 255 LINE",
"134 184 LINE"
);
},
{
closed = 1;
nodes = (
"630 412 LINE",
"630 483 LINE",
"134 483 LINE",
"134 412 LINE"
);
}
);
width = 763;
},
{
layerId = "090CB6A0-BE7C-4D17-A551-206C7456A8A3";
paths = (
{
closed = 1;
nodes = (
"689 0 LINE",
"689 658 LINE",
"525 658 LINE",
"525 0 LINE"
);
},
{
closed = 1;
nodes = (
"251 0 LINE",
"251 658 LINE",
"87 658 LINE",
"87 0 LINE"
);
},
{
closed = 1;
nodes = (
"628 158 LINE",
"628 273 LINE",
"142 273 LINE",
"142 158 LINE"
);
},
{
closed = 1;
nodes = (
"628 393 LINE",
"628 509 LINE",
"142 509 LINE",
"142 393 LINE"
);
}
);
width = 775;
}
);
rightKerningGroup = H;
unicode = 0126;
},
{
color = 3;
glyphname = I;
layers = (
{
anchors = (
{
name = bottom;
position = "{147, 0}";
},
{
name = ogonek;
position = "{167, 0}";
},
{
name = top;
position = "{147, 658}";
},
{
name = topleft;
position = "{20, 658}";
}
);
layerId = "3114FB65-9464-41A5-B67E-A8F9F43C0EF1";
paths = (
{
closed = 1;
nodes = (
"167 0 LINE",
"167 658 LINE",
"129 658 LINE",
"129 0 LINE"
);
}
);
width = 296;
},
{
anchors = (
{
name = bottom;
position = "{158, 0}";
},
{
name = ogonek;
position = "{211, 0}";
},
{
name = top;
position = "{158, 658}";
},
{
name = topleft;
position = "{21, 658}";
}
);
layerId = "14EEE41F-D714-4243-A717-73445EE7DABA";
paths = (
{
closed = 1;
nodes = (
"211 0 LINE",
"211 658 LINE",
"113 658 LINE",
"113 0 LINE"
);
}
);
width = 324;
},
{
anchors = (
{
name = bottom;
position = "{179, 0}";
},
{
name = ogonek;
position = "{266, 0}";
},
{
name = top;
position = "{179, 658}";
},
{
name = topleft;
position = "{23, 658}";
}
);
layerId = "090CB6A0-BE7C-4D17-A551-206C7456A8A3";
paths = (
{
closed = 1;
nodes = (
"266 0 LINE",
"266 658 LINE",
"97 658 LINE",
"97 0 LINE"
);
}
);
width = 362;
}
);
leftMetricsKey = "=H+10";
rightKerningGroup = H;
rightMetricsKey = "=H+10";
unicode = 0049;
},
{
color = 3;
glyphname = IJ;
layers = (
{
layerId = "3114FB65-9464-41A5-B67E-A8F9F43C0EF1";
paths = (
{
closed = 1;
nodes = (
"100 274 LINE",
"100 249 LINE SMOOTH",
"100 93 OFFCURVE",
"203 -7 OFFCURVE",
"358 -7 CURVE SMOOTH",
"517 -7 OFFCURVE",
"619 100 OFFCURVE",
"619 264 CURVE SMOOTH",
"619 658 LINE",
"582 658 LINE",
"582 257 LINE SMOOTH",
"582 114 OFFCURVE",
"497 22 OFFCURVE",
"363 22 CURVE SMOOTH",
"227 22 OFFCURVE",
"138 113 OFFCURVE",
"138 253 CURVE SMOOTH",
"138 274 LINE"
);
},
{
closed = 1;
nodes = (
"138 404 LINE",
"138 658 LINE",
"100 658 LINE",
"100 404 LINE"
);
}
);
width = 717;
},
{
layerId = "14EEE41F-D714-4243-A717-73445EE7DABA";
paths = (
{
closed = 1;
nodes = (
"90 278 LINE",
"90 246 LINE SMOOTH",
"90 85 OFFCURVE",
"197 -11 OFFCURVE",
"353 -11 CURVE SMOOTH",
"527 -11 OFFCURVE",
"637 103 OFFCURVE",
"637 276 CURVE SMOOTH",
"637 658 LINE",
"542 658 LINE",
"542 253 LINE SMOOTH",
"542 134 OFFCURVE",
"478 59 OFFCURVE",
"368 59 CURVE SMOOTH",
"258 59 OFFCURVE",
"186 138 OFFCURVE",
"186 258 CURVE SMOOTH",
"186 278 LINE"
);
},
{
closed = 1;
nodes = (
"188 399 LINE",
"188 658 LINE",
"90 658 LINE",
"90 399 LINE"
);
}
);
width = 723;
},
{
layerId = "090CB6A0-BE7C-4D17-A551-206C7456A8A3";
paths = (
{
closed = 1;
nodes = (
"80 288 LINE",
"80 249 LINE SMOOTH",
"80 83 OFFCURVE",
"192 -15 OFFCURVE",
"359 -15 CURVE SMOOTH",
"547 -15 OFFCURVE",
"670 104 OFFCURVE",
"670 287 CURVE SMOOTH",
"670 658 LINE",
"502 658 LINE",
"502 246 LINE SMOOTH",
"502 153 OFFCURVE",
"461 102 OFFCURVE",
"382 102 CURVE SMOOTH",
"311 102 OFFCURVE",
"251 150 OFFCURVE",
"251 253 CURVE SMOOTH",
"251 288 LINE"
);
},
{
closed = 1;
nodes = (
"252 395 LINE",
"252 658 LINE",
"80 658 LINE",
"80 395 LINE"
);
}
);
width = 745;
}
);
leftKerningGroup = U;
leftMetricsKey = U;
rightKerningGroup = U;
rightMetricsKey = U;
unicode = 0132;
},
{
color = 3;
glyphname = Iogonek;
layers = (
{
components = (
{
name = I;
}
);
layerId = "3114FB65-9464-41A5-B67E-A8F9F43C0EF1";
paths = (
{
closed = 1;
nodes = (
"197 -289 OFFCURVE",
"224 -279 OFFCURVE",
"249 -258 CURVE",
"237 -238 LINE",
"218 -254 OFFCURVE",
"198 -262 OFFCURVE",
"170 -262 CURVE SMOOTH",
"113 -262 OFFCURVE",
"80 -224 OFFCURVE",
"80 -166 CURVE SMOOTH",
"80 -111 OFFCURVE",
"106 -48 OFFCURVE",
"167 0 CURVE",
"149 12 LINE",
"72 -43 OFFCURVE",
"43 -114 OFFCURVE",
"43 -172 CURVE SMOOTH",
"43 -245 OFFCURVE",
"88 -289 OFFCURVE",
"161 -289 CURVE SMOOTH"
);
}
);
width = 296;
},
{
components = (
{
name = I;
}
);
layerId = "14EEE41F-D714-4243-A717-73445EE7DABA";
paths = (
{
closed = 1;
nodes = (
"223 -289 OFFCURVE",
"257 -278 OFFCURVE",
"288 -257 CURVE",
"265 -210 LINE",
"248 -220 OFFCURVE",
"230 -225 OFFCURVE",
"210 -225 CURVE SMOOTH",
"162 -225 OFFCURVE",
"140 -187 OFFCURVE",
"140 -143 CURVE SMOOTH",
"140 -91 OFFCURVE",
"162 -40 OFFCURVE",
"211 0 CURVE",
"168 23 LINE",
"80 -31 OFFCURVE",
"44 -102 OFFCURVE",
"44 -163 CURVE SMOOTH",
"44 -240 OFFCURVE",
"94 -289 OFFCURVE",
"178 -289 CURVE SMOOTH"
);
}
);
width = 324;
},
{
components = (
{
alignment = -1;
name = I;
}
);
layerId = "090CB6A0-BE7C-4D17-A551-206C7456A8A3";
paths = (
{
closed = 1;
nodes = (
"244 -289 OFFCURVE",
"285 -274 OFFCURVE",
"322 -248 CURVE",
"294 -185 LINE",
"278 -192 OFFCURVE",
"263 -195 OFFCURVE",
"248 -195 CURVE SMOOTH",
"209 -195 OFFCURVE",
"192 -162 OFFCURVE",
"192 -127 CURVE SMOOTH",
"192 -80 OFFCURVE",
"214 -31 OFFCURVE",
"261 0 CURVE",
"193 34 LINE",
"86 -19 OFFCURVE",
"42 -87 OFFCURVE",
"42 -157 CURVE SMOOTH",
"42 -235 OFFCURVE",
"95 -289 OFFCURVE",
"190 -289 CURVE SMOOTH"
);
}
);
width = 354;
}
);
rightKerningGroup = H;
unicode = 012E;
},
{
color = 3;
glyphname = J;
layers = (
{
anchors = (
{
name = bottom;
position = "{169, 0}";
},
{
name = top;
position = "{169, 658}";
}
);
layerId = "3114FB65-9464-41A5-B67E-A8F9F43C0EF1";
paths = (
{
closed = 1;
nodes = (
"151 -78 OFFCURVE",
"99 -144 OFFCURVE",
"12 -174 CURVE",
"21 -198 LINE",
"121 -169 OFFCURVE",
"188 -94 OFFCURVE",
"188 36 CURVE SMOOTH",
"188 658 LINE",
"151 658 LINE",
"151 36 LINE SMOOTH"
);
}
);
width = 315;
},
{
anchors = (
{
name = bottom;
position = "{164, 0}";
},
{
name = top;
position = "{164, 658}";
}
);
layerId = "14EEE41F-D714-4243-A717-73445EE7DABA";
paths = (
{
closed = 1;
nodes = (
"120 -75 OFFCURVE",
"74 -121 OFFCURVE",
"-11 -152 CURVE",
"13 -208 LINE",
"132 -177 OFFCURVE",
"215 -114 OFFCURVE",
"215 53 CURVE SMOOTH",
"215 658 LINE",
"120 658 LINE",
"120 53 LINE SMOOTH"
);
}
);
width = 317;
},
{
anchors = (
{
name = bottom;
position = "{174, 0}";
},
{
name = top;
position = "{176, 658}";
}
);
layerId = "090CB6A0-BE7C-4D17-A551-206C7456A8A3";
paths = (
{
closed = 1;
nodes = (
"98 -62 OFFCURVE",
"63 -97 OFFCURVE",
"-13 -132 CURVE",
"21 -217 LINE",
"170 -182 OFFCURVE",
"263 -125 OFFCURVE",
"263 80 CURVE SMOOTH",
"263 658 LINE",
"98 658 LINE",
"98 80 LINE SMOOTH"
);
}
);
width = 346;
}
);
leftKerningGroup = J;
rightKerningGroup = H;
unicode = 004A;
},
{
color = 3;
glyphname = K;
layers = (
{
anchors = (
{
name = bottom;
position = "{329, 0}";
},
{
name = top;
position = "{325, 658}";
}
);
layerId = "3114FB65-9464-41A5-B67E-A8F9F43C0EF1";
paths = (
{
closed = 1;
nodes = (
"572 0 LINE",
"182 352 LINE",
"180 330 LINE",
"531 658 LINE",
"482 658 LINE",
"148 338 LINE",
"517 0 LINE"
);
},
{
closed = 1;
nodes = (
"155 0 LINE",
"155 658 LINE",
"119 658 LINE",
"119 0 LINE"
);
}
);
width = 592;
},
{
anchors = (
{
name = bottom;
position = "{342, 0}";
},
{
name = top;
position = "{335, 658}";
}
);
layerId = "14EEE41F-D714-4243-A717-73445EE7DABA";
paths = (
{
closed = 1;
nodes = (
"626 0 LINE",
"269 366 LINE",
"261 322 LINE",
"574 658 LINE",
"458 658 LINE",
"183 336 LINE",
"488 0 LINE"
);
},
{
closed = 1;
nodes = (
"196 0 LINE",
"196 658 LINE",
"103 658 LINE",
"103 0 LINE"
);
}
);
width = 628;
},
{
anchors = (
{
name = bottom;
position = "{365, 0}";
},
{
name = top;
position = "{361, 658}";
}
);
layerId = "090CB6A0-BE7C-4D17-A551-206C7456A8A3";
paths = (
{
closed = 1;
nodes = (
"698 0 LINE",
"369 393 LINE",
"363 316 LINE",
"647 658 LINE",
"464 658 LINE",
"235 336 LINE",
"479 0 LINE"
);
},
{
closed = 1;
nodes = (
"249 0 LINE",
"249 658 LINE",
"87 658 LINE",
"87 0 LINE"
);
}
);
width = 687;
}
);
leftMetricsKey = H;
rightKerningGroup = K;
unicode = 004B;
},
{
color = 3;
glyphname = L;
layers = (
{
anchors = (
{
name = bottom;
position = "{320, 0}";
},
{
name = center;
position = "{137, 302}";
},
{
name = top;
position = "{140, 658}";
},
{
name = topright;
position = "{429, 711}";
}
);
layerId = "3114FB65-9464-41A5-B67E-A8F9F43C0EF1";
paths = (
{
closed = 1;
nodes = (
"156 0 LINE",
"156 658 LINE",
"119 658 LINE",
"119 0 LINE"
);
},
{
closed = 1;
nodes = (
"519 0 LINE",
"519 30 LINE",
"134 30 LINE",
"134 0 LINE"
);
}
);
width = 546;
},
{
anchors = (
{
name = bottom;
position = "{321, 0}";
},
{
name = center;
position = "{147, 320}";
},
{
name = top;
position = "{154, 658}";
},
{
name = topright;
position = "{459, 711}";
}
);
layerId = "14EEE41F-D714-4243-A717-73445EE7DABA";
paths = (
{
closed = 1;
nodes = (
"198 0 LINE",
"198 658 LINE",
"103 658 LINE",
"103 0 LINE"
);
},
{
closed = 1;
nodes = (
"529 0 LINE",
"529 75 LINE",
"134 75 LINE",
"134 0 LINE"
);
}
);
width = 550;
},
{
anchors = (
{
name = bottom;
position = "{321, 0}";
},
{
name = center;
position = "{161, 343}";
},
{
name = top;
position = "{171, 658}";
},
{
name = topright;
position = "{507, 705}";
}
);
layerId = "090CB6A0-BE7C-4D17-A551-206C7456A8A3";
paths = (
{
closed = 1;
nodes = (
"251 0 LINE",
"251 658 LINE",
"87 658 LINE",
"87 0 LINE"
);
},
{
closed = 1;
nodes = (
"544 0 LINE",
"544 123 LINE",
"138 123 LINE",
"138 0 LINE"
);
}
);
width = 564;
}
);
leftMetricsKey = H;
rightKerningGroup = L;
unicode = 004C;
},
{
color = 3;
glyphname = Lslash;
layers = (
{
anchors = (
{
name = _center;
position = "{158, 302}";
}
);
components = (
{
alignment = -1;
name = L;
transform = "{1, 0, 0, 1, 21, 0}";
}
);
layerId = "3114FB65-9464-41A5-B67E-A8F9F43C0EF1";
paths = (
{
closed = 1;
nodes = (
"376 411 LINE",
"362 437 LINE",
"37 249 LINE",
"51 223 LINE"
);
}
);
width = 567;
},
{
anchors = (
{
name = _center;
position = "{168, 320}";
}
);
components = (
{
alignment = -1;
name = L;
transform = "{1, 0, 0, 1, 21, 0}";
}
);
layerId = "14EEE41F-D714-4243-A717-73445EE7DABA";
paths = (
{
closed = 1;
nodes = (
"392 407 LINE",
"356 471 LINE",
"20 276 LINE",
"56 214 LINE"
);
}
);
width = 571;
},
{
anchors = (
{
name = _center;
position = "{185, 343}";
}
);
components = (
{
alignment = -1;
name = L;
transform = "{1, 0, 0, 1, 25, 0}";
}
);
layerId = "090CB6A0-BE7C-4D17-A551-206C7456A8A3";
paths = (
{
closed = 1;
nodes = (
"428 404 LINE",
"375 509 LINE",
"3 316 LINE",
"55 213 LINE"
);
}
);
width = 589;
}
);
rightKerningGroup = L;
rightMetricsKey = L;
unicode = 0141;
},
{
color = 3;
glyphname = M;
layers = (
{
anchors = (
{
name = bottom;
position = "{457, 0}";
},
{
name = top;
position = "{456, 658}";
}
);
layerId = "3114FB65-9464-41A5-B67E-A8F9F43C0EF1";
paths = (
{
closed = 1;
nodes = (
"809 0 LINE",
"770 658 LINE",
"730 658 LINE",
"452 93 LINE",
"466 93 LINE",
"185 658 LINE",
"159 658 LINE",
"158 632 LINE",
"442 59 LINE",
"467 59 LINE",
"754 642 LINE",
"737 643 LINE",
"772 0 LINE"
);
},
{
closed = 1;
nodes = (
"136 0 LINE",
"171 658 LINE",
"142 658 LINE",
"102 0 LINE"
);
}
);
width = 910;
},
{
anchors = (
{
name = bottom;
position = "{463, 0}";
},
{
name = top;
position = "{462, 658}";
}
);
layerId = "14EEE41F-D714-4243-A717-73445EE7DABA";
paths = (
{
closed = 1;
nodes = (
"828 0 LINE",
"789 658 LINE",
"689 658 LINE",
"455 152 LINE",
"483 152 LINE",
"242 658 LINE",
"175 658 LINE",
"174 593 LINE",
"428 54 LINE",
"485 54 LINE",
"753 632 LINE",
"708 613 LINE",
"732 0 LINE"
);
},
{
closed = 1;
nodes = (
"177 0 LINE",
"203 658 LINE",
"134 658 LINE",
"89 0 LINE"
);
}
);
width = 917;
},
{
anchors = (
{
name = bottom;
position = "{471, 0}";
},
{
name = top;
position = "{478, 658}";
}
);
layerId = "090CB6A0-BE7C-4D17-A551-206C7456A8A3";
paths = (
{
closed = 1;
nodes = (
"868 0 LINE",
"830 658 LINE",
"651 658 LINE",
"458 194 LINE",
"508 194 LINE",
"313 658 LINE",
"203 658 LINE",
"195 564 LINE",
"409 44 LINE",
"512 44 LINE",
"749 615 LINE",
"690 576 LINE",
"705 0 LINE"
);
},
{
closed = 1;
nodes = (
"214 0 LINE",
"234 658 LINE",
"121 658 LINE",
"76 0 LINE"
);
}
);
width = 942;
}
);
leftKerningGroup = M;
rightKerningGroup = H;
unicode = 004D;
},
{
color = 3;
glyphname = N;
layers = (
{
anchors = (
{
name = bottom;
position = "{383, 0}";
},
{
name = top;
position = "{383, 658}";
}
);
layerId = "3114FB65-9464-41A5-B67E-A8F9F43C0EF1";
paths = (
{
closed = 1;
nodes = (
"153 0 LINE",
"149 658 LINE",
"119 658 LINE",
"119 0 LINE"
);
},
{
closed = 1;
nodes = (
"631 38 LINE",
"158 658 LINE",
"134 658 LINE",
"133 632 LINE",
"614 0 LINE",
"632 0 LINE"
);
},
{
closed = 1;
nodes = (
"613 658 LINE",
"617 0 LINE",
"648 0 LINE",
"648 658 LINE"
);
}
);
width = 767;
},
{
anchors = (
{
name = bottom;
position = "{386, 0}";
},
{
name = top;
position = "{386, 658}";
}
);
layerId = "14EEE41F-D714-4243-A717-73445EE7DABA";
paths = (
{
closed = 1;
nodes = (
"190 0 LINE",
"178 658 LINE",
"103 658 LINE",
"103 0 LINE"
);
},
{
closed = 1;
nodes = (
"628 102 LINE",
"198 658 LINE",
"136 658 LINE",
"134 595 LINE",
"591 0 LINE",
"630 0 LINE"
);
},
{
closed = 1;
nodes = (
"583 658 LINE",
"595 0 LINE",
"670 0 LINE",
"670 658 LINE"
);
}
);
width = 773;
},
{
anchors = (
{
name = bottom;
position = "{387, 0}";
},
{
name = top;
position = "{387, 658}";
}
);
layerId = "090CB6A0-BE7C-4D17-A551-206C7456A8A3";
paths = (
{
closed = 1;
nodes = (
"230 0 LINE",
"208 658 LINE",
"87 658 LINE",
"87 0 LINE"
);
},
{
closed = 1;
nodes = (
"623 162 LINE",
"239 658 LINE",
"142 658 LINE",
"139 549 LINE",
"557 0 LINE",
"624 0 LINE"
);
},
{
closed = 1;
nodes = (
"545 658 LINE",
"567 0 LINE",
"688 0 LINE",
"688 658 LINE"
);
}
);
width = 774;
}
);
leftMetricsKey = H;
rightKerningGroup = H;
rightMetricsKey = H;
unicode = 004E;
},
{
color = 3;
glyphname = Eng;
layers = (
{
anchors = (
{
name = bottom;
position = "{390, 0}";
},
{
name = top;
position = "{390, 658}";
}
);
layerId = "3114FB65-9464-41A5-B67E-A8F9F43C0EF1";
paths = (
{
closed = 1;
nodes = (
"629 32 LINE",
"156 658 LINE",
"134 658 LINE",
"133 630 LINE",
"613 -3 LINE"
);
},
{
closed = 1;
nodes = (
"154 0 LINE",
"150 658 LINE",
"119 658 LINE",
"119 0 LINE"
);
},
{
closed = 1;
nodes = (
"579 -169 OFFCURVE",
"646 -94 OFFCURVE",
"646 36 CURVE SMOOTH",
"646 658 LINE",
"609 658 LINE",
"611 36 LINE SMOOTH",
"611 -78 OFFCURVE",
"558 -144 OFFCURVE",
"469 -174 CURVE",
"479 -198 LINE"
);
}
);
width = 765;
},
{
anchors = (
{
name = bottom;
position = "{393, 0}";
},
{
name = top;
position = "{393, 658}";
}
);
layerId = "14EEE41F-D714-4243-A717-73445EE7DABA";
paths = (
{
closed = 1;
nodes = (
"625 85 LINE",
"193 658 LINE",
"136 658 LINE",
"134 587 LINE",
"584 -1 LINE"
);
},
{
closed = 1;
nodes = (
"191 0 LINE",
"179 658 LINE",
"103 658 LINE",
"103 0 LINE"
);
},
{
closed = 1;
nodes = (
"584 -177 OFFCURVE",
"668 -114 OFFCURVE",
"668 53 CURVE SMOOTH",
"668 658 LINE",
"572 658 LINE",
"580 53 LINE SMOOTH",
"580 -75 OFFCURVE",
"532 -121 OFFCURVE",
"441 -152 CURVE",
"465 -208 LINE"
);
}
);
width = 771;
},
{
anchors = (
{
name = bottom;
position = "{394, 0}";
},
{
name = top;
position = "{394, 658}";
}
);
layerId = "090CB6A0-BE7C-4D17-A551-206C7456A8A3";
paths = (
{
closed = 1;
nodes = (
"628 144 LINE",
"233 658 LINE",
"143 658 LINE",
"140 549 LINE",
"562 0 LINE"
);
},
{
closed = 1;
nodes = (
"232 0 LINE",
"212 658 LINE",
"87 658 LINE",
"87 0 LINE"
);
},
{
closed = 1;
nodes = (
"603 -182 OFFCURVE",
"696 -125 OFFCURVE",
"696 80 CURVE SMOOTH",
"696 658 LINE",
"545 658 LINE",
"556 79 LINE SMOOTH",
"558 -62 OFFCURVE",
"514 -97 OFFCURVE",
"420 -132 CURVE",
"455 -217 LINE"
);
}
);
width = 782;
}
);
leftMetricsKey = N;
rightKerningGroup = H;
rightMetricsKey = N;
unicode = 014A;
},
{
color = 3;
glyphname = O;
layers = (
{
anchors = (
{
name = bottom;
position = "{409, 0}";
},
{
name = center;
position = "{398, 328}";
},
{
name = ogonek;
position = "{459, 0}";
},
{
name = top;
position = "{398, 658}";
},
{
name = topleft;
position = "{20, 658}";
},
{
name = topright;
position = "{581, 581}";
}
);
layerId = "3114FB65-9464-41A5-B67E-A8F9F43C0EF1";
paths = (
{
closed = 1;
nodes = (
"587 -7 OFFCURVE",
"733 133 OFFCURVE",
"733 331 CURVE SMOOTH",
"733 525 OFFCURVE",
"592 665 OFFCURVE",
"400 665 CURVE SMOOTH",
"207 665 OFFCURVE",
"60 524 OFFCURVE",
"60 327 CURVE SMOOTH",
"60 134 OFFCURVE",
"201 -7 OFFCURVE",
"394 -7 CURVE SMOOTH"
);
},
{
closed = 1;
nodes = (
"228 22 OFFCURVE",
"100 151 OFFCURVE",
"100 332 CURVE SMOOTH",
"100 510 OFFCURVE",
"223 636 OFFCURVE",
"394 636 CURVE SMOOTH",
"566 636 OFFCURVE",
"694 508 OFFCURVE",
"694 326 CURVE SMOOTH",
"694 149 OFFCURVE",
"572 22 OFFCURVE",
"400 22 CURVE SMOOTH"
);
}
);
width = 793;
},
{
anchors = (
{
name = bottom;
position = "{408, 0}";
},
{
name = center;
position = "{397, 328}";
},
{
name = ogonek;
position = "{478, 0}";
},
{
name = top;
position = "{399, 658}";
},
{
name = topleft;
position = "{25, 658}";
},
{
name = topright;
position = "{555, 549}";
}
);
layerId = "14EEE41F-D714-4243-A717-73445EE7DABA";
paths = (
{
closed = 1;
nodes = (
"578 -11 OFFCURVE",
"734 125 OFFCURVE",
"734 333 CURVE SMOOTH",
"734 528 OFFCURVE",
"595 669 OFFCURVE",
"403 669 CURVE SMOOTH",
"213 669 OFFCURVE",
"55 532 OFFCURVE",
"55 325 CURVE SMOOTH",
"55 131 OFFCURVE",
"194 -11 OFFCURVE",
"388 -11 CURVE SMOOTH"
);
},
{
closed = 1;
nodes = (
"269 59 OFFCURVE",
"160 170 OFFCURVE",
"160 340 CURVE SMOOTH",
"160 496 OFFCURVE",
"252 599 OFFCURVE",
"385 599 CURVE SMOOTH",
"524 599 OFFCURVE",
"632 489 OFFCURVE",
"632 318 CURVE SMOOTH",
"632 164 OFFCURVE",
"542 59 OFFCURVE",
"405 59 CURVE SMOOTH"
);
}
);
width = 789;
},
{
anchors = (
{
name = bottom;
position = "{415, 0}";
},
{
name = center;
position = "{404, 328}";
},
{
name = ogonek;
position = "{512, 0}";
},
{
name = top;
position = "{410, 658}";
},
{
name = topleft;
position = "{39, 658}";
},
{
name = topright;
position = "{549, 538}";
}
);
layerId = "090CB6A0-BE7C-4D17-A551-206C7456A8A3";
paths = (
{
closed = 1;
nodes = (
"594 -15 OFFCURVE",
"753 122 OFFCURVE",
"753 339 CURVE SMOOTH",
"753 538 OFFCURVE",
"615 673 OFFCURVE",
"417 673 CURVE SMOOTH",
"210 673 OFFCURVE",
"50 535 OFFCURVE",
"50 318 CURVE SMOOTH",
"50 121 OFFCURVE",
"189 -15 OFFCURVE",
"388 -15 CURVE SMOOTH"
);
},
{
closed = 1;
nodes = (
"315 96 OFFCURVE",
"238 181 OFFCURVE",
"238 344 CURVE SMOOTH",
"238 484 OFFCURVE",
"296 560 OFFCURVE",
"392 560 CURVE SMOOTH",
"495 560 OFFCURVE",
"568 475 OFFCURVE",
"568 312 CURVE SMOOTH",
"568 176 OFFCURVE",
"514 96 OFFCURVE",
"415 96 CURVE SMOOTH"
);
}
);
width = 803;
}
);
leftKerningGroup = O;
rightKerningGroup = O;
unicode = 004F;
},
{
color = 3;
glyphname = Oslash;
layers = (
{
anchors = (
{
name = bottom;
position = "{402, 0}";
},
{
name = center;
position = "{397, 328}";
},
{
name = ogonek;
position = "{458, 0}";
},
{
name = top;
position = "{403, 658}";
},
{
name = topleft;
position = "{20, 658}";
},
{
name = topright;
position = "{581, 581}";
}
);
layerId = "3114FB65-9464-41A5-B67E-A8F9F43C0EF1";
paths = (
{
closed = 1;
nodes = (
"587 -7 OFFCURVE",
"733 137 OFFCURVE",
"733 331 CURVE SMOOTH",
"733 522 OFFCURVE",
"592 665 OFFCURVE",
"399 665 CURVE SMOOTH",
"206 665 OFFCURVE",
"60 521 OFFCURVE",
"60 327 CURVE SMOOTH",
"60 136 OFFCURVE",
"201 -7 OFFCURVE",
"394 -7 CURVE SMOOTH"
);
},
{
closed = 1;
nodes = (
"224 21 OFFCURVE",
"98 152 OFFCURVE",
"98 332 CURVE SMOOTH",
"98 509 OFFCURVE",
"222 636 OFFCURVE",
"394 636 CURVE SMOOTH",
"569 636 OFFCURVE",
"695 506 OFFCURVE",
"695 325 CURVE SMOOTH",
"695 148 OFFCURVE",
"571 21 OFFCURVE",
"399 21 CURVE SMOOTH"
);
},
{
closed = 1;
nodes = (
"708 673 LINE",
"685 693 LINE",
"83 -22 LINE",
"105 -41 LINE"
);
}
);
width = 792;
},
{
anchors = (
{
name = bottom;
position = "{396, 0}";
},
{
name = center;
position = "{395, 328}";
},
{
name = ogonek;
position = "{476, 0}";
},
{
name = top;
position = "{401, 658}";
},
{
name = topleft;
position = "{23, 658}";
},
{
name = topright;
position = "{554, 549}";
}
);
layerId = "14EEE41F-D714-4243-A717-73445EE7DABA";
paths = (
{
closed = 1;
nodes = (
"579 -11 OFFCURVE",
"734 136 OFFCURVE",
"734 333 CURVE SMOOTH",
"734 521 OFFCURVE",
"595 669 OFFCURVE",
"401 669 CURVE SMOOTH",
"209 669 OFFCURVE",
"55 522 OFFCURVE",
"55 324 CURVE SMOOTH",
"55 137 OFFCURVE",
"193 -11 OFFCURVE",
"386 -11 CURVE SMOOTH"
);
},
{
closed = 1;
nodes = (
"254 58 OFFCURVE",
"152 174 OFFCURVE",
"152 342 CURVE SMOOTH",
"152 494 OFFCURVE",
"247 599 OFFCURVE",
"386 599 CURVE SMOOTH",
"534 599 OFFCURVE",
"636 483 OFFCURVE",
"636 315 CURVE SMOOTH",
"636 162 OFFCURVE",
"540 58 OFFCURVE",
"402 58 CURVE SMOOTH"
);
},
{
closed = 1;
nodes = (
"713 650 LINE",
"658 698 LINE",
"67 -6 LINE",
"121 -52 LINE"
);
}
);
width = 787;
},
{
anchors = (
{
name = bottom;
position = "{389, 0}";
},
{
name = center;
position = "{402, 328}";
},
{
name = ogonek;
position = "{510, 0}";
},
{
name = top;
position = "{405, 658}";
},
{
name = topleft;
position = "{38, 658}";
},
{
name = topright;
position = "{547, 538}";
}
);
layerId = "090CB6A0-BE7C-4D17-A551-206C7456A8A3";
paths = (
{
closed = 1;
nodes = (
"593 -15 OFFCURVE",
"752 130 OFFCURVE",
"752 338 CURVE SMOOTH",
"752 533 OFFCURVE",
"614 673 OFFCURVE",
"413 673 CURVE SMOOTH",
"207 673 OFFCURVE",
"50 526 OFFCURVE",
"50 319 CURVE SMOOTH",
"50 125 OFFCURVE",
"187 -15 OFFCURVE",
"388 -15 CURVE SMOOTH"
);
},
{
closed = 1;
nodes = (
"292 95 OFFCURVE",
"215 184 OFFCURVE",
"215 344 CURVE SMOOTH",
"215 482 OFFCURVE",
"281 560 OFFCURVE",
"392 560 CURVE SMOOTH",
"515 560 OFFCURVE",
"586 470 OFFCURVE",
"586 311 CURVE SMOOTH",
"586 175 OFFCURVE",
"525 95 OFFCURVE",
"413 95 CURVE SMOOTH"
);
},
{
closed = 1;
nodes = (
"741 622 LINE",
"654 703 LINE",
"50 21 LINE",
"137 -56 LINE"
);
}
);
width = 801;
}
);
leftKerningGroup = O;
rightKerningGroup = U;
unicode = 00D8;
},
{
color = 3;
glyphname = OE;
layers = (
{
anchors = (
{
name = bottom;
position = "{482, 0}";
},
{
name = top;
position = "{482, 658}";
}
);
layerId = "3114FB65-9464-41A5-B67E-A8F9F43C0EF1";
paths = (
{
closed = 1;
nodes = (
"452 -5 OFFCURVE",
"488 0 OFFCURVE",
"519 11 CURVE",
"504 37 LINE",
"478 27 OFFCURVE",
"450 23 OFFCURVE",
"418 23 CURVE SMOOTH",
"229 23 OFFCURVE",
"89 151 OFFCURVE",
"89 331 CURVE SMOOTH",
"89 509 OFFCURVE",
"225 635 OFFCURVE",
"414 635 CURVE SMOOTH",
"446 635 OFFCURVE",
"478 630 OFFCURVE",
"503 621 CURVE",
"509 654 LINE",
"481 660 OFFCURVE",
"451 663 OFFCURVE",
"418 663 CURVE SMOOTH",
"208 663 OFFCURVE",
"50 521 OFFCURVE",
"50 326 CURVE SMOOTH",
"50 134 OFFCURVE",
"205 -5 OFFCURVE",
"413 -5 CURVE SMOOTH"
);
},
{
closed = 1;
nodes = (
"817 319 LINE",
"817 349 LINE",
"496 349 LINE",
"496 319 LINE"
);
},
{
closed = 1;
nodes = (
"884 0 LINE",
"884 30 LINE",
"519 30 LINE",
"519 628 LINE",
"855 628 LINE",
"855 658 LINE",
"483 658 LINE",
"483 0 LINE"
);
}
);
width = 932;
},
{
anchors = (
{
name = bottom;
position = "{493, 0}";
},
{
name = top;
position = "{493, 658}";
}
);
layerId = "14EEE41F-D714-4243-A717-73445EE7DABA";
paths = (
{
closed = 1;
nodes = (
"460 -6 OFFCURVE",
"515 8 OFFCURVE",
"562 34 CURVE",
"524 93 LINE",
"493 72 OFFCURVE",
"457 62 OFFCURVE",
"414 62 CURVE SMOOTH",
"257 62 OFFCURVE",
"147 173 OFFCURVE",
"147 336 CURVE SMOOTH",
"147 495 OFFCURVE",
"250 594 OFFCURVE",
"401 594 CURVE SMOOTH",
"446 594 OFFCURVE",
"494 584 OFFCURVE",
"519 563 CURVE",
"536 646 LINE",
"500 658 OFFCURVE",
"459 664 OFFCURVE",
"416 664 CURVE SMOOTH",
"210 664 OFFCURVE",
"45 522 OFFCURVE",
"45 322 CURVE SMOOTH",
"45 133 OFFCURVE",
"195 -6 OFFCURVE",
"398 -6 CURVE SMOOTH"
);
},
{
closed = 1;
nodes = (
"823 296 LINE",
"823 371 LINE",
"499 371 LINE",
"499 296 LINE"
);
},
{
closed = 1;
nodes = (
"891 0 LINE",
"891 76 LINE",
"564 76 LINE",
"564 582 LINE",
"861 582 LINE",
"861 658 LINE",
"472 658 LINE",
"472 0 LINE"
);
}
);
width = 934;
},
{
anchors = (
{
name = bottom;
position = "{493, 0}";
},
{
name = top;
position = "{493, 658}";
}
);
layerId = "090CB6A0-BE7C-4D17-A551-206C7456A8A3";
paths = (
{
closed = 1;
nodes = (
"470 -8 OFFCURVE",
"543 13 OFFCURVE",
"602 51 CURVE",
"519 137 LINE",
"491 114 OFFCURVE",
"457 103 OFFCURVE",
"413 103 CURVE SMOOTH",
"295 103 OFFCURVE",
"217 186 OFFCURVE",
"217 341 CURVE SMOOTH",
"217 483 OFFCURVE",
"285 557 OFFCURVE",
"400 557 CURVE SMOOTH",
"445 557 OFFCURVE",
"490 543 OFFCURVE",
"512 517 CURVE",
"579 633 LINE",
"533 654 OFFCURVE",
"478 666 OFFCURVE",
"418 666 CURVE SMOOTH",
"203 666 OFFCURVE",
"40 525 OFFCURVE",
"40 316 CURVE SMOOTH",
"40 125 OFFCURVE",
"184 -8 OFFCURVE",
"387 -8 CURVE SMOOTH"
);
},
{
closed = 1;
nodes = (
"849 276 LINE",
"849 391 LINE",
"516 391 LINE",
"516 276 LINE"
);
},
{
closed = 1;
nodes = (
"914 0 LINE",
"914 120 LINE",
"621 120 LINE",
"621 538 LINE",
"889 538 LINE",
"889 658 LINE",
"468 658 LINE",
"468 0 LINE"
);
}
);
width = 947;
}
);
leftKerningGroup = O;
leftMetricsKey = "=O-10";
rightMetricsKey = "=E-10";
unicode = 0152;
},
{
color = 3;
glyphname = P;
layers = (
{
anchors = (
{
name = bottom;
position = "{286, 0}";
},
{
name = top;
position = "{286, 658}";
}
);
layerId = "3114FB65-9464-41A5-B67E-A8F9F43C0EF1";
paths = (
{
closed = 1;
nodes = (
"418 244 OFFCURVE",
"515 341 OFFCURVE",
"515 468 CURVE SMOOTH",
"515 592 OFFCURVE",
"419 658 OFFCURVE",
"277 658 CURVE SMOOTH",
"119 658 LINE",
"119 0 LINE",
"156 0 LINE",
"156 629 LINE",
"272 629 LINE SMOOTH",
"395 629 OFFCURVE",
"478 572 OFFCURVE",
"478 461 CURVE SMOOTH",
"478 351 OFFCURVE",
"401 274 OFFCURVE",
"263 274 CURVE SMOOTH",
"236 274 OFFCURVE",
"188 276 OFFCURVE",
"142 282 CURVE",
"142 253 LINE",
"184 246 OFFCURVE",
"234 244 OFFCURVE",
"256 244 CURVE SMOOTH"
);
}
);
width = 571;
},
{
anchors = (
{
name = bottom;
position = "{291, 0}";
},
{
name = top;
position = "{291, 658}";
}
);
layerId = "14EEE41F-D714-4243-A717-73445EE7DABA";
paths = (
{
closed = 1;
nodes = (
"434.993 227.007 OFFCURVE",
"545 334 OFFCURVE",
"545 463 CURVE SMOOTH",
"545 586 OFFCURVE",
"444 658 OFFCURVE",
"298 658 CURVE SMOOTH",
"103 658 LINE",
"103 0 LINE",
"197 0 LINE",
"197 587 LINE",
"282 587 LINE SMOOTH",
"383 587 OFFCURVE",
"448 536 OFFCURVE",
"448 442 CURVE SMOOTH",
"448 351 OFFCURVE",
"391 300 OFFCURVE",
"277 300 CURVE SMOOTH",
"244 300 OFFCURVE",
"209 302 OFFCURVE",
"163 307 CURVE",
"163 237 LINE",
"202 229 OFFCURVE",
"248 227 OFFCURVE",
"268 227 CURVE SMOOTH"
);
}
);
width = 590;
},
{
anchors = (
{
name = bottom;
position = "{302, 0}";
},
{
name = top;
position = "{302, 658}";
}
);
layerId = "090CB6A0-BE7C-4D17-A551-206C7456A8A3";
paths = (
{
closed = 1;
nodes = (
"465 197 OFFCURVE",
"593 307 OFFCURVE",
"593 451 CURVE SMOOTH",
"593 576 OFFCURVE",
"488 658 OFFCURVE",
"320 658 CURVE SMOOTH",
"87 658 LINE",
"87 0 LINE",
"248 0 LINE",
"248 542 LINE",
"298 542 LINE SMOOTH",
"379 542 OFFCURVE",
"426 501 OFFCURVE",
"426 426 CURVE SMOOTH",
"426 349 OFFCURVE",
"387 314 OFFCURVE",
"299 314 CURVE SMOOTH",
"262 314 OFFCURVE",
"226 318 OFFCURVE",
"191 323 CURVE",
"187 207 LINE",
"227 199 OFFCURVE",
"267 197 OFFCURVE",
"297 197 CURVE SMOOTH"
);
}
);
width = 624;
}
);
leftMetricsKey = H;
rightKerningGroup = P;
unicode = 0050;
},
{
color = 3;
glyphname = Thorn;
layers = (
{
anchors = (
{
name = bottom;
position = "{290, 0}";
},
{
name = top;
position = "{290, 658}";
}
);
layerId = "3114FB65-9464-41A5-B67E-A8F9F43C0EF1";
paths = (
{
closed = 1;
nodes = (
"156 0 LINE",
"156 507 LINE",
"308 507 LINE SMOOTH",
"430 507 OFFCURVE",
"511 445 OFFCURVE",
"511 339 CURVE SMOOTH",
"511 240 OFFCURVE",
"425 159 OFFCURVE",
"297 159 CURVE SMOOTH",
"142 159 LINE",
"142 129 LINE",
"293 129 LINE SMOOTH",
"443 129 OFFCURVE",
"547 226 OFFCURVE",
"547 344 CURVE SMOOTH",
"547 466 OFFCURVE",
"453 537 OFFCURVE",
"312 537 CURVE SMOOTH",
"156 537 LINE",
"156 658 LINE",
"119 658 LINE",
"119 0 LINE"
);
}
);
width = 603;
},
{
anchors = (
{
name = bottom;
position = "{306, 0}";
},
{
name = top;
position = "{306, 658}";
}
);
layerId = "14EEE41F-D714-4243-A717-73445EE7DABA";
paths = (
{
closed = 1;
nodes = (
"197 0 LINE",
"197 472 LINE",
"329 472 LINE SMOOTH",
"424 472 OFFCURVE",
"487 417 OFFCURVE",
"487 334 CURVE SMOOTH",
"487 252 OFFCURVE",
"422 194 OFFCURVE",
"329 194 CURVE SMOOTH",
"163 194 LINE",
"163 119 LINE",
"314 119 LINE SMOOTH",
"464 119 OFFCURVE",
"579 223 OFFCURVE",
"579 351 CURVE SMOOTH",
"579 471 OFFCURVE",
"484 547 OFFCURVE",
"344 547 CURVE SMOOTH",
"197 547 LINE",
"197 658 LINE",
"103 658 LINE",
"103 0 LINE"
);
}
);
width = 624;
},
{
anchors = (
{
name = bottom;
position = "{328, 0}";
},
{
name = top;
position = "{328, 658}";
}
);
layerId = "090CB6A0-BE7C-4D17-A551-206C7456A8A3";
paths = (
{
closed = 1;
nodes = (
"248 0 LINE",
"248 445 LINE",
"338 445 LINE SMOOTH",
"417 445 OFFCURVE",
"463 400 OFFCURVE",
"463 334 CURVE SMOOTH",
"463 263 OFFCURVE",
"419 222 OFFCURVE",
"340 222 CURVE SMOOTH",
"195 222 LINE",
"195 103 LINE",
"339 103 LINE SMOOTH",
"497 103 OFFCURVE",
"626 210 OFFCURVE",
"626 356 CURVE SMOOTH",
"626 479 OFFCURVE",
"524 564 OFFCURVE",
"359 564 CURVE SMOOTH",
"248 564 LINE",
"248 658 LINE",
"87 658 LINE",
"87 0 LINE"
);
}
);
width = 657;
}
);
leftMetricsKey = B;
rightKerningGroup = O;
rightMetricsKey = P;
unicode = 00DE;
},
{
color = 3;
glyphname = Q;
layers = (
{
components = (
{
name = O;
}
);
layerId = "3114FB65-9464-41A5-B67E-A8F9F43C0EF1";
paths = (
{
closed = 1;
nodes = (
"399 0 LINE",
"471 -101 OFFCURVE",
"558 -158 OFFCURVE",
"647 -158 CURVE SMOOTH",
"668 -158 OFFCURVE",
"704 -155 OFFCURVE",
"737 -136 CURVE",
"725 -108 LINE",
"696 -123 OFFCURVE",
"667 -126 OFFCURVE",
"647 -126 CURVE SMOOTH",
"566 -126 OFFCURVE",
"488 -71 OFFCURVE",
"423 14 CURVE"
);
}
);
width = 793;
},
{
components = (
{
name = O;
}
);
layerId = "14EEE41F-D714-4243-A717-73445EE7DABA";
paths = (
{
closed = 1;
nodes = (
"390 0 LINE",
"459 -108 OFFCURVE",
"548 -165 OFFCURVE",
"658 -165 CURVE SMOOTH",
"683 -165 OFFCURVE",
"724 -161 OFFCURVE",
"771 -140 CURVE",
"749 -88 LINE",
"725 -99 OFFCURVE",
"703 -100 OFFCURVE",
"689 -100 CURVE SMOOTH",
"608 -100 OFFCURVE",
"533 -51 OFFCURVE",
"477 36 CURVE"
);
}
);
width = 789;
},
{
components = (
{
name = O;
}
);
layerId = "090CB6A0-BE7C-4D17-A551-206C7456A8A3";
paths = (
{
closed = 1;
nodes = (
"386 0 LINE",
"461 -124 OFFCURVE",
"555 -184 OFFCURVE",
"676 -184 CURVE SMOOTH",
"706 -184 OFFCURVE",
"755 -179 OFFCURVE",
"811 -153 CURVE",
"780 -74 LINE",
"760 -83 OFFCURVE",
"742 -85 OFFCURVE",
"731 -85 CURVE SMOOTH",
"656 -85 OFFCURVE",
"593 -30 OFFCURVE",
"545 54 CURVE"
);
}
);
width = 803;
}
);
leftKerningGroup = O;
rightKerningGroup = O;
unicode = 0051;
},
{
color = 3;
glyphname = R;
layers = (
{
anchors = (
{
name = bottom;
position = "{338, 0}";
},
{
name = top;
position = "{287, 658}";
}
);
layerId = "3114FB65-9464-41A5-B67E-A8F9F43C0EF1";
paths = (
{
closed = 1;
nodes = (
"155 0 LINE",
"155 629 LINE",
"282 629 LINE SMOOTH",
"390 629 OFFCURVE",
"450 576 OFFCURVE",
"450 495 CURVE SMOOTH",
"450 400 OFFCURVE",
"366 324 OFFCURVE",
"272 324 CURVE SMOOTH",
"134 324 LINE",
"134 296 LINE",
"269 296 LINE SMOOTH",
"383 296 OFFCURVE",
"488 388 OFFCURVE",
"488 500 CURVE SMOOTH",
"488 596 OFFCURVE",
"411 658 OFFCURVE",
"284 658 CURVE SMOOTH",
"119 658 LINE",
"119 0 LINE"
);
},
{
closed = 1;
nodes = (
"646 -8 OFFCURVE",
"669 -5 OFFCURVE",
"697 4 CURVE",
"689 27 LINE",
"669 22 OFFCURVE",
"651 20 OFFCURVE",
"636 20 CURVE SMOOTH",
"576 20 OFFCURVE",
"531 52 OFFCURVE",
"456 147 CURVE SMOOTH",
"323 319 LINE",
"292 308 LINE",
"422 133 LINE SMOOTH",
"499 29 OFFCURVE",
"549 -8 OFFCURVE",
"626 -8 CURVE SMOOTH"
);
}
);
width = 673;
},
{
anchors = (
{
name = bottom;
position = "{342, 0}";
},
{
name = top;
position = "{290, 658}";
}
);
layerId = "14EEE41F-D714-4243-A717-73445EE7DABA";
paths = (
{
closed = 1;
nodes = (
"196 0 LINE",
"196 588 LINE",
"281 588 LINE SMOOTH",
"372 588 OFFCURVE",
"423 543 OFFCURVE",
"423 473 CURVE SMOOTH",
"423 403 OFFCURVE",
"361 340 OFFCURVE",
"291 340 CURVE SMOOTH",
"138 340 LINE",
"138 274 LINE",
"279 274 LINE SMOOTH",
"405 274 OFFCURVE",
"520 376 OFFCURVE",
"520 490 CURVE SMOOTH",
"520 594 OFFCURVE",
"430 658 OFFCURVE",
"289 658 CURVE SMOOTH",
"103 658 LINE",
"103 0 LINE"
);
},
{
closed = 1;
nodes = (
"631 -10 OFFCURVE",
"661 -5 OFFCURVE",
"698 9 CURVE",
"678 64 LINE",
"663 59 OFFCURVE",
"645 58 OFFCURVE",
"634 58 CURVE SMOOTH",
"595 58 OFFCURVE",
"558 76 OFFCURVE",
"501 147 CURVE SMOOTH",
"361 324 LINE",
"285 297 LINE",
"410 114 LINE SMOOTH",
"473 23 OFFCURVE",
"520 -10 OFFCURVE",
"602 -10 CURVE SMOOTH"
);
}
);
width = 677;
},
{
anchors = (
{
name = bottom;
position = "{357, 0}";
},
{
name = top;
position = "{315, 658}";
}
);
layerId = "090CB6A0-BE7C-4D17-A551-206C7456A8A3";
paths = (
{
closed = 1;
nodes = (
"245 0 LINE",
"245 542 LINE",
"305 542 LINE SMOOTH",
"379 542 OFFCURVE",
"415 511 OFFCURVE",
"415 455 CURVE SMOOTH",
"415 399 OFFCURVE",
"379 352 OFFCURVE",
"321 352 CURVE SMOOTH",
"149 352 LINE",
"149 248 LINE",
"322 248 LINE SMOOTH",
"457 248 OFFCURVE",
"581 362 OFFCURVE",
"581 477 CURVE SMOOTH",
"581 593 OFFCURVE",
"483 658 OFFCURVE",
"336 658 CURVE SMOOTH",
"87 658 LINE",
"87 0 LINE"
);
},
{
closed = 1;
nodes = (
"632 -12 OFFCURVE",
"673 -6 OFFCURVE",
"725 17 CURVE",
"696 101 LINE",
"685 97 OFFCURVE",
"669 95 OFFCURVE",
"659 95 CURVE SMOOTH",
"633 95 OFFCURVE",
"604 108 OFFCURVE",
"564 158 CURVE SMOOTH",
"425 332 LINE",
"307 284 LINE",
"414 102 LINE SMOOTH",
"460 23 OFFCURVE",
"505 -12 OFFCURVE",
"592 -12 CURVE SMOOTH"
);
}
);
width = 711;
}
);
leftMetricsKey = "=B";
rightKerningGroup = R;
unicode = 0052;
},
{
color = 3;
glyphname = S;
layers = (
{
anchors = (
{
name = bottom;
position = "{270, 0}";
},
{
name = top;
position = "{270, 658}";
}
);
layerId = "3114FB65-9464-41A5-B67E-A8F9F43C0EF1";
paths = (
{
closed = 1;
nodes = (
"420 76 OFFCURVE",
"363 21 OFFCURVE",
"260 21 CURVE SMOOTH",
"189 21 OFFCURVE",
"123 47 OFFCURVE",
"76 93 CURVE",
"56 64 LINE",
"103 18 OFFCURVE",
"174 -8 OFFCURVE",
"254 -8 CURVE SMOOTH",
"378 -8 OFFCURVE",
"455 59 OFFCURVE",
"455 165 CURVE SMOOTH",
"455 381 OFFCURVE",
"120 340 OFFCURVE",
"120 511 CURVE SMOOTH",
"120 581 OFFCURVE",
"173 636 OFFCURVE",
"269 636 CURVE SMOOTH",
"327 636 OFFCURVE",
"383 616 OFFCURVE",
"421 585 CURVE",
"437 617 LINE",
"394 648 OFFCURVE",
"334 665 OFFCURVE",
"274 665 CURVE SMOOTH",
"159 665 OFFCURVE",
"85 600 OFFCURVE",
"85 504 CURVE SMOOTH",
"85 307 OFFCURVE",
"420 351 OFFCURVE",
"420 157 CURVE SMOOTH"
);
}
);
width = 517;
},
{
anchors = (
{
name = bottom;
position = "{267, 0}";
},
{
name = top;
position = "{284, 658}";
}
);
layerId = "14EEE41F-D714-4243-A717-73445EE7DABA";
paths = (
{
closed = 1;
nodes = (
"384 100 OFFCURVE",
"339 62 OFFCURVE",
"270 62 CURVE SMOOTH",
"206 62 OFFCURVE",
"139 90 OFFCURVE",
"91 134 CURVE",
"44 55 LINE",
"90 17 OFFCURVE",
"166 -11 OFFCURVE",
"250 -11 CURVE SMOOTH",
"375 -11 OFFCURVE",
"474 59 OFFCURVE",
"474 184 CURVE SMOOTH",
"474 386 OFFCURVE",
"163 374 OFFCURVE",
"163 505 CURVE SMOOTH",
"163 550 OFFCURVE",
"194 598 OFFCURVE",
"269 598 CURVE SMOOTH",
"318 598 OFFCURVE",
"377 578 OFFCURVE",
"417 543 CURVE",
"451 629 LINE",
"405 655 OFFCURVE",
"340 669 OFFCURVE",
"287 669 CURVE SMOOTH",
"167 669 OFFCURVE",
"75 598 OFFCURVE",
"75 482 CURVE SMOOTH",
"75 288 OFFCURVE",
"384 310 OFFCURVE",
"384 160 CURVE SMOOTH"
);
}
);
width = 524;
},
{
anchors = (
{
name = bottom;
position = "{280, 0}";
},
{
name = top;
position = "{300, 658}";
}
);
layerId = "090CB6A0-BE7C-4D17-A551-206C7456A8A3";
paths = (
{
closed = 1;
nodes = (
"355 132 OFFCURVE",
"327 107 OFFCURVE",
"279 107 CURVE SMOOTH",
"221 107 OFFCURVE",
"153 136 OFFCURVE",
"96 177 CURVE",
"37 44 LINE",
"89 13 OFFCURVE",
"164 -15 OFFCURVE",
"252 -15 CURVE SMOOTH",
"387 -15 OFFCURVE",
"507 57 OFFCURVE",
"507 201 CURVE SMOOTH",
"507 410 OFFCURVE",
"215 394 OFFCURVE",
"215 495 CURVE SMOOTH",
"215 522 OFFCURVE",
"233 554 OFFCURVE",
"285 554 CURVE SMOOTH",
"329 554 OFFCURVE",
"386 535 OFFCURVE",
"434 499 CURVE",
"489 636 LINE",
"435 661 OFFCURVE",
"361 673 OFFCURVE",
"307 673 CURVE SMOOTH",
"166 673 OFFCURVE",
"66 594 OFFCURVE",
"66 463 CURVE SMOOTH",
"66 253 OFFCURVE",
"355 279 OFFCURVE",
"355 170 CURVE SMOOTH"
);
}
);
width = 544;
}
);
leftKerningGroup = S;
unicode = 0053;
},
{
color = 3;
glyphname = Germandbls;
layers = (
{
anchors = (
{
name = bottom;
position = "{358, 0}";
},
{
name = top;
position = "{365, 658}";
}
);
layerId = "3114FB65-9464-41A5-B67E-A8F9F43C0EF1";
paths = (
{
closed = 1;
nodes = (
"143 0 LINE",
"143 379 LINE SMOOTH",
"143 551 OFFCURVE",
"222 634 OFFCURVE",
"394 634 CURVE SMOOTH",
"471 634 OFFCURVE",
"531 615 OFFCURVE",
"577 596 CURVE",
"608 625 LINE",
"547 645 OFFCURVE",
"496 664 OFFCURVE",
"407 664 CURVE SMOOTH",
"206 664 OFFCURVE",
"104 569 OFFCURVE",
"104 370 CURVE SMOOTH",
"104 0 LINE"
);
},
{
closed = 1;
nodes = (
"569 -6 OFFCURVE",
"643 79 OFFCURVE",
"643 183 CURVE SMOOTH",
"643 284 OFFCURVE",
"569 347 OFFCURVE",
"464 372 CURVE",
"438 342 LINE",
"550 317 OFFCURVE",
"607 259 OFFCURVE",
"607 177 CURVE SMOOTH",
"607 88 OFFCURVE",
"545 24 OFFCURVE",
"459 24 CURVE SMOOTH",
"413 24 OFFCURVE",
"368 41 OFFCURVE",
"337 66 CURVE",
"324 36 LINE",
"355 11 OFFCURVE",
"407 -6 OFFCURVE",
"457 -6 CURVE SMOOTH"
);
},
{
closed = 1;
nodes = (
"475 351 LINE",
"608 625 LINE",
"574 626 LINE",
"438 342 LINE"
);
}
);
width = 710;
},
{
anchors = (
{
name = bottom;
position = "{361, 0}";
},
{
name = top;
position = "{383, 658}";
}
);
layerId = "14EEE41F-D714-4243-A717-73445EE7DABA";
paths = (
{
closed = 1;
nodes = (
"191 0 LINE",
"191 389 LINE SMOOTH",
"191 537 OFFCURVE",
"265 594 OFFCURVE",
"381 594 CURVE SMOOTH",
"442 594 OFFCURVE",
"504 578 OFFCURVE",
"551 555 CURVE",
"629 632 LINE",
"566 653 OFFCURVE",
"500 668 OFFCURVE",
"420 668 CURVE SMOOTH",
"227 668 OFFCURVE",
"91 584 OFFCURVE",
"91 360 CURVE SMOOTH",
"91 0 LINE"
);
},
{
closed = 1;
nodes = (
"584 -7 OFFCURVE",
"663 88 OFFCURVE",
"663 200 CURVE SMOOTH",
"663 317 OFFCURVE",
"564 377 OFFCURVE",
"483 399 CURVE",
"418 324 LINE",
"503 303 OFFCURVE",
"570 256 OFFCURVE",
"570 180 CURVE SMOOTH",
"570 108 OFFCURVE",
"522 67 OFFCURVE",
"460 67 CURVE SMOOTH",
"423 67 OFFCURVE",
"384 81 OFFCURVE",
"353 102 CURVE",
"323 23 LINE",
"351 7 OFFCURVE",
"404 -7 OFFCURVE",
"454 -7 CURVE SMOOTH"
);
},
{
closed = 1;
nodes = (
"509 351 LINE",
"629 632 LINE",
"547 634 LINE",
"418 324 LINE"
);
}
);
width = 712;
},
{
anchors = (
{
name = bottom;
position = "{362, 0}";
},
{
name = top;
position = "{405, 658}";
}
);
layerId = "090CB6A0-BE7C-4D17-A551-206C7456A8A3";
paths = (
{
closed = 1;
nodes = (
"249 0 LINE",
"249 395 LINE SMOOTH",
"249 513 OFFCURVE",
"312 552 OFFCURVE",
"385 552 CURVE SMOOTH",
"439 552 OFFCURVE",
"499 531 OFFCURVE",
"541 501 CURVE",
"670 631 LINE",
"597 657 OFFCURVE",
"514 673 OFFCURVE",
"431 673 CURVE SMOOTH",
"238 673 OFFCURVE",
"76 592 OFFCURVE",
"76 346 CURVE SMOOTH",
"76 0 LINE"
);
},
{
closed = 1;
nodes = (
"616 -8 OFFCURVE",
"701 85 OFFCURVE",
"701 208 CURVE SMOOTH",
"701 355 OFFCURVE",
"563 409 OFFCURVE",
"503 429 CURVE",
"411 312 LINE",
"492 288 OFFCURVE",
"544 251 OFFCURVE",
"544 193 CURVE SMOOTH",
"544 140 OFFCURVE",
"511 111 OFFCURVE",
"465 111 CURVE SMOOTH",
"438 111 OFFCURVE",
"406 121 OFFCURVE",
"382 136 CURVE",
"336 22 LINE",
"363 9 OFFCURVE",
"421 -8 OFFCURVE",
"475 -8 CURVE SMOOTH"
);
},
{
closed = 1;
nodes = (
"545 339 LINE",
"670 631 LINE",
"533 623 LINE",
"411 312 LINE"
);
}
);
width = 741;
}
);
leftKerningGroup = Germandbls;
unicode = 1E9E;
},
{
color = 3;
glyphname = T;
layers = (
{
anchors = (
{
name = bottom;
position = "{318, 0}";
},
{
name = center;
position = "{318, 338}";
},
{
name = top;
position = "{318, 658}";
}
);
layerId = "3114FB65-9464-41A5-B67E-A8F9F43C0EF1";
paths = (
{
closed = 1;
nodes = (
"337 0 LINE",
"337 658 LINE",
"299 658 LINE",
"299 0 LINE"
);
},
{
closed = 1;
nodes = (
"610 628 LINE",
"610 658 LINE",
"26 658 LINE",
"26 628 LINE"
);
}
);
width = 636;
},
{
anchors = (
{
name = bottom;
position = "{312, 0}";
},
{
name = center;
position = "{312, 332}";
},
{
name = top;
position = "{312, 658}";
}
);
layerId = "14EEE41F-D714-4243-A717-73445EE7DABA";
paths = (
{
closed = 1;
nodes = (
"361 0 LINE",
"361 658 LINE",
"262 658 LINE",
"262 0 LINE"
);
},
{
closed = 1;
nodes = (
"596 583 LINE",
"596 658 LINE",
"27 658 LINE",
"27 583 LINE"
);
}
);
width = 623;
},
{
anchors = (
{
name = bottom;
position = "{321, 0}";
},
{
name = center;
position = "{321, 313}";
},
{
name = top;
position = "{321, 658}";
}
);
layerId = "090CB6A0-BE7C-4D17-A551-206C7456A8A3";
paths = (
{
closed = 1;
nodes = (
"403 0 LINE",
"403 658 LINE",
"237 658 LINE",
"237 0 LINE"
);
},
{
closed = 1;
nodes = (
"611 531 LINE",
"611 658 LINE",
"30 658 LINE",
"30 531 LINE"
);
}
);
width = 641;
}
);
leftKerningGroup = T;
rightKerningGroup = T;
unicode = 0054;
},
{
color = 3;
glyphname = U;
layers = (
{
anchors = (
{
name = bottom;
position = "{364, 0}";
},
{
name = ogonek;
position = "{422, 0}";
},
{
name = top;
position = "{367, 658}";
},
{
name = topright;
position = "{630, 635}";
}
);
layerId = "3114FB65-9464-41A5-B67E-A8F9F43C0EF1";
paths = (
{
closed = 1;
nodes = (
"524 -7 OFFCURVE",
"630 101 OFFCURVE",
"630 268 CURVE SMOOTH",
"630 658 LINE",
"596 658 LINE",
"596 261 LINE SMOOTH",
"596 118 OFFCURVE",
"508 24 OFFCURVE",
"370 24 CURVE SMOOTH",
"229 24 OFFCURVE",
"138 120 OFFCURVE",
"138 269 CURVE SMOOTH",
"138 658 LINE",
"100 658 LINE",
"100 263 LINE SMOOTH",
"100 99 OFFCURVE",
"206 -7 OFFCURVE",
"364 -7 CURVE SMOOTH"
);
}
);
width = 728;
},
{
anchors = (
{
name = bottom;
position = "{367, 0}";
},
{
name = ogonek;
position = "{442, 0}";
},
{
name = top;
position = "{377, 658}";
},
{
name = topright;
position = "{645, 606}";
}
);
layerId = "14EEE41F-D714-4243-A717-73445EE7DABA";
paths = (
{
closed = 1;
nodes = (
"532 -11 OFFCURVE",
"645 102 OFFCURVE",
"645 276 CURVE SMOOTH",
"645 658 LINE",
"561 658 LINE",
"561 255 LINE SMOOTH",
"561 142 OFFCURVE",
"494 66 OFFCURVE",
"378 66 CURVE SMOOTH",
"259 66 OFFCURVE",
"186 145 OFFCURVE",
"186 277 CURVE SMOOTH",
"186 658 LINE",
"90 658 LINE",
"90 257 LINE SMOOTH",
"90 93 OFFCURVE",
"198 -11 OFFCURVE",
"361 -11 CURVE SMOOTH"
);
}
);
width = 731;
},
{
anchors = (
{
name = bottom;
position = "{380, 0}";
},
{
name = ogonek;
position = "{479, 0}";
},
{
name = top;
position = "{393, 658}";
},
{
name = topright;
position = "{669, 587}";
}
);
layerId = "090CB6A0-BE7C-4D17-A551-206C7456A8A3";
paths = (
{
closed = 1;
nodes = (
"551 -15 OFFCURVE",
"673 103 OFFCURVE",
"673 285 CURVE SMOOTH",
"673 658 LINE",
"531 658 LINE",
"531 251 LINE SMOOTH",
"531 164 OFFCURVE",
"477 109 OFFCURVE",
"394 109 CURVE SMOOTH",
"309 109 OFFCURVE",
"251 166 OFFCURVE",
"251 272 CURVE SMOOTH",
"251 658 LINE",
"80 658 LINE",
"80 254 LINE SMOOTH",
"80 88 OFFCURVE",
"194 -15 OFFCURVE",
"368 -15 CURVE SMOOTH"
);
}
);
width = 748;
}
);
leftKerningGroup = U;
rightKerningGroup = U;
unicode = 0055;
},
{
color = 3;
glyphname = Uogonek;
layers = (
{
components = (
{
name = U;
}
);
layerId = "3114FB65-9464-41A5-B67E-A8F9F43C0EF1";
paths = (
{
closed = 1;
nodes = (
"429 -289 OFFCURVE",
"454 -279 OFFCURVE",
"479 -259 CURVE",
"466 -239 LINE",
"448 -254 OFFCURVE",
"429 -262 OFFCURVE",
"403 -262 CURVE SMOOTH",
"342 -262 OFFCURVE",
"308 -223 OFFCURVE",
"308 -168 CURVE SMOOTH",
"308 -108 OFFCURVE",
"342 -44 OFFCURVE",
"422 5 CURVE",
"407 17 LINE",
"310 -39 OFFCURVE",
"272 -111 OFFCURVE",
"272 -174 CURVE SMOOTH",
"272 -244 OFFCURVE",
"318 -289 OFFCURVE",
"393 -289 CURVE SMOOTH"
);
}
);
width = 728;
},
{
components = (
{
name = U;
}
);
layerId = "14EEE41F-D714-4243-A717-73445EE7DABA";
paths = (
{
closed = 1;
nodes = (
"451 -289 OFFCURVE",
"481 -279 OFFCURVE",
"510 -259 CURVE",
"487 -212 LINE",
"473 -221 OFFCURVE",
"458 -225 OFFCURVE",
"441 -225 CURVE SMOOTH",
"383 -225 OFFCURVE",
"356 -182 OFFCURVE",
"356 -131 CURVE SMOOTH",
"356 -78 OFFCURVE",
"383 -25 OFFCURVE",
"443 15 CURVE",
"411 40 LINE",
"307 -15 OFFCURVE",
"264 -87 OFFCURVE",
"264 -151 CURVE SMOOTH",
"264 -236 OFFCURVE",
"317 -289 OFFCURVE",
"410 -289 CURVE SMOOTH"
);
}
);
width = 731;
},
{
components = (
{
alignment = -1;
name = U;
}
);
layerId = "090CB6A0-BE7C-4D17-A551-206C7456A8A3";
paths = (
{
closed = 1;
nodes = (
"469 -289 OFFCURVE",
"508 -275 OFFCURVE",
"545 -250 CURVE",
"516 -187 LINE",
"502 -193 OFFCURVE",
"487 -195 OFFCURVE",
"475 -195 CURVE SMOOTH",
"422 -195 OFFCURVE",
"398 -158 OFFCURVE",
"398 -116 CURVE SMOOTH",
"398 -67 OFFCURVE",
"423 -14 OFFCURVE",
"476 19 CURVE",
"430 54 LINE",
"303 -2 OFFCURVE",
"251 -73 OFFCURVE",
"251 -145 CURVE SMOOTH",
"251 -232 OFFCURVE",
"310 -289 OFFCURVE",
"417 -289 CURVE SMOOTH"
);
}
);
width = 748;
}
);
leftKerningGroup = U;
rightKerningGroup = U;
unicode = 0172;
},
{
color = 3;
glyphname = V;
layers = (
{
anchors = (
{
name = bottom;
position = "{346, 0}";
},
{
name = top;
position = "{346, 658}";
}
);
layerId = "3114FB65-9464-41A5-B67E-A8F9F43C0EF1";
paths = (
{
closed = 1;
nodes = (
"363 0 LINE",
"643 658 LINE",
"605 658 LINE",
"338 11 LINE",
"362 11 LINE",
"92 658 LINE",
"50 658 LINE",
"328 0 LINE"
);
}
);
width = 693;
},
{
anchors = (
{
name = bottom;
position = "{340, 0}";
},
{
name = top;
position = "{340, 658}";
}
);
layerId = "14EEE41F-D714-4243-A717-73445EE7DABA";
paths = (
{
closed = 1;
nodes = (
"383 0 LINE",
"643 658 LINE",
"548 658 LINE",
"321 22 LINE",
"380 22 LINE",
"146 658 LINE",
"38 658 LINE",
"289 0 LINE"
);
}
);
width = 680;
},
{
anchors = (
{
name = bottom;
position = "{347, 0}";
},
{
name = top;
position = "{347, 658}";
}
);
layerId = "090CB6A0-BE7C-4D17-A551-206C7456A8A3";
paths = (
{
closed = 1;
nodes = (
"430 0 LINE",
"671 658 LINE",
"511 658 LINE",
"331 49 LINE",
"401 49 LINE",
"205 658 LINE",
"21 658 LINE",
"257 0 LINE"
);
}
);
width = 692;
}
);
leftKerningGroup = V;
rightKerningGroup = V;
unicode = 0056;
},
{
color = 3;
glyphname = W;
layers = (
{
anchors = (
{
name = bottom;
position = "{502, 0}";
},
{
name = top;
position = "{502, 658}";
}
);
layerId = "3114FB65-9464-41A5-B67E-A8F9F43C0EF1";
paths = (
{
closed = 1;
nodes = (
"745 0 LINE",
"949 658 LINE",
"913 658 LINE",
"718 10 LINE",
"741 10 LINE",
"524 658 LINE",
"487 658 LINE",
"708 0 LINE"
);
},
{
closed = 1;
nodes = (
"296 0 LINE",
"514 658 LINE",
"483 658 LINE",
"269 11 LINE",
"290 11 LINE",
"94 658 LINE",
"55 658 LINE",
"259 0 LINE"
);
}
);
width = 1004;
},
{
anchors = (
{
name = bottom;
position = "{490, 0}";
},
{
name = top;
position = "{490, 658}";
}
);
layerId = "14EEE41F-D714-4243-A717-73445EE7DABA";
paths = (
{
closed = 1;
nodes = (
"748 0 LINE",
"939 658 LINE",
"848 658 LINE",
"683 22 LINE",
"740 22 LINE",
"546 658 LINE",
"452 658 LINE",
"654 0 LINE"
);
},
{
closed = 1;
nodes = (
"326 0 LINE",
"522 658 LINE",
"446 658 LINE",
"259 22 LINE",
"314 22 LINE",
"143 658 LINE",
"43 658 LINE",
"232 0 LINE"
);
}
);
width = 980;
},
{
anchors = (
{
name = bottom;
position = "{495, 0}";
},
{
name = top;
position = "{501, 658}";
}
);
layerId = "090CB6A0-BE7C-4D17-A551-206C7456A8A3";
paths = (
{
closed = 1;
nodes = (
"782 0 LINE",
"961 658 LINE",
"811 658 LINE",
"681 41 LINE",
"748 41 LINE",
"584 658 LINE",
"438 658 LINE",
"611 0 LINE"
);
},
{
closed = 1;
nodes = (
"374 0 LINE",
"548 658 LINE",
"430 658 LINE",
"272 41 LINE",
"338 41 LINE",
"202 658 LINE",
"30 658 LINE",
"203 0 LINE"
);
}
);
width = 990;
}
);
leftKerningGroup = V;
rightKerningGroup = V;
unicode = 0057;
},
{
color = 3;
glyphname = X;
layers = (
{
anchors = (
{
name = bottom;
position = "{318, 0}";
},
{
name = top;
position = "{318, 658}";
}
);
layerId = "3114FB65-9464-41A5-B67E-A8F9F43C0EF1";
paths = (
{
closed = 1;
nodes = (
"83 0 LINE",
"308 308 LINE",
"534 0 LINE",
"581 0 LINE",
"332 337 LINE",
"570 658 LINE",
"528 658 LINE",
"313 362 LINE",
"97 658 LINE",
"51 658 LINE",
"289 333 LINE",
"40 0 LINE"
);
}
);
width = 625;
},
{
anchors = (
{
name = bottom;
position = "{331, 0}";
},
{
name = top;
position = "{331, 658}";
}
);
layerId = "14EEE41F-D714-4243-A717-73445EE7DABA";
paths = (
{
closed = 1;
nodes = (
"139 0 LINE",
"312 267 LINE",
"495 0 LINE",
"612 0 LINE",
"373 339 LINE",
"599 658 LINE",
"492 658 LINE",
"327 401 LINE",
"158 658 LINE",
"41 658 LINE",
"267 328 LINE",
"30 0 LINE"
);
}
);
width = 634;
},
{
anchors = (
{
name = bottom;
position = "{356, 0}";
},
{
name = top;
position = "{356, 658}";
}
);
layerId = "090CB6A0-BE7C-4D17-A551-206C7456A8A3";
paths = (
{
closed = 1;
nodes = (
"200 0 LINE",
"327 232 LINE",
"464 0 LINE",
"658 0 LINE",
"428 337 LINE",
"652 658 LINE",
"469 658 LINE",
"343 430 LINE",
"215 658 LINE",
"22 658 LINE",
"242 328 LINE",
"13 0 LINE"
);
}
);
width = 665;
}
);
leftKerningGroup = X;
rightKerningGroup = X;
unicode = 0058;
},
{
color = 3;
glyphname = Y;
layers = (
{
anchors = (
{
name = bottom;
position = "{315, 0}";
},
{
name = top;
position = "{315, 658}";
},
{
name = topleft;
position = "{22, 658}";
}
);
layerId = "3114FB65-9464-41A5-B67E-A8F9F43C0EF1";
paths = (
{
closed = 1;
nodes = (
"329 286 LINE",
"81 658 LINE",
"35 658 LINE",
"304 263 LINE"
);
},
{
closed = 1;
nodes = (
"333 0 LINE",
"333 288 LINE",
"296 288 LINE",
"296 0 LINE"
);
},
{
closed = 1;
nodes = (
"593 658 LINE",
"553 658 LINE",
"304 286 LINE",
"326 264 LINE"
);
}
);
width = 628;
},
{
anchors = (
{
name = bottom;
position = "{318, 0}";
},
{
name = top;
position = "{318, 658}";
},
{
name = topleft;
position = "{25, 658}";
}
);
layerId = "14EEE41F-D714-4243-A717-73445EE7DABA";
paths = (
{
closed = 1;
nodes = (
"351 296 LINE",
"139 658 LINE",
"22 658 LINE",
"287 239 LINE"
);
},
{
closed = 1;
nodes = (
"365 0 LINE",
"365 296 LINE",
"268 296 LINE",
"268 0 LINE"
);
},
{
closed = 1;
nodes = (
"612 658 LINE",
"510 658 LINE",
"296 296 LINE",
"348 243 LINE"
);
}
);
width = 634;
},
{
anchors = (
{
name = bottom;
position = "{331, 0}";
},
{
name = top;
position = "{335, 658}";
},
{
name = topleft;
position = "{24, 658}";
}
);
layerId = "090CB6A0-BE7C-4D17-A551-206C7456A8A3";
paths = (
{
closed = 1;
nodes = (
"372 302 LINE",
"203 658 LINE",
"7 658 LINE",
"264 224 LINE"
);
},
{
closed = 1;
nodes = (
"414 0 LINE",
"414 318 LINE",
"245 318 LINE",
"245 0 LINE"
);
},
{
closed = 1;
nodes = (
"653 658 LINE",
"485 658 LINE",
"306 302 LINE",
"395 222 LINE"
);
}
);
width = 660;
}
);
leftKerningGroup = Y;
rightKerningGroup = Y;
unicode = 0059;
},
{
color = 3;
glyphname = Z;
layers = (
{
anchors = (
{
name = bottom;
position = "{323, 0}";
},
{
name = center;
position = "{308, 329}";
},
{
name = top;
position = "{323, 658}";
}
);
layerId = "3114FB65-9464-41A5-B67E-A8F9F43C0EF1";
paths = (
{
closed = 1;
nodes = (
"572 0 LINE",
"572 30 LINE",
"73 29 LINE",
"87 6 LINE",
"561 635 LINE",
"559 658 LINE",
"75 658 LINE",
"75 628 LINE",
"545 629 LINE",
"531 652 LINE",
"57 25 LINE",
"60 0 LINE"
);
}
);
width = 615;
},
{
anchors = (
{
name = bottom;
position = "{324, 0}";
},
{
name = center;
position = "{307, 329}";
},
{
name = top;
position = "{324, 658}";
}
);
layerId = "14EEE41F-D714-4243-A717-73445EE7DABA";
paths = (
{
closed = 1;
nodes = (
"573 0 LINE",
"573 75 LINE",
"84 71 LINE",
"122 6 LINE",
"562 596 LINE",
"562 658 LINE",
"70 658 LINE",
"70 583 LINE",
"535 587 LINE",
"494 652 LINE",
"53 64 LINE",
"55 0 LINE"
);
}
);
width = 613;
},
{
anchors = (
{
name = bottom;
position = "{328, 0}";
},
{
name = center;
position = "{316, 329}";
},
{
name = top;
position = "{330, 658}";
}
);
layerId = "090CB6A0-BE7C-4D17-A551-206C7456A8A3";
paths = (
{
closed = 1;
nodes = (
"587 0 LINE",
"587 121 LINE",
"104 115 LINE",
"167 14 LINE",
"577 549 LINE",
"579 658 LINE",
"67 658 LINE",
"67 537 LINE",
"536 543 LINE",
"465 644 LINE",
"53 109 LINE",
"54 0 LINE"
);
}
);
width = 631;
}
);
leftKerningGroup = Z;
rightKerningGroup = Z;
unicode = 005A;
},
{
color = 3;
glyphname = a;
layers = (
{
anchors = (
{
name = bottom;
position = "{230, 0}";
},
{
name = ogonek;
position = "{440, 31}";
},
{
name = top;
position = "{214, 409}";
}
);
layerId = "3114FB65-9464-41A5-B67E-A8F9F43C0EF1";
paths = (
{
closed = 1;
nodes = (
"401 -4 OFFCURVE",
"427 10 OFFCURVE",
"444 33 CURVE",
"429 49 LINE",
"416 30 OFFCURVE",
"396 22 OFFCURVE",
"379 22 CURVE SMOOTH",
"351 22 OFFCURVE",
"337 43 OFFCURVE",
"337 84 CURVE SMOOTH",
"340 296 LINE SMOOTH",
"341 370 OFFCURVE",
"305 414 OFFCURVE",
"236 414 CURVE SMOOTH",
"162 414 OFFCURVE",
"77 364 OFFCURVE",
"66 289 CURVE",
"100 286 LINE",
"108 353 OFFCURVE",
"179 389 OFFCURVE",
"231 389 CURVE SMOOTH",
"278 389 OFFCURVE",
"307 359 OFFCURVE",
"306 292 CURVE SMOOTH",
"303 90 LINE SMOOTH",
"302 28 OFFCURVE",
"328 -4 OFFCURVE",
"372 -4 CURVE SMOOTH"
);
},
{
closed = 1;
nodes = (
"210 -4 OFFCURVE",
"269 36 OFFCURVE",
"324 88 CURVE",
"315 105 LINE",
"255 54 OFFCURVE",
"207 23 OFFCURVE",
"161 23 CURVE SMOOTH",
"123 23 OFFCURVE",
"92 44 OFFCURVE",
"92 85 CURVE SMOOTH",
"92 113 OFFCURVE",
"106 137 OFFCURVE",
"164 156 CURVE SMOOTH",
"327 209 LINE",
"322 231 LINE",
"154 179 LINE SMOOTH",
"82 157 OFFCURVE",
"58 124 OFFCURVE",
"58 80 CURVE SMOOTH",
"58 29 OFFCURVE",
"97 -4 OFFCURVE",
"151 -4 CURVE SMOOTH"
);
}
);
width = 448;
},
{
anchors = (
{
name = bottom;
position = "{234, 0}";
},
{
name = ogonek;
position = "{433, 20}";
},
{
name = top;
position = "{221, 417}";
}
);
layerId = "14EEE41F-D714-4243-A717-73445EE7DABA";
paths = (
{
closed = 1;
nodes = (
"405 -7 OFFCURVE",
"436 8 OFFCURVE",
"455 30 CURVE",
"428 71 LINE",
"418 60 OFFCURVE",
"405 54 OFFCURVE",
"392 54 CURVE SMOOTH",
"376 54 OFFCURVE",
"367 67 OFFCURVE",
"367 90 CURVE SMOOTH",
"369 300 LINE SMOOTH",
"370 377 OFFCURVE",
"332 426 OFFCURVE",
"247 426 CURVE SMOOTH",
"154 426 OFFCURVE",
"68 371 OFFCURVE",
"53 293 CURVE",
"138 283 LINE",
"143 346 OFFCURVE",
"195 370 OFFCURVE",
"232 370 CURVE SMOOTH",
"268 370 OFFCURVE",
"288 346 OFFCURVE",
"287 288 CURVE SMOOTH",
"283 107 LINE SMOOTH",
"282 33 OFFCURVE",
"316 -7 OFFCURVE",
"371 -7 CURVE SMOOTH"
);
},
{
closed = 1;
nodes = (
"216 -7 OFFCURVE",
"277 38 OFFCURVE",
"335 94 CURVE",
"327 124 LINE",
"267 86 OFFCURVE",
"219 58 OFFCURVE",
"182 58 CURVE SMOOTH",
"153 58 OFFCURVE",
"130 74 OFFCURVE",
"130 103 CURVE SMOOTH",
"130 124 OFFCURVE",
"141 145 OFFCURVE",
"188 159 CURVE SMOOTH",
"337 204 LINE",
"332 247 LINE",
"167 205 LINE SMOOTH",
"70 181 OFFCURVE",
"44 139 OFFCURVE",
"44 89 CURVE SMOOTH",
"44 32 OFFCURVE",
"86 -7 OFFCURVE",
"150 -7 CURVE SMOOTH"
);
}
);
width = 457;
},
{
anchors = (
{
name = bottom;
position = "{252, 0}";
},
{
name = ogonek;
position = "{411, 2}";
},
{
name = top;
position = "{241, 425}";
}
);
layerId = "090CB6A0-BE7C-4D17-A551-206C7456A8A3";
paths = (
{
closed = 1;
nodes = (
"430 -12 OFFCURVE",
"470 7 OFFCURVE",
"495 31 CURVE",
"466 91 LINE",
"455 85 OFFCURVE",
"445 82 OFFCURVE",
"435 82 CURVE SMOOTH",
"423 82 OFFCURVE",
"416 91 OFFCURVE",
"416 107 CURVE SMOOTH",
"417 304 LINE SMOOTH",
"418 387 OFFCURVE",
"372 438 OFFCURVE",
"266 438 CURVE SMOOTH",
"163 438 OFFCURVE",
"59 383 OFFCURVE",
"41 292 CURVE",
"175 278 LINE",
"181 326 OFFCURVE",
"211 349 OFFCURVE",
"241 349 CURVE SMOOTH",
"272 349 OFFCURVE",
"280 319 OFFCURVE",
"279 282 CURVE SMOOTH",
"278 126 LINE SMOOTH",
"277 39 OFFCURVE",
"310 -12 OFFCURVE",
"382 -12 CURVE SMOOTH"
);
},
{
closed = 1;
nodes = (
"218 -12 OFFCURVE",
"277 24 OFFCURVE",
"334 84 CURVE",
"323 130 LINE",
"278 106 OFFCURVE",
"240 85 OFFCURVE",
"212 85 CURVE SMOOTH",
"188 85 OFFCURVE",
"174 97 OFFCURVE",
"174 117 CURVE SMOOTH",
"174 136 OFFCURVE",
"188 152 OFFCURVE",
"217 161 CURVE SMOOTH",
"343 203 LINE",
"339 264 LINE",
"174 223 LINE SMOOTH",
"78 200 OFFCURVE",
"31 165 OFFCURVE",
"31 97 CURVE SMOOTH",
"31 31 OFFCURVE",
"78 -12 OFFCURVE",
"154 -12 CURVE SMOOTH"
);
}
);
width = 493;
}
);
leftKerningGroup = a;
rightKerningGroup = a;
unicode = 0061;
},
{
color = 3;
glyphname = aogonek;
layers = (
{
anchors = (
{
name = top;
position = "{224, 411}";
}
);
layerId = "3114FB65-9464-41A5-B67E-A8F9F43C0EF1";
paths = (
{
closed = 1;
nodes = (
"430 31 LINE",
"418 49 LINE",
"399 38 OFFCURVE",
"382 25 OFFCURVE",
"365 25 CURVE SMOOTH",
"340 25 OFFCURVE",
"327 44 OFFCURVE",
"327 79 CURVE SMOOTH",
"330 296 LINE SMOOTH",
"331 369 OFFCURVE",
"297 414 OFFCURVE",
"230 414 CURVE SMOOTH",
"155 414 OFFCURVE",
"72 364 OFFCURVE",
"63 295 CURVE",
"97 292 LINE",
"108 355 OFFCURVE",
"170 386 OFFCURVE",
"221 386 CURVE SMOOTH",
"264 386 OFFCURVE",
"298 359 OFFCURVE",
"297 292 CURVE SMOOTH",
"295 84 LINE SMOOTH",
"294 27 OFFCURVE",
"321 -2 OFFCURVE",
"360 -2 CURVE"
);
},
{
closed = 1;
nodes = (
"389 -289 OFFCURVE",
"419 -278 OFFCURVE",
"444 -258 CURVE",
"432 -240 LINE",
"412 -255 OFFCURVE",
"389 -263 OFFCURVE",
"363 -263 CURVE SMOOTH",
"306 -263 OFFCURVE",
"275 -226 OFFCURVE",
"275 -173 CURVE SMOOTH",
"275 -103 OFFCURVE",
"325 -28 OFFCURVE",
"430 31 CURVE",
"417 45 LINE",
"296 -18 OFFCURVE",
"242 -100 OFFCURVE",
"242 -178 CURVE SMOOTH",
"242 -245 OFFCURVE",
"285 -289 OFFCURVE",
"354 -289 CURVE SMOOTH"
);
},
{
closed = 1;
nodes = (
"204 -4 OFFCURVE",
"258 33 OFFCURVE",
"315 87 CURVE",
"307 103 LINE",
"245 52 OFFCURVE",
"200 25 OFFCURVE",
"157 25 CURVE SMOOTH",
"120 25 OFFCURVE",
"91 46 OFFCURVE",
"91 86 CURVE SMOOTH",
"91 115 OFFCURVE",
"106 138 OFFCURVE",
"162 156 CURVE SMOOTH",
"318 207 LINE",
"312 229 LINE",
"152 181 LINE SMOOTH",
"80 159 OFFCURVE",
"54 125 OFFCURVE",
"54 82 CURVE SMOOTH",
"54 29 OFFCURVE",
"94 -4 OFFCURVE",
"148 -4 CURVE SMOOTH"
);
}
);
width = 439;
},
{
anchors = (
{
name = top;
position = "{222, 417}";
}
);
layerId = "14EEE41F-D714-4243-A717-73445EE7DABA";
paths = (
{
closed = 1;
nodes = (
"448 31 LINE",
"422 70 LINE",
"408 64 OFFCURVE",
"396 57 OFFCURVE",
"380 57 CURVE SMOOTH",
"364 57 OFFCURVE",
"356 67 OFFCURVE",
"356 87 CURVE SMOOTH",
"358 300 LINE SMOOTH",
"359 379 OFFCURVE",
"322 426 OFFCURVE",
"247 426 CURVE SMOOTH",
"148 426 OFFCURVE",
"61 365 OFFCURVE",
"51 291 CURVE",
"136 282 LINE",
"144 344 OFFCURVE",
"188 366 OFFCURVE",
"226 366 CURVE SMOOTH",
"259 366 OFFCURVE",
"282 348 OFFCURVE",
"281 288 CURVE SMOOTH",
"278 103 LINE SMOOTH",
"276 35 OFFCURVE",
"310 -1 OFFCURVE",
"365 -1 CURVE"
);
},
{
closed = 1;
nodes = (
"397 -289 OFFCURVE",
"429 -277 OFFCURVE",
"458 -255 CURVE",
"436 -211 LINE",
"419 -221 OFFCURVE",
"400 -228 OFFCURVE",
"379 -228 CURVE SMOOTH",
"332 -228 OFFCURVE",
"307 -197 OFFCURVE",
"307 -152 CURVE SMOOTH",
"307 -89 OFFCURVE",
"352 -22 OFFCURVE",
"448 31 CURVE",
"422 51 LINE",
"282 -11 OFFCURVE",
"222 -90 OFFCURVE",
"222 -169 CURVE SMOOTH",
"222 -240 OFFCURVE",
"272 -289 OFFCURVE",
"356 -289 CURVE SMOOTH"
);
},
{
closed = 1;
nodes = (
"211 -6 OFFCURVE",
"269 36 OFFCURVE",
"328 93 CURVE",
"322 124 LINE",
"260 86 OFFCURVE",
"214 59 OFFCURVE",
"179 59 CURVE SMOOTH",
"150 59 OFFCURVE",
"130 76 OFFCURVE",
"130 103 CURVE SMOOTH",
"130 125 OFFCURVE",
"142 146 OFFCURVE",
"186 159 CURVE SMOOTH",
"330 203 LINE",
"325 244 LINE",
"166 205 LINE SMOOTH",
"69 181 OFFCURVE",
"41 139 OFFCURVE",
"41 90 CURVE SMOOTH",
"41 33 OFFCURVE",
"84 -6 OFFCURVE",
"150 -6 CURVE SMOOTH"
);
}
);
width = 449;
},
{
anchors = (
{
name = top;
position = "{250, 425}";
}
);
layerId = "090CB6A0-BE7C-4D17-A551-206C7456A8A3";
paths = (
{
closed = 1;
nodes = (
"497 32 LINE",
"468 91 LINE",
"454 86 OFFCURVE",
"444 82 OFFCURVE",
"432 82 CURVE SMOOTH",
"419 82 OFFCURVE",
"413 92 OFFCURVE",
"413 108 CURVE SMOOTH",
"414 304 LINE SMOOTH",
"415 389 OFFCURVE",
"368 438 OFFCURVE",
"271 438 CURVE SMOOTH",
"162 438 OFFCURVE",
"54 377 OFFCURVE",
"41 286 CURVE",
"175 272 LINE",
"183 325 OFFCURVE",
"211 349 OFFCURVE",
"241 349 CURVE SMOOTH",
"273 349 OFFCURVE",
"280 322 OFFCURVE",
"279 282 CURVE SMOOTH",
"278 126 LINE SMOOTH",
"277 43 OFFCURVE",
"308 -6 OFFCURVE",
"385 -6 CURVE"
);
},
{
closed = 1;
nodes = (
"431 -289 OFFCURVE",
"469 -274 OFFCURVE",
"506 -247 CURVE",
"476 -185 LINE",
"463 -192 OFFCURVE",
"447 -197 OFFCURVE",
"430 -197 CURVE SMOOTH",
"386 -197 OFFCURVE",
"365 -169 OFFCURVE",
"365 -127 CURVE SMOOTH",
"365 -73 OFFCURVE",
"406 -12 OFFCURVE",
"497 32 CURVE",
"448 51 LINE",
"293 -7 OFFCURVE",
"232 -82 OFFCURVE",
"232 -161 CURVE SMOOTH",
"232 -236 OFFCURVE",
"282 -289 OFFCURVE",
"380 -289 CURVE SMOOTH"
);
},
{
closed = 1;
nodes = (
"218 -12 OFFCURVE",
"277 24 OFFCURVE",
"334 84 CURVE",
"323 130 LINE",
"278 106 OFFCURVE",
"240 85 OFFCURVE",
"212 85 CURVE SMOOTH",
"188 85 OFFCURVE",
"174 97 OFFCURVE",
"174 117 CURVE SMOOTH",
"174 136 OFFCURVE",
"188 152 OFFCURVE",
"217 161 CURVE SMOOTH",
"343 203 LINE",
"339 262 LINE",
"174 221 LINE SMOOTH",
"78 198 OFFCURVE",
"31 165 OFFCURVE",
"31 96 CURVE SMOOTH",
"31 31 OFFCURVE",
"78 -12 OFFCURVE",
"156 -12 CURVE SMOOTH"
);
}
);
width = 492;
}
);
leftKerningGroup = a;
rightKerningGroup = a;
unicode = 0105;
},
{
color = 3;
glyphname = ae;
layers = (
{
anchors = (
{
name = bottom;
position = "{320, 0}";
},
{
name = top;
position = "{325, 410}";
}
);
layerId = "3114FB65-9464-41A5-B67E-A8F9F43C0EF1";
paths = (
{
closed = 1;
nodes = (
"493 -5 OFFCURVE",
"543 12 OFFCURVE",
"593 58 CURVE",
"578 77 LINE",
"537 38 OFFCURVE",
"491 23 OFFCURVE",
"448 23 CURVE SMOOTH",
"393 23 OFFCURVE",
"326 47 OFFCURVE",
"327 149 CURVE SMOOTH",
"328 303 LINE SMOOTH",
"328 374 OFFCURVE",
"294 414 OFFCURVE",
"230 414 CURVE SMOOTH",
"153 414 OFFCURVE",
"66 359 OFFCURVE",
"56 281 CURVE",
"90 278 LINE",
"101 352 OFFCURVE",
"172 390 OFFCURVE",
"226 390 CURVE SMOOTH",
"270 390 OFFCURVE",
"298 362 OFFCURVE",
"298 300 CURVE SMOOTH",
"297 148 LINE SMOOTH",
"296 29 OFFCURVE",
"377 -5 OFFCURVE",
"443 -5 CURVE SMOOTH"
);
},
{
closed = 1;
nodes = (
"211 -5 OFFCURVE",
"267 25 OFFCURVE",
"320 88 CURVE",
"306 108 LINE",
"254 46 OFFCURVE",
"207 22 OFFCURVE",
"163 22 CURVE SMOOTH",
"113 22 OFFCURVE",
"82 46 OFFCURVE",
"82 88 CURVE SMOOTH",
"82 126 OFFCURVE",
"105 150 OFFCURVE",
"179 165 CURVE SMOOTH",
"581 247 LINE",
"575 272 LINE",
"169 187 LINE SMOOTH",
"69 166 OFFCURVE",
"48 125 OFFCURVE",
"48 83 CURVE SMOOTH",
"48 30 OFFCURVE",
"88 -5 OFFCURVE",
"153 -5 CURVE SMOOTH"
);
},
{
closed = 1;
nodes = (
"581 247 LINE",
"583 260 OFFCURVE",
"583 275 OFFCURVE",
"583 286 CURVE SMOOTH",
"583 351 OFFCURVE",
"537 414 OFFCURVE",
"465 414 CURVE SMOOTH",
"397 414 OFFCURVE",
"341 375 OFFCURVE",
"307 307 CURVE",
"324 289 LINE",
"350 350 OFFCURVE",
"401 388 OFFCURVE",
"460 388 CURVE SMOOTH",
"523 388 OFFCURVE",
"551 332 OFFCURVE",
"551 285 CURVE SMOOTH",
"551 247 LINE"
);
}
);
width = 630;
},
{
anchors = (
{
name = bottom;
position = "{322, 0}";
},
{
name = top;
position = "{338, 417}";
}
);
layerId = "14EEE41F-D714-4243-A717-73445EE7DABA";
paths = (
{
closed = 1;
nodes = (
"499 -9 OFFCURVE",
"559 7 OFFCURVE",
"614 59 CURVE",
"581 106 LINE",
"545 73 OFFCURVE",
"503 58 OFFCURVE",
"464 58 CURVE SMOOTH",
"403 58 OFFCURVE",
"357 88 OFFCURVE",
"358 159 CURVE SMOOTH",
"358 302 LINE SMOOTH",
"358 382 OFFCURVE",
"319 427 OFFCURVE",
"240 427 CURVE SMOOTH",
"142 427 OFFCURVE",
"53 365 OFFCURVE",
"43 289 CURVE",
"126 280 LINE",
"137 349 OFFCURVE",
"187 369 OFFCURVE",
"227 369 CURVE SMOOTH",
"266 369 OFFCURVE",
"285 349 OFFCURVE",
"284 290 CURVE SMOOTH",
"283 155 LINE SMOOTH",
"281 44 OFFCURVE",
"356 -9 OFFCURVE",
"447 -9 CURVE SMOOTH"
);
},
{
closed = 1;
nodes = (
"219 -9 OFFCURVE",
"274 28 OFFCURVE",
"333 91 CURVE",
"324 127 LINE",
"266 83 OFFCURVE",
"219 55 OFFCURVE",
"177 55 CURVE SMOOTH",
"141 55 OFFCURVE",
"119 76 OFFCURVE",
"119 106 CURVE SMOOTH",
"119 129 OFFCURVE",
"135 152 OFFCURVE",
"194 161 CURVE SMOOTH",
"606 223 LINE",
"596 280 LINE",
"172 208 LINE SMOOTH",
"56 188 OFFCURVE",
"34 138 OFFCURVE",
"34 96 CURVE SMOOTH",
"34 33 OFFCURVE",
"76 -9 OFFCURVE",
"147 -9 CURVE SMOOTH"
);
},
{
closed = 1;
nodes = (
"606 223 LINE",
"609 246 OFFCURVE",
"609 268 OFFCURVE",
"609 276 CURVE SMOOTH",
"609 360 OFFCURVE",
"554 426 OFFCURVE",
"474 426 CURVE SMOOTH",
"407 426 OFFCURVE",
"347 384 OFFCURVE",
"310 319 CURVE",
"348 276 LINE",
"368 329 OFFCURVE",
"409 363 OFFCURVE",
"459 363 CURVE SMOOTH",
"522 363 OFFCURVE",
"534 305 OFFCURVE",
"534 279 CURVE SMOOTH",
"534 223 LINE"
);
}
);
width = 639;
},
{
anchors = (
{
name = bottom;
position = "{345, 0}";
},
{
name = top;
position = "{359, 425}";
}
);
layerId = "090CB6A0-BE7C-4D17-A551-206C7456A8A3";
paths = (
{
closed = 1;
nodes = (
"518 -13 OFFCURVE",
"595 2 OFFCURVE",
"656 60 CURVE",
"610 132 LINE",
"576 108 OFFCURVE",
"536 95 OFFCURVE",
"496 95 CURVE SMOOTH",
"431 95 OFFCURVE",
"400 129 OFFCURVE",
"400 193 CURVE SMOOTH",
"400 304 LINE SMOOTH",
"400 390 OFFCURVE",
"356 439 OFFCURVE",
"261 439 CURVE SMOOTH",
"153 439 OFFCURVE",
"49 380 OFFCURVE",
"36 293 CURVE",
"168 278 LINE",
"178 331 OFFCURVE",
"205 350 OFFCURVE",
"236 350 CURVE SMOOTH",
"271 350 OFFCURVE",
"280 330 OFFCURVE",
"280 281 CURVE SMOOTH",
"279 175 LINE SMOOTH",
"279 54 OFFCURVE",
"354 -13 OFFCURVE",
"465 -13 CURVE SMOOTH"
);
},
{
closed = 1;
nodes = (
"224 -13 OFFCURVE",
"282 16 OFFCURVE",
"345 72 CURVE",
"327 129 LINE",
"279 101 OFFCURVE",
"241 82 OFFCURVE",
"209 82 CURVE SMOOTH",
"181 82 OFFCURVE",
"166 99 OFFCURVE",
"166 120 CURVE SMOOTH",
"166 138 OFFCURVE",
"181 158 OFFCURVE",
"232 163 CURVE SMOOTH",
"646 203 LINE",
"639 283 LINE",
"175 227 LINE SMOOTH",
"68 212 OFFCURVE",
"26 167 OFFCURVE",
"26 104 CURVE SMOOTH",
"26 33 OFFCURVE",
"70 -13 OFFCURVE",
"155 -13 CURVE SMOOTH"
);
},
{
closed = 1;
nodes = (
"651 203 LINE",
"655 233 OFFCURVE",
"655 260 OFFCURVE",
"655 277 CURVE SMOOTH",
"655 374 OFFCURVE",
"592 438 OFFCURVE",
"496 438 CURVE SMOOTH",
"430 438 OFFCURVE",
"367 403 OFFCURVE",
"329 353 CURVE",
"389 277 LINE",
"404 319 OFFCURVE",
"433 347 OFFCURVE",
"473 347 CURVE SMOOTH",
"523 347 OFFCURVE",
"531 301 OFFCURVE",
"531 271 CURVE SMOOTH",
"531 203 LINE"
);
}
);
width = 679;
}
);
leftKerningGroup = a;
rightKerningGroup = c;
unicode = 00E6;
},
{
color = 3;
glyphname = b;
layers = (
{
anchors = (
{
name = bottom;
position = "{242, 0}";
},
{
name = top;
position = "{242, 406}";
}
);
layerId = "3114FB65-9464-41A5-B67E-A8F9F43C0EF1";
paths = (
{
closed = 1;
nodes = (
"385 -4 OFFCURVE",
"465 92 OFFCURVE",
"465 215 CURVE SMOOTH",
"465 333 OFFCURVE",
"393 413 OFFCURVE",
"287 413 CURVE SMOOTH",
"214 413 OFFCURVE",
"148 376 OFFCURVE",
"102 303 CURVE",
"117 281 LINE",
"158 356 OFFCURVE",
"224 386 OFFCURVE",
"277 386 CURVE SMOOTH",
"370 386 OFFCURVE",
"429 313 OFFCURVE",
"429 207 CURVE SMOOTH",
"429 102 OFFCURVE",
"365 22 OFFCURVE",
"255 22 CURVE SMOOTH",
"205 22 OFFCURVE",
"151 36 OFFCURVE",
"124 63 CURVE",
"90 45 LINE",
"122 13 OFFCURVE",
"189 -4 OFFCURVE",
"246 -4 CURVE SMOOTH"
);
},
{
closed = 1;
nodes = (
"124 63 LINE",
"124 713 LINE",
"90 709 LINE",
"90 45 LINE"
);
}
);
width = 511;
},
{
anchors = (
{
name = bottom;
position = "{260, 0}";
},
{
name = top;
position = "{260, 406}";
}
);
layerId = "14EEE41F-D714-4243-A717-73445EE7DABA";
paths = (
{
closed = 1;
nodes = (
"416 -7 OFFCURVE",
"496 105 OFFCURVE",
"496 225 CURVE SMOOTH",
"496 352 OFFCURVE",
"411 425 OFFCURVE",
"313 425 CURVE SMOOTH",
"227 425 OFFCURVE",
"160 372 OFFCURVE",
"114 303 CURVE",
"143 272 LINE",
"176 329 OFFCURVE",
"228 357 OFFCURVE",
"278 357 CURVE SMOOTH",
"350 357 OFFCURVE",
"402 299 OFFCURVE",
"402 196 CURVE SMOOTH",
"402 117 OFFCURVE",
"362 50 OFFCURVE",
"277 50 CURVE SMOOTH",
"235 50 OFFCURVE",
"193 63 OFFCURVE",
"166 91 CURVE",
"80 45 LINE",
"108 12 OFFCURVE",
"180 -7 OFFCURVE",
"250 -7 CURVE SMOOTH"
);
},
{
closed = 1;
nodes = (
"166 91 LINE",
"166 718 LINE",
"80 703 LINE",
"80 45 LINE"
);
}
);
width = 535;
},
{
anchors = (
{
name = bottom;
position = "{276, 0}";
},
{
name = top;
position = "{276, 416}";
}
);
layerId = "090CB6A0-BE7C-4D17-A551-206C7456A8A3";
paths = (
{
closed = 1;
nodes = (
"446 -13 OFFCURVE",
"527 105 OFFCURVE",
"527 238 CURVE SMOOTH",
"527 376 OFFCURVE",
"426 437 OFFCURVE",
"344 437 CURVE SMOOTH",
"248 437 OFFCURVE",
"176 375 OFFCURVE",
"135 319 CURVE",
"183 272 LINE",
"210 310 OFFCURVE",
"243 331 OFFCURVE",
"282 331 CURVE SMOOTH",
"328 331 OFFCURVE",
"366 297 OFFCURVE",
"366 202 CURVE SMOOTH",
"366 129 OFFCURVE",
"344 82 OFFCURVE",
"287 82 CURVE SMOOTH",
"257 82 OFFCURVE",
"231 93 OFFCURVE",
"212 112 CURVE",
"62 40 LINE",
"93 9 OFFCURVE",
"162 -13 OFFCURVE",
"245 -13 CURVE SMOOTH"
);
},
{
closed = 1;
nodes = (
"212 112 LINE",
"212 723 LINE",
"62 698 LINE",
"62 40 LINE"
);
}
);
width = 557;
}
);
leftKerningGroup = l;
rightKerningGroup = o;
rightMetricsKey = o;
unicode = 0062;
},
{
color = 3;
glyphname = c;
layers = (
{
anchors = (
{
name = bottom;
position = "{244, 0}";
},
{
name = top;
position = "{251, 409}";
}
);
layerId = "3114FB65-9464-41A5-B67E-A8F9F43C0EF1";
paths = (
{
closed = 1;
nodes = (
"306 -5 OFFCURVE",
"359 14 OFFCURVE",
"399 53 CURVE",
"384 74 LINE",
"352 41 OFFCURVE",
"307 23 OFFCURVE",
"259 23 CURVE SMOOTH",
"159 23 OFFCURVE",
"83 96 OFFCURVE",
"83 203 CURVE SMOOTH",
"83 306 OFFCURVE",
"152 388 OFFCURVE",
"252 388 CURVE SMOOTH",
"300 388 OFFCURVE",
"341 368 OFFCURVE",
"374 336 CURVE",
"390 363 LINE",
"355 395 OFFCURVE",
"310 415 OFFCURVE",
"255 415 CURVE SMOOTH",
"136 415 OFFCURVE",
"46 322 OFFCURVE",
"46 200 CURVE SMOOTH",
"46 79 OFFCURVE",
"133 -5 OFFCURVE",
"251 -5 CURVE SMOOTH"
);
}
);
width = 430;
},
{
anchors = (
{
name = bottom;
position = "{247, 0}";
},
{
name = top;
position = "{260, 417}";
}
);
layerId = "14EEE41F-D714-4243-A717-73445EE7DABA";
paths = (
{
closed = 1;
nodes = (
"305 -10 OFFCURVE",
"364 6 OFFCURVE",
"413 54 CURVE",
"386 104 LINE",
"353 73 OFFCURVE",
"314 58 OFFCURVE",
"276 58 CURVE SMOOTH",
"196 58 OFFCURVE",
"133 117 OFFCURVE",
"133 211 CURVE SMOOTH",
"133 294 OFFCURVE",
"177 363 OFFCURVE",
"257 363 CURVE SMOOTH",
"300 363 OFFCURVE",
"336 343 OFFCURVE",
"371 308 CURVE",
"408 375 LINE",
"371 408 OFFCURVE",
"325 427 OFFCURVE",
"268 427 CURVE SMOOTH",
"138 427 OFFCURVE",
"39 332 OFFCURVE",
"39 202 CURVE SMOOTH",
"39 78 OFFCURVE",
"129 -10 OFFCURVE",
"252 -10 CURVE SMOOTH"
);
}
);
width = 441;
},
{
anchors = (
{
name = bottom;
position = "{257, 0}";
},
{
name = top;
position = "{272, 425}";
}
);
layerId = "090CB6A0-BE7C-4D17-A551-206C7456A8A3";
paths = (
{
closed = 1;
nodes = (
"311 -15 OFFCURVE",
"378 -2 OFFCURVE",
"438 57 CURVE",
"399 131 LINE",
"369 108 OFFCURVE",
"339 96 OFFCURVE",
"306 96 CURVE SMOOTH",
"236 96 OFFCURVE",
"190 147 OFFCURVE",
"190 223 CURVE SMOOTH",
"190 288 OFFCURVE",
"221 336 OFFCURVE",
"278 336 CURVE SMOOTH",
"317 336 OFFCURVE",
"350 312 OFFCURVE",
"379 282 CURVE",
"433 394 LINE",
"393 423 OFFCURVE",
"345 440 OFFCURVE",
"287 440 CURVE SMOOTH",
"140 440 OFFCURVE",
"31 341 OFFCURVE",
"31 203 CURVE SMOOTH",
"31 77 OFFCURVE",
"121 -15 OFFCURVE",
"260 -15 CURVE SMOOTH"
);
}
);
width = 457;
}
);
leftKerningGroup = o;
leftMetricsKey = o;
rightKerningGroup = c;
unicode = 0063;
},
{
color = 3;
glyphname = d;
layers = (
{
anchors = (
{
name = bottom;
position = "{264, 0}";
},
{
name = center;
position = "{366, 556}";
},
{
name = top;
position = "{264, 406}";
},
{
name = topright;
position = "{565, 763}";
}
);
layerId = "3114FB65-9464-41A5-B67E-A8F9F43C0EF1";
paths = (
{
closed = 1;
nodes = (
"313 -4 OFFCURVE",
"375 34 OFFCURVE",
"419 109 CURVE",
"402 122 LINE",
"360 50 OFFCURVE",
"301 23 OFFCURVE",
"241 23 CURVE SMOOTH",
"146 23 OFFCURVE",
"83 98 OFFCURVE",
"83 199 CURVE SMOOTH",
"83 309 OFFCURVE",
"156 387 OFFCURVE",
"258 387 CURVE SMOOTH",
"322 387 OFFCURVE",
"372 357 OFFCURVE",
"404 301 CURVE",
"416 322 LINE",
"383 383 OFFCURVE",
"324 414 OFFCURVE",
"255 414 CURVE SMOOTH",
"136 414 OFFCURVE",
"46 322 OFFCURVE",
"46 197 CURVE SMOOTH",
"46 81 OFFCURVE",
"121 -4 OFFCURVE",
"235 -4 CURVE SMOOTH"
);
},
{
closed = 1;
nodes = (
"434 2 LINE",
"434 713 LINE",
"400 708 LINE",
"400 96 LINE",
"404 -2 LINE"
);
}
);
width = 522;
},
{
anchors = (
{
name = bottom;
position = "{274, 0}";
},
{
name = center;
position = "{379, 555}";
},
{
name = top;
position = "{274, 406}";
},
{
name = topright;
position = "{610, 763}";
}
);
layerId = "14EEE41F-D714-4243-A717-73445EE7DABA";
paths = (
{
closed = 1;
nodes = (
"310 -7 OFFCURVE",
"369 32 OFFCURVE",
"413 114 CURVE",
"380 133 LINE",
"346 74 OFFCURVE",
"297 53 OFFCURVE",
"253 53 CURVE SMOOTH",
"178 53 OFFCURVE",
"133 119 OFFCURVE",
"133 207 CURVE SMOOTH",
"133 299 OFFCURVE",
"187 362 OFFCURVE",
"267 362 CURVE SMOOTH",
"315 362 OFFCURVE",
"356 339 OFFCURVE",
"382 293 CURVE",
"404 325 LINE",
"379 390 OFFCURVE",
"320 425 OFFCURVE",
"251 425 CURVE SMOOTH",
"134 425 OFFCURVE",
"39 328 OFFCURVE",
"39 198 CURVE SMOOTH",
"39 79 OFFCURVE",
"114 -7 OFFCURVE",
"230 -7 CURVE SMOOTH"
);
},
{
closed = 1;
nodes = (
"460 8 LINE",
"460 718 LINE",
"373 703 LINE",
"373 82 LINE",
"388 -8 LINE"
);
}
);
width = 532;
},
{
anchors = (
{
name = bottom;
position = "{291, 0}";
},
{
name = center;
position = "{397, 560}";
},
{
name = top;
position = "{263, 416}";
},
{
name = topright;
position = "{674, 742}";
}
);
layerId = "090CB6A0-BE7C-4D17-A551-206C7456A8A3";
paths = (
{
closed = 1;
nodes = (
"296 -12 OFFCURVE",
"358 34 OFFCURVE",
"399 95 CURVE",
"356 139 LINE",
"331 102 OFFCURVE",
"299 89 OFFCURVE",
"272 89 CURVE SMOOTH",
"223 89 OFFCURVE",
"195 134 OFFCURVE",
"195 217 CURVE SMOOTH",
"195 290 OFFCURVE",
"227 335 OFFCURVE",
"283 335 CURVE SMOOTH",
"313 335 OFFCURVE",
"339 321 OFFCURVE",
"356 293 CURVE",
"383 349 LINE",
"363 401 OFFCURVE",
"318 437 OFFCURVE",
"245 437 CURVE SMOOTH",
"120 437 OFFCURVE",
"31 334 OFFCURVE",
"31 200 CURVE SMOOTH",
"31 76 OFFCURVE",
"102 -12 OFFCURVE",
"214 -12 CURVE SMOOTH"
);
},
{
closed = 1;
nodes = (
"498 11 LINE",
"498 723 LINE",
"346 698 LINE",
"346 74 LINE",
"375 -13 LINE"
);
}
);
width = 551;
}
);
leftKerningGroup = o;
leftMetricsKey = o;
rightKerningGroup = l;
rightMetricsKey = u;
unicode = 0064;
},
{
color = 3;
glyphname = eth;
layers = (
{
layerId = "3114FB65-9464-41A5-B67E-A8F9F43C0EF1";
paths = (
{
closed = 1;
nodes = (
"377 -5 OFFCURVE",
"453 89 OFFCURVE",
"453 244 CURVE SMOOTH",
"453 426 OFFCURVE",
"327 619 OFFCURVE",
"104 716 CURVE",
"93 694 LINE",
"306 597 OFFCURVE",
"419 415 OFFCURVE",
"419 240 CURVE SMOOTH",
"419 104 OFFCURVE",
"359 22 OFFCURVE",
"255 22 CURVE SMOOTH",
"155 22 OFFCURVE",
"83 97 OFFCURVE",
"83 203 CURVE SMOOTH",
"83 308 OFFCURVE",
"155 387 OFFCURVE",
"260 387 CURVE SMOOTH",
"322 387 OFFCURVE",
"374 361 OFFCURVE",
"414 314 CURVE",
"426 332 LINE",
"384 382 OFFCURVE",
"324 411 OFFCURVE",
"256 411 CURVE SMOOTH",
"136 411 OFFCURVE",
"46 323 OFFCURVE",
"46 201 CURVE SMOOTH",
"46 82 OFFCURVE",
"132 -5 OFFCURVE",
"251 -5 CURVE SMOOTH"
);
},
{
closed = 1;
nodes = (
"437 683 LINE",
"423 706 LINE",
"80 507 LINE",
"95 484 LINE"
);
}
);
width = 499;
},
{
layerId = "14EEE41F-D714-4243-A717-73445EE7DABA";
paths = (
{
closed = 1;
nodes = (
"393 -8 OFFCURVE",
"478 97 OFFCURVE",
"478 245 CURVE SMOOTH",
"478 431 OFFCURVE",
"332 635 OFFCURVE",
"107 719 CURVE",
"83 669 LINE",
"282 579 OFFCURVE",
"392 405 OFFCURVE",
"392 234 CURVE SMOOTH",
"392 129 OFFCURVE",
"352 56 OFFCURVE",
"269 56 CURVE SMOOTH",
"192 56 OFFCURVE",
"133 116 OFFCURVE",
"133 211 CURVE SMOOTH",
"133 293 OFFCURVE",
"180 359 OFFCURVE",
"268 359 CURVE SMOOTH",
"319 359 OFFCURVE",
"358 337 OFFCURVE",
"390 298 CURVE",
"412 340 LINE",
"378 388 OFFCURVE",
"322 416 OFFCURVE",
"255 416 CURVE SMOOTH",
"133 416 OFFCURVE",
"39 326 OFFCURVE",
"39 203 CURVE SMOOTH",
"39 80 OFFCURVE",
"131 -8 OFFCURVE",
"256 -8 CURVE SMOOTH"
);
},
{
closed = 1;
nodes = (
"442 661 LINE",
"410 714 LINE",
"67 516 LINE",
"100 463 LINE"
);
}
);
width = 517;
},
{
layerId = "090CB6A0-BE7C-4D17-A551-206C7456A8A3";
paths = (
{
closed = 1;
nodes = (
"415 -12 OFFCURVE",
"511 97 OFFCURVE",
"511 246 CURVE SMOOTH",
"511 437 OFFCURVE",
"336 654 OFFCURVE",
"106 721 CURVE",
"70 644 LINE",
"252 564 OFFCURVE",
"355 408 OFFCURVE",
"355 225 CURVE SMOOTH",
"355 139 OFFCURVE",
"337 90 OFFCURVE",
"280 90 CURVE SMOOTH",
"228 90 OFFCURVE",
"192 130 OFFCURVE",
"192 215 CURVE SMOOTH",
"192 283 OFFCURVE",
"217 328 OFFCURVE",
"276 328 CURVE SMOOTH",
"310 328 OFFCURVE",
"336 314 OFFCURVE",
"358 286 CURVE",
"392 346 LINE",
"371 392 OFFCURVE",
"319 418 OFFCURVE",
"253 418 CURVE SMOOTH",
"130 418 OFFCURVE",
"31 328 OFFCURVE",
"31 205 CURVE SMOOTH",
"31 78 OFFCURVE",
"129 -12 OFFCURVE",
"262 -12 CURVE SMOOTH"
);
},
{
closed = 1;
nodes = (
"464 634 LINE",
"419 718 LINE",
"59 524 LINE",
"103 444 LINE"
);
}
);
width = 541;
}
);
leftKerningGroup = oaccent;
leftMetricsKey = o;
rightKerningGroup = oaccent;
rightMetricsKey = o;
unicode = 00F0;
},
{
color = 3;
glyphname = dcroat;
layers = (
{
components = (
{
name = d;
}
);
layerId = "3114FB65-9464-41A5-B67E-A8F9F43C0EF1";
paths = (
{
closed = 1;
nodes = (
"191 541 LINE",
"540 543 LINE",
"541 568 LINE",
"192 569 LINE"
);
}
);
width = 522;
},
{
components = (
{
name = d;
}
);
layerId = "14EEE41F-D714-4243-A717-73445EE7DABA";
paths = (
{
closed = 1;
nodes = (
"195 520 LINE",
"555 526 LINE",
"561 584 LINE",
"201 586 LINE"
);
}
);
width = 532;
},
{
components = (
{
name = d;
}
);
layerId = "090CB6A0-BE7C-4D17-A551-206C7456A8A3";
paths = (
{
closed = 1;
nodes = (
"193.04 508.92 LINE",
"583.04 520.44 LINE",
"592.4 603 LINE",
"202.4 605.88 LINE"
);
}
);
width = 551;
}
);
leftKerningGroup = o;
rightKerningGroup = l;
unicode = 0111;
},
{
color = 3;
glyphname = e;
layers = (
{
anchors = (
{
name = bottom;
position = "{247, 0}";
},
{
name = ogonek;
position = "{407, 12}";
},
{
name = top;
position = "{242, 410}";
}
);
layerId = "3114FB65-9464-41A5-B67E-A8F9F43C0EF1";
paths = (
{
closed = 1;
nodes = (
"293 -5 OFFCURVE",
"342 12 OFFCURVE",
"392 58 CURVE",
"376 78 LINE",
"336 39 OFFCURVE",
"292 23 OFFCURVE",
"247 23 CURVE SMOOTH",
"147 23 OFFCURVE",
"79 91 OFFCURVE",
"79 194 CURVE SMOOTH",
"79 312 OFFCURVE",
"152 388 OFFCURVE",
"253 388 CURVE SMOOTH",
"322 388 OFFCURVE",
"359 351 OFFCURVE",
"359 272 CURVE SMOOTH",
"359 252 LINE",
"389 252 LINE",
"390 258 OFFCURVE",
"390 266 OFFCURVE",
"390 273 CURVE SMOOTH",
"390 360 OFFCURVE",
"346 414 OFFCURVE",
"254 414 CURVE SMOOTH",
"135 414 OFFCURVE",
"46 326 OFFCURVE",
"46 191 CURVE SMOOTH",
"46 72 OFFCURVE",
"125 -5 OFFCURVE",
"241 -5 CURVE SMOOTH"
);
},
{
closed = 1;
nodes = (
"382 252 LINE",
"382 276 LINE",
"77 276 LINE",
"72 252 LINE"
);
}
);
width = 442;
},
{
anchors = (
{
name = bottom;
position = "{240, 0}";
},
{
name = ogonek;
position = "{417, 11}";
},
{
name = top;
position = "{245, 417}";
}
);
layerId = "14EEE41F-D714-4243-A717-73445EE7DABA";
paths = (
{
closed = 1;
nodes = (
"297 -10 OFFCURVE",
"356 6 OFFCURVE",
"412 60 CURVE",
"382 107 LINE",
"344 73 OFFCURVE",
"303 58 OFFCURVE",
"260 58 CURVE SMOOTH",
"179 58 OFFCURVE",
"122 115 OFFCURVE",
"122 207 CURVE SMOOTH",
"122 302 OFFCURVE",
"173 366 OFFCURVE",
"252 366 CURVE SMOOTH",
"311 366 OFFCURVE",
"336 330 OFFCURVE",
"336 261 CURVE SMOOTH",
"336 218 LINE",
"411 218 LINE",
"412 231 OFFCURVE",
"413 247 OFFCURVE",
"413 260 CURVE SMOOTH",
"413 363 OFFCURVE",
"361 427 OFFCURVE",
"259 427 CURVE SMOOTH",
"134 427 OFFCURVE",
"39 333 OFFCURVE",
"39 194 CURVE SMOOTH",
"39 67 OFFCURVE",
"123 -10 OFFCURVE",
"242 -10 CURVE SMOOTH"
);
},
{
closed = 1;
nodes = (
"400 218 LINE",
"400 272 LINE",
"96 272 LINE",
"85 218 LINE"
);
}
);
width = 456;
},
{
anchors = (
{
name = bottom;
position = "{250, 0}";
},
{
name = ogonek;
position = "{429, 10}";
},
{
name = top;
position = "{258, 425}";
}
);
layerId = "090CB6A0-BE7C-4D17-A551-206C7456A8A3";
paths = (
{
closed = 1;
nodes = (
"305 -15 OFFCURVE",
"382 1 OFFCURVE",
"445 62 CURVE",
"402 134 LINE",
"368 109 OFFCURVE",
"330 95 OFFCURVE",
"290 95 CURVE SMOOTH",
"213 95 OFFCURVE",
"171 140 OFFCURVE",
"171 223 CURVE SMOOTH",
"171 297 OFFCURVE",
"202 350 OFFCURVE",
"260 350 CURVE SMOOTH",
"303 350 OFFCURVE",
"322 318 OFFCURVE",
"322 258 CURVE SMOOTH",
"322 196 LINE",
"444 196 LINE",
"447 220 OFFCURVE",
"447 244 OFFCURVE",
"447 267 CURVE SMOOTH",
"447 372 OFFCURVE",
"383 440 OFFCURVE",
"270 440 CURVE SMOOTH",
"131 440 OFFCURVE",
"31 341 OFFCURVE",
"31 197 CURVE SMOOTH",
"31 62 OFFCURVE",
"120 -15 OFFCURVE",
"249 -15 CURVE SMOOTH"
);
},
{
closed = 1;
nodes = (
"435 196 LINE",
"435 273 LINE",
"119 273 LINE",
"102 196 LINE"
);
}
);
width = 481;
}
);
leftKerningGroup = o;
leftMetricsKey = o;
rightKerningGroup = c;
unicode = 0065;
},
{
color = 3;
glyphname = eogonek;
layers = (
{
anchors = (
{
name = top;
position = "{264, 410}";
}
);
layerId = "3114FB65-9464-41A5-B67E-A8F9F43C0EF1";
paths = (
{
closed = 1;
nodes = (
"301 -4 OFFCURVE",
"352 13 OFFCURVE",
"403 59 CURVE",
"385 78 LINE",
"344 40 OFFCURVE",
"299 24 OFFCURVE",
"256 24 CURVE SMOOTH",
"154 24 OFFCURVE",
"87 92 OFFCURVE",
"87 194 CURVE SMOOTH",
"87 310 OFFCURVE",
"160 387 OFFCURVE",
"262 387 CURVE SMOOTH",
"331 387 OFFCURVE",
"367 350 OFFCURVE",
"367 275 CURVE SMOOTH",
"367 256 LINE",
"397 256 LINE",
"399 262 OFFCURVE",
"399 269 OFFCURVE",
"399 276 CURVE SMOOTH",
"399 359 OFFCURVE",
"355 413 OFFCURVE",
"264 413 CURVE SMOOTH",
"143 413 OFFCURVE",
"55 324 OFFCURVE",
"55 191 CURVE SMOOTH",
"55 73 OFFCURVE",
"133 -4 OFFCURVE",
"252 -4 CURVE SMOOTH"
);
},
{
closed = 1;
nodes = (
"360 -289 OFFCURVE",
"388 -278 OFFCURVE",
"415 -258 CURVE",
"404 -238 LINE",
"383 -254 OFFCURVE",
"361 -263 OFFCURVE",
"327 -263 CURVE SMOOTH",
"276 -263 OFFCURVE",
"243 -228 OFFCURVE",
"243 -175 CURVE SMOOTH",
"243 -110 OFFCURVE",
"289 -43 OFFCURVE",
"403 59 CURVE",
"352 38 LINE",
"248 -48 OFFCURVE",
"209 -115 OFFCURVE",
"209 -183 CURVE SMOOTH",
"209 -244 OFFCURVE",
"252 -289 OFFCURVE",
"319 -289 CURVE SMOOTH"
);
},
{
closed = 1;
nodes = (
"390 256 LINE",
"390 280 LINE",
"91 280 LINE",
"86 256 LINE"
);
}
);
width = 450;
},
{
anchors = (
{
name = top;
position = "{253, 417}";
}
);
layerId = "14EEE41F-D714-4243-A717-73445EE7DABA";
paths = (
{
closed = 1;
nodes = (
"300 -9 OFFCURVE",
"360 6 OFFCURVE",
"417 60 CURVE",
"384 106 LINE",
"346 74 OFFCURVE",
"305 58 OFFCURVE",
"263 58 CURVE SMOOTH",
"178 58 OFFCURVE",
"124 115 OFFCURVE",
"124 207 CURVE SMOOTH",
"124 300 OFFCURVE",
"175 364 OFFCURVE",
"254 364 CURVE SMOOTH",
"314 364 OFFCURVE",
"339 327 OFFCURVE",
"339 260 CURVE SMOOTH",
"339 218 LINE",
"413 218 LINE",
"415 231 OFFCURVE",
"416 247 OFFCURVE",
"416 260 CURVE SMOOTH",
"416 361 OFFCURVE",
"364 426 OFFCURVE",
"262 426 CURVE SMOOTH",
"137 426 OFFCURVE",
"42 332 OFFCURVE",
"42 194 CURVE SMOOTH",
"42 67 OFFCURVE",
"126 -9 OFFCURVE",
"246 -9 CURVE SMOOTH"
);
},
{
closed = 1;
nodes = (
"360 -289 OFFCURVE",
"392 -277 OFFCURVE",
"423 -255 CURVE",
"398 -211 LINE",
"382 -223 OFFCURVE",
"364 -228 OFFCURVE",
"339 -228 CURVE SMOOTH",
"293 -228 OFFCURVE",
"263 -198 OFFCURVE",
"263 -154 CURVE SMOOTH",
"263 -97 OFFCURVE",
"307 -42 OFFCURVE",
"417 60 CURVE",
"345 43 LINE",
"220 -35 OFFCURVE",
"177 -102 OFFCURVE",
"177 -178 CURVE SMOOTH",
"177 -237 OFFCURVE",
"229 -289 OFFCURVE",
"312 -289 CURVE SMOOTH"
);
},
{
closed = 1;
nodes = (
"402 218 LINE",
"402 272 LINE",
"100 272 LINE",
"90 218 LINE"
);
}
);
width = 458;
},
{
anchors = (
{
name = top;
position = "{257, 425}";
}
);
layerId = "090CB6A0-BE7C-4D17-A551-206C7456A8A3";
paths = (
{
closed = 1;
nodes = (
"305 -15 OFFCURVE",
"379 11 OFFCURVE",
"445 60 CURVE",
"402 133 LINE",
"368 109 OFFCURVE",
"330 96 OFFCURVE",
"290 96 CURVE SMOOTH",
"212 96 OFFCURVE",
"170 140 OFFCURVE",
"170 223 CURVE SMOOTH",
"170 296 OFFCURVE",
"201 349 OFFCURVE",
"260 349 CURVE SMOOTH",
"303 349 OFFCURVE",
"322 317 OFFCURVE",
"322 258 CURVE SMOOTH",
"322 196 LINE",
"444 196 LINE",
"447 220 OFFCURVE",
"447 244 OFFCURVE",
"447 267 CURVE SMOOTH",
"447 372 OFFCURVE",
"383 440 OFFCURVE",
"270 440 CURVE SMOOTH",
"131 440 OFFCURVE",
"31 341 OFFCURVE",
"31 197 CURVE SMOOTH",
"31 62 OFFCURVE",
"120 -15 OFFCURVE",
"249 -15 CURVE SMOOTH"
);
},
{
closed = 1;
nodes = (
"378 -289 OFFCURVE",
"417 -274 OFFCURVE",
"454 -247 CURVE",
"421 -186 LINE",
"408 -194 OFFCURVE",
"394 -197 OFFCURVE",
"377 -197 CURVE SMOOTH",
"334 -197 OFFCURVE",
"311 -169 OFFCURVE",
"311 -126 CURVE SMOOTH",
"311 -70 OFFCURVE",
"349 -19 OFFCURVE",
"445 60 CURVE",
"376 59 LINE",
"241 -2 OFFCURVE",
"172 -80 OFFCURVE",
"172 -169 CURVE SMOOTH",
"172 -232 OFFCURVE",
"227 -289 OFFCURVE",
"323 -289 CURVE SMOOTH"
);
},
{
closed = 1;
nodes = (
"435 196 LINE",
"435 273 LINE",
"119 273 LINE",
"102 196 LINE"
);
}
);
width = 481;
}
);
leftKerningGroup = o;
rightKerningGroup = c;
unicode = 0119;
},
{
color = 3;
glyphname = f;
layers = (
{
anchors = (
{
name = bottom;
position = "{170, 0}";
},
{
name = top;
position = "{240, 529}";
}
);
layerId = "3114FB65-9464-41A5-B67E-A8F9F43C0EF1";
paths = (
{
closed = 1;
nodes = (
"162 0 LINE",
"162 442 LINE SMOOTH",
"162 554 OFFCURVE",
"198 685 OFFCURVE",
"333 685 CURVE SMOOTH",
"371 685 OFFCURVE",
"403 674 OFFCURVE",
"431 657 CURVE",
"446 684 LINE",
"419 701 OFFCURVE",
"383 711 OFFCURVE",
"345 711 CURVE SMOOTH",
"209 711 OFFCURVE",
"127 615 OFFCURVE",
"127 435 CURVE SMOOTH",
"127 0 LINE"
);
},
{
closed = 1;
nodes = (
"332 369 LINE",
"334 398 LINE",
"38 396 LINE",
"36 369 LINE"
);
}
);
width = 341;
},
{
anchors = (
{
name = bottom;
position = "{176, 0}";
},
{
name = top;
position = "{176, 417}";
}
);
layerId = "14EEE41F-D714-4243-A717-73445EE7DABA";
paths = (
{
closed = 1;
nodes = (
"194 0 LINE",
"194 448 LINE SMOOTH",
"194 551 OFFCURVE",
"219 649 OFFCURVE",
"321 649 CURVE SMOOTH",
"358 649 OFFCURVE",
"393 636 OFFCURVE",
"424 611 CURVE",
"463 675 LINE",
"430 700 OFFCURVE",
"389 711 OFFCURVE",
"344 711 CURVE SMOOTH",
"208 711 OFFCURVE",
"106 614 OFFCURVE",
"106 425 CURVE SMOOTH",
"106 0 LINE"
);
},
{
closed = 1;
nodes = (
"348 352 LINE",
"354 413 LINE",
"31 407 LINE",
"26 353 LINE"
);
}
);
width = 352;
},
{
anchors = (
{
name = bottom;
position = "{185, 0}";
},
{
name = top;
position = "{243, 537}";
}
);
layerId = "090CB6A0-BE7C-4D17-A551-206C7456A8A3";
paths = (
{
closed = 1;
nodes = (
"239 0 LINE",
"239 455 LINE SMOOTH",
"239 558 OFFCURVE",
"267 602 OFFCURVE",
"328 602 CURVE SMOOTH",
"359 602 OFFCURVE",
"393 591 OFFCURVE",
"428 563 CURVE",
"489 673 LINE",
"448 700 OFFCURVE",
"405 711 OFFCURVE",
"342 711 CURVE SMOOTH",
"197 711 OFFCURVE",
"85 602 OFFCURVE",
"85 410 CURVE SMOOTH",
"85 0 LINE"
);
},
{
closed = 1;
nodes = (
"372 320 LINE",
"382 425 LINE",
"23 415 LINE",
"14 325 LINE"
);
}
);
width = 378;
}
);
leftKerningGroup = f;
rightKerningGroup = f;
unicode = 0066;
},
{
color = 3;
glyphname = g;
layers = (
{
anchors = (
{
name = bottom;
position = "{237, -289}";
},
{
name = top;
position = "{237, 410}";
}
);
layerId = "3114FB65-9464-41A5-B67E-A8F9F43C0EF1";
paths = (
{
closed = 1;
nodes = (
"340 -289 OFFCURVE",
"442 -204 OFFCURVE",
"442 -102 CURVE SMOOTH",
"442 -20 OFFCURVE",
"374 -8 OFFCURVE",
"256 4 CURVE SMOOTH",
"159 14 OFFCURVE",
"106 21 OFFCURVE",
"106 63 CURVE SMOOTH",
"106 92 OFFCURVE",
"131 113 OFFCURVE",
"175 136 CURVE",
"157 153 LINE",
"102 121 OFFCURVE",
"74 94 OFFCURVE",
"74 54 CURVE SMOOTH",
"74 -4 OFFCURVE",
"148 -14 OFFCURVE",
"240 -23 CURVE SMOOTH",
"355 -35 OFFCURVE",
"408 -43 OFFCURVE",
"408 -111 CURVE SMOOTH",
"408 -193 OFFCURVE",
"326 -265 OFFCURVE",
"217 -265 CURVE SMOOTH",
"135 -265 OFFCURVE",
"78 -226 OFFCURVE",
"78 -161 CURVE SMOOTH",
"78 -108 OFFCURVE",
"117 -56 OFFCURVE",
"208 -11 CURVE",
"195 4 LINE",
"91 -42 OFFCURVE",
"43 -107 OFFCURVE",
"43 -167 CURVE SMOOTH",
"43 -242 OFFCURVE",
"114 -289 OFFCURVE",
"210 -289 CURVE SMOOTH"
);
},
{
closed = 1;
nodes = (
"322 119 OFFCURVE",
"392 184 OFFCURVE",
"392 271 CURVE SMOOTH",
"392 355 OFFCURVE",
"326 414 OFFCURVE",
"234 414 CURVE SMOOTH",
"139 414 OFFCURVE",
"69 351 OFFCURVE",
"69 265 CURVE SMOOTH",
"69 181 OFFCURVE",
"135 119 OFFCURVE",
"227 119 CURVE SMOOTH"
);
},
{
closed = 1;
nodes = (
"157 144 OFFCURVE",
"103 197 OFFCURVE",
"103 267 CURVE SMOOTH",
"103 339 OFFCURVE",
"156 389 OFFCURVE",
"229 389 CURVE SMOOTH",
"305 389 OFFCURVE",
"358 339 OFFCURVE",
"358 266 CURVE SMOOTH",
"358 196 OFFCURVE",
"306 144 OFFCURVE",
"231 144 CURVE SMOOTH"
);
},
{
closed = 1;
nodes = (
"451 373 LINE",
"451 398 LINE",
"296 393 LINE",
"310 373 LINE"
);
}
);
width = 473;
},
{
anchors = (
{
name = bottom;
position = "{244, -289}";
},
{
name = top;
position = "{248, 417}";
}
);
layerId = "14EEE41F-D714-4243-A717-73445EE7DABA";
paths = (
{
closed = 1;
nodes = (
"348 -289 OFFCURVE",
"464 -206 OFFCURVE",
"464 -91 CURVE SMOOTH",
"464 1 OFFCURVE",
"383 14 OFFCURVE",
"277 26 CURVE SMOOTH",
"178 36 OFFCURVE",
"138 45 OFFCURVE",
"138 80 CURVE SMOOTH",
"138 108 OFFCURVE",
"167 128 OFFCURVE",
"196 141 CURVE",
"169 168 LINE",
"104 136 OFFCURVE",
"63 103 OFFCURVE",
"63 51 CURVE SMOOTH",
"63 -15 OFFCURVE",
"143 -33 OFFCURVE",
"229 -41 CURVE SMOOTH",
"335 -53 OFFCURVE",
"380 -59 OFFCURVE",
"380 -119 CURVE SMOOTH",
"380 -185 OFFCURVE",
"314 -231 OFFCURVE",
"234 -231 CURVE SMOOTH",
"168 -231 OFFCURVE",
"122 -201 OFFCURVE",
"122 -148 CURVE SMOOTH",
"122 -101 OFFCURVE",
"155 -54 OFFCURVE",
"229 -17 CURVE",
"206 8 LINE",
"90 -38 OFFCURVE",
"34 -104 OFFCURVE",
"34 -166 CURVE SMOOTH",
"34 -243 OFFCURVE",
"108 -289 OFFCURVE",
"212 -289 CURVE SMOOTH"
);
},
{
closed = 1;
nodes = (
"332 119 OFFCURVE",
"407 188 OFFCURVE",
"407 281 CURVE SMOOTH",
"407 367 OFFCURVE",
"340 427 OFFCURVE",
"242 427 CURVE SMOOTH",
"138 427 OFFCURVE",
"59 360 OFFCURVE",
"59 267 CURVE SMOOTH",
"59 182 OFFCURVE",
"125 119 OFFCURVE",
"225 119 CURVE SMOOTH"
);
},
{
closed = 1;
nodes = (
"181 178 OFFCURVE",
"139 219 OFFCURVE",
"139 277 CURVE SMOOTH",
"139 332 OFFCURVE",
"175 368 OFFCURVE",
"228 368 CURVE SMOOTH",
"288 368 OFFCURVE",
"328 326 OFFCURVE",
"328 267 CURVE SMOOTH",
"328 214 OFFCURVE",
"293 178 OFFCURVE",
"239 178 CURVE SMOOTH"
);
},
{
closed = 1;
nodes = (
"472 357 LINE",
"472 413 LINE",
"301 398 LINE",
"312 357 LINE"
);
}
);
width = 488;
},
{
anchors = (
{
name = bottom;
position = "{258, -289}";
},
{
name = top;
position = "{260, 425}";
}
);
layerId = "090CB6A0-BE7C-4D17-A551-206C7456A8A3";
paths = (
{
closed = 1;
nodes = (
"361 -289 OFFCURVE",
"491 -209 OFFCURVE",
"491 -76 CURVE SMOOTH",
"491 28 OFFCURVE",
"404 44 OFFCURVE",
"309 53 CURVE SMOOTH",
"212 62 OFFCURVE",
"163 65 OFFCURVE",
"163 101 CURVE SMOOTH",
"163 126 OFFCURVE",
"191 140 OFFCURVE",
"223 153 CURVE",
"195 185 LINE",
"113 154 OFFCURVE",
"48 113 OFFCURVE",
"48 48 CURVE SMOOTH",
"48 -25 OFFCURVE",
"135 -50 OFFCURVE",
"219 -58 CURVE SMOOTH",
"304 -66 OFFCURVE",
"358 -70 OFFCURVE",
"358 -119 CURVE SMOOTH",
"358 -166 OFFCURVE",
"310 -190 OFFCURVE",
"254 -190 CURVE SMOOTH",
"201 -190 OFFCURVE",
"165 -170 OFFCURVE",
"165 -130 CURVE SMOOTH",
"165 -92 OFFCURVE",
"195 -54 OFFCURVE",
"249 -24 CURVE",
"220 6 LINE",
"90 -38 OFFCURVE",
"25 -104 OFFCURVE",
"25 -167 CURVE SMOOTH",
"25 -242 OFFCURVE",
"105 -289 OFFCURVE",
"215 -289 CURVE SMOOTH"
);
},
{
closed = 1;
nodes = (
"343 119 OFFCURVE",
"427 184 OFFCURVE",
"427 289 CURVE SMOOTH",
"427 379 OFFCURVE",
"362 439 OFFCURVE",
"251 439 CURVE SMOOTH",
"133 439 OFFCURVE",
"45 372 OFFCURVE",
"45 272 CURVE SMOOTH",
"45 182 OFFCURVE",
"118 119 OFFCURVE",
"230 119 CURVE SMOOTH"
);
},
{
closed = 1;
nodes = (
"203 214 OFFCURVE",
"174 241 OFFCURVE",
"174 282 CURVE SMOOTH",
"174 320 OFFCURVE",
"197 344 OFFCURVE",
"235 344 CURVE SMOOTH",
"278 344 OFFCURVE",
"305 316 OFFCURVE",
"305 274 CURVE SMOOTH",
"305 238 OFFCURVE",
"283 214 OFFCURVE",
"244 214 CURVE SMOOTH"
);
},
{
closed = 1;
nodes = (
"496 335 LINE",
"496 435 LINE",
"312 405 LINE",
"321 335 LINE"
);
}
);
width = 507;
}
);
leftKerningGroup = o;
rightKerningGroup = g;
unicode = 0067;
},
{
color = 3;
glyphname = h;
layers = (
{
anchors = (
{
name = bottom;
position = "{264, 0}";
},
{
name = center;
position = "{159, 555}";
},
{
name = top;
position = "{107, 700}";
}
);
layerId = "3114FB65-9464-41A5-B67E-A8F9F43C0EF1";
paths = (
{
closed = 1;
nodes = (
"438 0 LINE",
"438 255 LINE SMOOTH",
"438 355 OFFCURVE",
"384 414 OFFCURVE",
"297 414 CURVE SMOOTH",
"229 414 OFFCURVE",
"137 378 OFFCURVE",
"99 284 CURVE",
"114 270 LINE",
"151 353 OFFCURVE",
"226 386 OFFCURVE",
"286 386 CURVE SMOOTH",
"361 386 OFFCURVE",
"403 334 OFFCURVE",
"403 245 CURVE SMOOTH",
"403 0 LINE"
);
},
{
closed = 1;
nodes = (
"125 0 LINE",
"125 713 LINE",
"90 708 LINE",
"90 0 LINE"
);
}
);
width = 525;
},
{
anchors = (
{
name = bottom;
position = "{274, 0}";
},
{
name = center;
position = "{160, 554}";
},
{
name = top;
position = "{126, 700}";
}
);
layerId = "14EEE41F-D714-4243-A717-73445EE7DABA";
paths = (
{
closed = 1;
nodes = (
"466 0 LINE",
"466 268 LINE SMOOTH",
"466 365 OFFCURVE",
"404 423 OFFCURVE",
"319 423 CURVE SMOOTH",
"243 423 OFFCURVE",
"163 382 OFFCURVE",
"113 294 CURVE",
"142 271 LINE",
"173 330 OFFCURVE",
"232 358 OFFCURVE",
"282 358 CURVE SMOOTH",
"344 358 OFFCURVE",
"378 313 OFFCURVE",
"378 237 CURVE SMOOTH",
"378 0 LINE"
);
},
{
closed = 1;
nodes = (
"167 0 LINE",
"167 718 LINE",
"80 703 LINE",
"80 0 LINE"
);
}
);
width = 538;
},
{
anchors = (
{
name = bottom;
position = "{285, 0}";
},
{
name = center;
position = "{167, 552}";
},
{
name = top;
position = "{146, 704}";
}
);
layerId = "090CB6A0-BE7C-4D17-A551-206C7456A8A3";
paths = (
{
closed = 1;
nodes = (
"505 0 LINE",
"505 283 LINE SMOOTH",
"505 375 OFFCURVE",
"440 433 OFFCURVE",
"355 433 CURVE SMOOTH",
"279 433 OFFCURVE",
"217 394 OFFCURVE",
"158 330 CURVE",
"196 283 LINE",
"215 313 OFFCURVE",
"253 330 OFFCURVE",
"285 330 CURVE SMOOTH",
"329 330 OFFCURVE",
"350 296 OFFCURVE",
"350 244 CURVE SMOOTH",
"350 0 LINE"
);
},
{
closed = 1;
nodes = (
"216 0 LINE",
"216 723 LINE",
"65 698 LINE",
"65 0 LINE"
);
}
);
width = 558;
}
);
leftKerningGroup = l;
rightKerningGroup = n;
rightMetricsKey = n;
unicode = 0068;
},
{
color = 3;
glyphname = hbar;
layers = (
{
components = (
{
name = h;
}
);
layerId = "3114FB65-9464-41A5-B67E-A8F9F43C0EF1";
paths = (
{
closed = 1;
nodes = (
"334 570 LINE",
"-15 568 LINE",
"-16 543 LINE",
"333 542 LINE"
);
}
);
width = 525;
},
{
components = (
{
name = h;
}
);
layerId = "14EEE41F-D714-4243-A717-73445EE7DABA";
paths = (
{
closed = 1;
nodes = (
"344 589 LINE",
"-16 583 LINE",
"-22 525 LINE",
"338 523 LINE"
);
}
);
width = 538;
},
{
components = (
{
name = h;
}
);
layerId = "090CB6A0-BE7C-4D17-A551-206C7456A8A3";
paths = (
{
closed = 1;
nodes = (
"370.96 603.08 LINE",
"-19.04 591.56 LINE",
"-28.4 509 LINE",
"361.6 506.12 LINE"
);
}
);
width = 558;
}
);
leftKerningGroup = l;
rightKerningGroup = n;
unicode = 0127;
},
{
color = 3;
glyphname = idotless;
layers = (
{
anchors = (
{
name = bottom;
position = "{125, 0}";
},
{
name = ogonek;
position = "{142, 0}";
},
{
name = top;
position = "{125, 409}";
}
);
layerId = "3114FB65-9464-41A5-B67E-A8F9F43C0EF1";
paths = (
{
closed = 1;
nodes = (
"142 0 LINE",
"142 412 LINE",
"108 407 LINE",
"108 0 LINE"
);
}
);
width = 250;
},
{
anchors = (
{
name = bottom;
position = "{133, 0}";
},
{
name = ogonek;
position = "{177, 0}";
},
{
name = top;
position = "{133, 417}";
}
);
layerId = "14EEE41F-D714-4243-A717-73445EE7DABA";
paths = (
{
closed = 1;
nodes = (
"177 0 LINE",
"177 425 LINE",
"89 410 LINE",
"89 0 LINE"
);
}
);
width = 265;
},
{
anchors = (
{
name = bottom;
position = "{145, 0}";
},
{
name = ogonek;
position = "{221, 0}";
},
{
name = top;
position = "{145, 425}";
}
);
layerId = "090CB6A0-BE7C-4D17-A551-206C7456A8A3";
paths = (
{
closed = 1;
nodes = (
"221 0 LINE",
"221 438 LINE",
"66 412 LINE",
"66 0 LINE"
);
}
);
width = 286;
}
);
leftKerningGroup = n;
unicode = 0131;
},
{
color = 3;
glyphname = igrave;
layers = (
{
anchors = (
{
name = top;
position = "{89, 723}";
}
);
components = (
{
name = idotless;
}
);
layerId = "3114FB65-9464-41A5-B67E-A8F9F43C0EF1";
paths = (
{
closed = 1;
nodes = (
"169 512 LINE",
"52 703 LINE",
"13 703 LINE",
"141 512 LINE"
);
}
);
width = 250;
},
{
anchors = (
{
name = top;
position = "{95, 715}";
}
);
components = (
{
name = idotless;
}
);
layerId = "14EEE41F-D714-4243-A717-73445EE7DABA";
paths = (
{
closed = 1;
nodes = (
"192 507 LINE",
"98 708 LINE",
"-1 708 LINE",
"127 507 LINE"
);
}
);
width = 265;
},
{
anchors = (
{
name = top;
position = "{130, 728}";
}
);
components = (
{
name = idotless;
}
);
layerId = "090CB6A0-BE7C-4D17-A551-206C7456A8A3";
paths = (
{
closed = 1;
nodes = (
"229 505 LINE",
"152 711 LINE",
"-16 711 LINE",
"118 505 LINE"
);
}
);
width = 286;
}
);
unicode = 00EC;
},
{
color = 3;
glyphname = iogonek;
layers = (
{
components = (
{
name = idotless;
},
{
name = dotaccentcomb;
transform = "{1, 0, 0, 1, 42, 0}";
}
);
layerId = "3114FB65-9464-41A5-B67E-A8F9F43C0EF1";
paths = (
{
closed = 1;
nodes = (
"172 -289 OFFCURVE",
"199 -279 OFFCURVE",
"224 -258 CURVE",
"212 -238 LINE",
"192 -254 OFFCURVE",
"172 -262 OFFCURVE",
"145 -262 CURVE SMOOTH",
"88 -262 OFFCURVE",
"55 -224 OFFCURVE",
"55 -165 CURVE SMOOTH",
"55 -110 OFFCURVE",
"81 -48 OFFCURVE",
"142 0 CURVE",
"127 14 LINE",
"50 -41 OFFCURVE",
"21 -113 OFFCURVE",
"21 -172 CURVE SMOOTH",
"21 -245 OFFCURVE",
"64 -289 OFFCURVE",
"136 -289 CURVE SMOOTH"
);
}
);
width = 250;
},
{
components = (
{
name = idotless;
},
{
name = dotaccentcomb;
transform = "{1, 0, 0, 1, 40, 0}";
}
);
layerId = "14EEE41F-D714-4243-A717-73445EE7DABA";
paths = (
{
closed = 1;
nodes = (
"189 -289 OFFCURVE",
"223 -278 OFFCURVE",
"254 -257 CURVE",
"231 -210 LINE",
"214 -220 OFFCURVE",
"196 -225 OFFCURVE",
"176 -225 CURVE SMOOTH",
"128 -225 OFFCURVE",
"106 -187 OFFCURVE",
"106 -143 CURVE SMOOTH",
"106 -91 OFFCURVE",
"128 -40 OFFCURVE",
"177 0 CURVE",
"143 30 LINE",
"54 -26 OFFCURVE",
"18 -99 OFFCURVE",
"18 -163 CURVE SMOOTH",
"18 -240 OFFCURVE",
"64 -289 OFFCURVE",
"144 -289 CURVE SMOOTH"
);
}
);
width = 265;
},
{
components = (
{
name = idotless;
},
{
name = dotaccentcomb;
transform = "{1, 0, 0, 1, 38, 0}";
}
);
layerId = "090CB6A0-BE7C-4D17-A551-206C7456A8A3";
paths = (
{
closed = 1;
nodes = (
"219 -289 OFFCURVE",
"260 -274 OFFCURVE",
"297 -248 CURVE",
"268 -185 LINE",
"254 -192 OFFCURVE",
"238 -194 OFFCURVE",
"223 -194 CURVE SMOOTH",
"180 -194 OFFCURVE",
"163 -160 OFFCURVE",
"163 -121 CURVE SMOOTH",
"163 -74 OFFCURVE",
"181 -34 OFFCURVE",
"221 0 CURVE",
"155 31 LINE",
"62 -22 OFFCURVE",
"24 -91 OFFCURVE",
"24 -161 CURVE SMOOTH",
"24 -236 OFFCURVE",
"74 -289 OFFCURVE",
"165 -289 CURVE SMOOTH"
);
}
);
width = 286;
}
);
unicode = 012F;
},
{
color = 3;
glyphname = jdotless;
layers = (
{
anchors = (
{
name = bottom;
position = "{125, 0}";
},
{
name = top;
position = "{125, 409}";
}
);
layerId = "3114FB65-9464-41A5-B67E-A8F9F43C0EF1";
paths = (
{
closed = 1;
nodes = (
"108 -159 OFFCURVE",
"75 -239 OFFCURVE",
"7 -269 CURVE",
"16 -289 LINE",
"103 -258 OFFCURVE",
"142 -171 OFFCURVE",
"142 -19 CURVE SMOOTH",
"142 412 LINE",
"108 407 LINE",
"108 -19 LINE SMOOTH"
);
}
);
width = 250;
},
{
anchors = (
{
name = bottom;
position = "{133, 0}";
},
{
name = top;
position = "{133, 417}";
}
);
layerId = "14EEE41F-D714-4243-A717-73445EE7DABA";
paths = (
{
closed = 1;
nodes = (
"89 -138 OFFCURVE",
"57 -214 OFFCURVE",
"-9 -247 CURVE",
"11 -289 LINE",
"125 -257 OFFCURVE",
"177 -166 OFFCURVE",
"177 -7 CURVE SMOOTH",
"177 425 LINE",
"89 410 LINE",
"89 -7 LINE SMOOTH"
);
}
);
width = 265;
},
{
anchors = (
{
name = bottom;
position = "{145, -116}";
},
{
name = top;
position = "{145, 425}";
}
);
layerId = "090CB6A0-BE7C-4D17-A551-206C7456A8A3";
paths = (
{
closed = 1;
nodes = (
"68 -111 OFFCURVE",
"38 -180 OFFCURVE",
"-25 -219 CURVE",
"9 -289 LINE",
"154 -255 OFFCURVE",
"223 -159 OFFCURVE",
"223 10 CURVE SMOOTH",
"223 438 LINE",
"68 412 LINE",
"68 10 LINE SMOOTH"
);
}
);
width = 288;
}
);
rightMetricsKey = idotless;
unicode = 0237;
},
{
color = 3;
glyphname = k;
layers = (
{
anchors = (
{
name = bottom;
position = "{228, 0}";
},
{
name = top;
position = "{111, 711}";
}
);
layerId = "3114FB65-9464-41A5-B67E-A8F9F43C0EF1";
paths = (
{
closed = 1;
nodes = (
"411 0 LINE",
"411 2 LINE",
"144 230 LINE",
"140 205 LINE",
"394 408 LINE",
"394 410 LINE",
"347 410 LINE",
"116 216 LINE",
"116 202 LINE",
"131 202 LINE",
"360 0 LINE"
);
},
{
closed = 1;
nodes = (
"124 0 LINE",
"124 713 LINE",
"90 709 LINE",
"90 0 LINE"
);
}
);
width = 422;
},
{
anchors = (
{
name = bottom;
position = "{250, 0}";
},
{
name = top;
position = "{130, 711}";
}
);
layerId = "14EEE41F-D714-4243-A717-73445EE7DABA";
paths = (
{
closed = 1;
nodes = (
"466 0 LINE",
"466 2 LINE",
"221 259 LINE",
"210 200 LINE",
"449 415 LINE",
"449 417 LINE",
"336 417 LINE",
"156 223 LINE",
"156 202 LINE",
"173 202 LINE",
"346 0 LINE"
);
},
{
closed = 1;
nodes = (
"166 0 LINE",
"166 718 LINE",
"80 703 LINE",
"80 0 LINE"
);
}
);
width = 467;
},
{
anchors = (
{
name = bottom;
position = "{290, 0}";
},
{
name = top;
position = "{146, 706}";
}
);
layerId = "090CB6A0-BE7C-4D17-A551-206C7456A8A3";
paths = (
{
closed = 1;
nodes = (
"545 0 LINE",
"545 2 LINE",
"321 295 LINE",
"312 191 LINE",
"531 423 LINE",
"531 425 LINE",
"343 425 LINE",
"209 232 LINE",
"209 205 LINE",
"225 205 LINE",
"354 0 LINE"
);
},
{
closed = 1;
nodes = (
"216 0 LINE",
"216 723 LINE",
"65 698 LINE",
"65 0 LINE"
);
}
);
width = 547;
}
);
leftKerningGroup = l;
leftMetricsKey = h;
rightKerningGroup = k;
unicode = 006B;
},
{
color = 3;
glyphname = l;
layers = (
{
anchors = (
{
name = bottom;
position = "{119, 0}";
},
{
name = center;
position = "{117, 340}";
},
{
name = top;
position = "{119, 711}";
},
{
name = topright;
position = "{264, 762}";
}
);
layerId = "3114FB65-9464-41A5-B67E-A8F9F43C0EF1";
paths = (
{
closed = 1;
nodes = (
"133 0 LINE",
"133 713 LINE",
"98 709 LINE",
"98 0 LINE"
);
}
);
width = 230;
},
{
anchors = (
{
name = bottom;
position = "{133, 0}";
},
{
name = center;
position = "{127, 343}";
},
{
name = top;
position = "{133, 711}";
},
{
name = topright;
position = "{319, 763}";
}
);
layerId = "14EEE41F-D714-4243-A717-73445EE7DABA";
paths = (
{
closed = 1;
nodes = (
"170 0 LINE",
"170 718 LINE",
"83 703 LINE",
"83 0 LINE"
);
}
);
width = 251;
},
{
anchors = (
{
name = bottom;
position = "{148, 0}";
},
{
name = center;
position = "{140, 344}";
},
{
name = top;
position = "{145, 707}";
},
{
name = topright;
position = "{390, 742}";
}
);
layerId = "090CB6A0-BE7C-4D17-A551-206C7456A8A3";
paths = (
{
closed = 1;
nodes = (
"215 0 LINE",
"215 723 LINE",
"65 697 LINE",
"65 0 LINE"
);
}
);
width = 279;
}
);
leftKerningGroup = l;
rightKerningGroup = l;
unicode = 006C;
},
{
color = 3;
glyphname = lslash;
layers = (
{
components = (
{
alignment = 1;
name = l;
transform = "{1, 0, 0, 1, 20, 0}";
}
);
layerId = "3114FB65-9464-41A5-B67E-A8F9F43C0EF1";
leftMetricsKey = "=+20po";
rightMetricsKey = "=+20";
paths = (
{
closed = 1;
nodes = (
"240 386 LINE",
"240 415 LINE",
"38 296 LINE",
"37 266 LINE"
);
}
);
width = 260;
},
{
components = (
{
alignment = 1;
name = l;
transform = "{1, 0, 0, 1, 20, 0}";
}
);
layerId = "14EEE41F-D714-4243-A717-73445EE7DABA";
leftMetricsKey = "=+20po";
rightMetricsKey = "=+20";
paths = (
{
closed = 1;
nodes = (
"267 381 LINE",
"267 451 LINE",
"34 310 LINE",
"33 240 LINE"
);
}
);
width = 287;
},
{
components = (
{
alignment = 1;
name = l;
transform = "{1, 0, 0, 1, 20, 0}";
}
);
layerId = "090CB6A0-BE7C-4D17-A551-206C7456A8A3";
leftMetricsKey = "=+20po";
rightMetricsKey = "=+20";
paths = (
{
closed = 1;
nodes = (
"306 368 LINE",
"306 481 LINE",
"19 324 LINE",
"19 211 LINE"
);
}
);
width = 326;
}
);
leftKerningGroup = l;
leftMetricsKey = "=+20";
rightKerningGroup = l;
rightMetricsKey = "=+20";
unicode = 0142;
},
{
color = 3;
glyphname = m;
layers = (
{
anchors = (
{
name = bottom;
position = "{403, 0}";
},
{
name = top;
position = "{403, 410}";
}
);
layerId = "3114FB65-9464-41A5-B67E-A8F9F43C0EF1";
paths = (
{
closed = 1;
nodes = (
"718 0 LINE",
"718 255 LINE SMOOTH",
"718 355 OFFCURVE",
"670 414 OFFCURVE",
"588 414 CURVE SMOOTH",
"513 414 OFFCURVE",
"432 370 OFFCURVE",
"399 287 CURVE",
"412 270 LINE",
"445 346 OFFCURVE",
"512 386 OFFCURVE",
"575 386 CURVE SMOOTH",
"646 386 OFFCURVE",
"683 335 OFFCURVE",
"683 248 CURVE SMOOTH",
"683 0 LINE"
);
},
{
closed = 1;
nodes = (
"422 0 LINE",
"422 255 LINE SMOOTH",
"422 355 OFFCURVE",
"372 414 OFFCURVE",
"290 414 CURVE SMOOTH",
"223 414 OFFCURVE",
"135 377 OFFCURVE",
"100 284 CURVE",
"115 270 LINE",
"150 353 OFFCURVE",
"222 386 OFFCURVE",
"278 386 CURVE SMOOTH",
"348 386 OFFCURVE",
"387 335 OFFCURVE",
"387 248 CURVE SMOOTH",
"387 0 LINE"
);
},
{
closed = 1;
nodes = (
"123 0 LINE",
"123 306 LINE",
"118 412 LINE",
"88 407 LINE",
"88 0 LINE"
);
}
);
width = 805;
},
{
anchors = (
{
name = bottom;
position = "{395, 0}";
},
{
name = top;
position = "{395, 417}";
}
);
layerId = "14EEE41F-D714-4243-A717-73445EE7DABA";
paths = (
{
closed = 1;
nodes = (
"717 0 LINE",
"717 268 LINE SMOOTH",
"717 365 OFFCURVE",
"661 423 OFFCURVE",
"583 423 CURVE SMOOTH",
"509 423 OFFCURVE",
"435 381 OFFCURVE",
"388 294 CURVE",
"417 271 LINE",
"446 330 OFFCURVE",
"500 358 OFFCURVE",
"544 358 CURVE SMOOTH",
"600 358 OFFCURVE",
"629 315 OFFCURVE",
"629 245 CURVE SMOOTH",
"629 0 LINE"
);
},
{
closed = 1;
nodes = (
"441 0 LINE",
"441 268 LINE SMOOTH",
"441 365 OFFCURVE",
"383 423 OFFCURVE",
"305 423 CURVE SMOOTH",
"231 423 OFFCURVE",
"155 381 OFFCURVE",
"108 294 CURVE",
"136 271 LINE",
"166 330 OFFCURVE",
"222 358 OFFCURVE",
"268 358 CURVE SMOOTH",
"322 358 OFFCURVE",
"353 315 OFFCURVE",
"353 245 CURVE SMOOTH",
"353 0 LINE"
);
},
{
closed = 1;
nodes = (
"160 0 LINE",
"160 332 LINE",
"144 425 LINE",
"72 409 LINE",
"72 0 LINE"
);
}
);
width = 789;
},
{
anchors = (
{
name = bottom;
position = "{405, 0}";
},
{
name = top;
position = "{405, 425}";
}
);
layerId = "090CB6A0-BE7C-4D17-A551-206C7456A8A3";
paths = (
{
closed = 1;
nodes = (
"755 0 LINE",
"755 283 LINE SMOOTH",
"755 375 OFFCURVE",
"693 433 OFFCURVE",
"612 433 CURVE SMOOTH",
"539 433 OFFCURVE",
"481 394 OFFCURVE",
"424 330 CURVE",
"461 283 LINE",
"479 313 OFFCURVE",
"515 330 OFFCURVE",
"543 330 CURVE SMOOTH",
"582 330 OFFCURVE",
"601 298 OFFCURVE",
"601 250 CURVE SMOOTH",
"601 0 LINE"
);
},
{
closed = 1;
nodes = (
"484 0 LINE",
"484 283 LINE SMOOTH",
"484 375 OFFCURVE",
"421 433 OFFCURVE",
"341 433 CURVE SMOOTH",
"267 433 OFFCURVE",
"207 394 OFFCURVE",
"150 330 CURVE",
"186 283 LINE",
"205 313 OFFCURVE",
"242 330 OFFCURVE",
"272 330 CURVE SMOOTH",
"310 330 OFFCURVE",
"329 298 OFFCURVE",
"329 250 CURVE SMOOTH",
"329 0 LINE"
);
},
{
closed = 1;
nodes = (
"207 0 LINE",
"207 351 LINE",
"178 437 LINE",
"53 414 LINE",
"53 0 LINE"
);
}
);
width = 808;
}
);
leftKerningGroup = n;
leftMetricsKey = n;
rightKerningGroup = n;
rightMetricsKey = n;
unicode = 006D;
},
{
color = 3;
glyphname = n;
layers = (
{
anchors = (
{
name = bottom;
position = "{265, 0}";
},
{
name = top;
position = "{265, 406}";
}
);
layerId = "3114FB65-9464-41A5-B67E-A8F9F43C0EF1";
paths = (
{
closed = 1;
nodes = (
"439 0 LINE",
"439 255 LINE SMOOTH",
"439 355 OFFCURVE",
"385 414 OFFCURVE",
"298 414 CURVE SMOOTH",
"230 414 OFFCURVE",
"138 378 OFFCURVE",
"100 284 CURVE",
"115 270 LINE",
"152 353 OFFCURVE",
"227 386 OFFCURVE",
"287 386 CURVE SMOOTH",
"362 386 OFFCURVE",
"404 335 OFFCURVE",
"404 245 CURVE SMOOTH",
"404 0 LINE"
);
},
{
closed = 1;
nodes = (
"123 0 LINE",
"123 304 LINE",
"118 412 LINE",
"88 407 LINE",
"88 0 LINE"
);
}
);
width = 526;
},
{
anchors = (
{
name = bottom;
position = "{260, 0}";
},
{
name = top;
position = "{260, 415}";
}
);
layerId = "14EEE41F-D714-4243-A717-73445EE7DABA";
paths = (
{
closed = 1;
nodes = (
"460 0 LINE",
"460 268 LINE SMOOTH",
"460 365 OFFCURVE",
"398 423 OFFCURVE",
"313 423 CURVE SMOOTH",
"237 423 OFFCURVE",
"157 382 OFFCURVE",
"108 294 CURVE",
"136 271 LINE",
"168 330 OFFCURVE",
"226 358 OFFCURVE",
"277 358 CURVE SMOOTH",
"338 358 OFFCURVE",
"373 313 OFFCURVE",
"373 237 CURVE SMOOTH",
"373 0 LINE"
);
},
{
closed = 1;
nodes = (
"160 0 LINE",
"160 331 LINE",
"144 425 LINE",
"72 409 LINE",
"72 0 LINE"
);
}
);
width = 532;
},
{
anchors = (
{
name = bottom;
position = "{268, 0}";
},
{
name = top;
position = "{267, 425}";
}
);
layerId = "090CB6A0-BE7C-4D17-A551-206C7456A8A3";
paths = (
{
closed = 1;
nodes = (
"496 0 LINE",
"496 283 LINE SMOOTH",
"496 375 OFFCURVE",
"431 433 OFFCURVE",
"346 433 CURVE SMOOTH",
"270 433 OFFCURVE",
"208 394 OFFCURVE",
"150 330 CURVE",
"188 283 LINE",
"207 313 OFFCURVE",
"245 330 OFFCURVE",
"277 330 CURVE SMOOTH",
"320 330 OFFCURVE",
"342 296 OFFCURVE",
"342 244 CURVE SMOOTH",
"342 0 LINE"
);
},
{
closed = 1;
nodes = (
"207 0 LINE",
"207 351 LINE",
"178 437 LINE",
"53 414 LINE",
"53 0 LINE"
);
}
);
width = 549;
}
);
leftKerningGroup = n;
rightKerningGroup = n;
unicode = 006E;
},
{
color = 3;
glyphname = eng;
layers = (
{
anchors = (
{
name = bottom;
position = "{279, -11}";
},
{
name = top;
position = "{278, 410}";
}
);
layerId = "3114FB65-9464-41A5-B67E-A8F9F43C0EF1";
paths = (
{
closed = 1;
nodes = (
"399 -260 OFFCURVE",
"439 -174 OFFCURVE",
"439 -19 CURVE SMOOTH",
"439 255 LINE SMOOTH",
"439 355 OFFCURVE",
"385 414 OFFCURVE",
"298 414 CURVE SMOOTH",
"230 414 OFFCURVE",
"138 378 OFFCURVE",
"100 284 CURVE",
"115 270 LINE",
"152 353 OFFCURVE",
"227 386 OFFCURVE",
"287 386 CURVE SMOOTH",
"362 386 OFFCURVE",
"404 335 OFFCURVE",
"404 245 CURVE SMOOTH",
"404 -19 LINE SMOOTH",
"404 -161 OFFCURVE",
"372 -242 OFFCURVE",
"303 -272 CURVE",
"312 -292 LINE"
);
},
{
closed = 1;
nodes = (
"123 0 LINE",
"123 304 LINE",
"118 412 LINE",
"88 407 LINE",
"88 0 LINE"
);
}
);
width = 526;
},
{
anchors = (
{
name = bottom;
position = "{284, -13}";
},
{
name = top;
position = "{283, 417}";
}
);
layerId = "14EEE41F-D714-4243-A717-73445EE7DABA";
paths = (
{
closed = 1;
nodes = (
"408 -257 OFFCURVE",
"460 -167 OFFCURVE",
"460 -6 CURVE SMOOTH",
"460 268 LINE SMOOTH",
"460 365 OFFCURVE",
"398 423 OFFCURVE",
"313 423 CURVE SMOOTH",
"237 423 OFFCURVE",
"157 382 OFFCURVE",
"108 294 CURVE",
"136 271 LINE",
"168 330 OFFCURVE",
"226 358 OFFCURVE",
"277 358 CURVE SMOOTH",
"338 358 OFFCURVE",
"373 313 OFFCURVE",
"373 237 CURVE SMOOTH",
"373 -6 LINE SMOOTH",
"373 -139 OFFCURVE",
"341 -215 OFFCURVE",
"275 -248 CURVE",
"295 -290 LINE"
);
},
{
closed = 1;
nodes = (
"160 0 LINE",
"160 331 LINE",
"144 425 LINE",
"72 409 LINE",
"72 0 LINE"
);
}
);
width = 532;
},
{
anchors = (
{
name = bottom;
position = "{284, -5}";
},
{
name = top;
position = "{283, 425}";
}
);
layerId = "090CB6A0-BE7C-4D17-A551-206C7456A8A3";
paths = (
{
closed = 1;
nodes = (
"429 -255 OFFCURVE",
"496 -159 OFFCURVE",
"496 10 CURVE SMOOTH",
"496 283 LINE SMOOTH",
"496 375 OFFCURVE",
"431 433 OFFCURVE",
"346 433 CURVE SMOOTH",
"270 433 OFFCURVE",
"208 394 OFFCURVE",
"150 330 CURVE",
"186 283 LINE",
"207 313 OFFCURVE",
"245 330 OFFCURVE",
"277 330 CURVE SMOOTH",
"320 330 OFFCURVE",
"342 296 OFFCURVE",
"342 244 CURVE SMOOTH",
"342 10 LINE SMOOTH",
"342 -111 OFFCURVE",
"312 -180 OFFCURVE",
"249 -219 CURVE",
"284 -289 LINE"
);
},
{
closed = 1;
nodes = (
"207 0 LINE",
"207 351 LINE",
"178 437 LINE",
"53 414 LINE",
"53 0 LINE"
);
}
);
width = 549;
}
);
leftKerningGroup = n;
leftMetricsKey = n;
rightKerningGroup = n;
unicode = 014B;
},
{
color = 3;
glyphname = o;
layers = (
{
anchors = (
{
name = bottom;
position = "{255, 0}";
},
{
name = center;
position = "{255, 203}";
},
{
name = ogonek;
position = "{283, 0}";
},
{
name = top;
position = "{258, 409}";
},
{
name = topright;
position = "{374, 364}";
}
);
layerId = "3114FB65-9464-41A5-B67E-A8F9F43C0EF1";
paths = (
{
closed = 1;
nodes = (
"373 -5 OFFCURVE",
"463 85 OFFCURVE",
"463 209 CURVE SMOOTH",
"463 328 OFFCURVE",
"377 415 OFFCURVE",
"261 415 CURVE SMOOTH",
"137 415 OFFCURVE",
"46 325 OFFCURVE",
"46 201 CURVE SMOOTH",
"46 82 OFFCURVE",
"132 -5 OFFCURVE",
"250 -5 CURVE SMOOTH"
);
},
{
closed = 1;
nodes = (
"156 21 OFFCURVE",
"83 96 OFFCURVE",
"83 205 CURVE SMOOTH",
"83 310 OFFCURVE",
"154 389 OFFCURVE",
"257 389 CURVE SMOOTH",
"355 389 OFFCURVE",
"427 314 OFFCURVE",
"427 206 CURVE SMOOTH",
"427 102 OFFCURVE",
"357 21 OFFCURVE",
"253 21 CURVE SMOOTH"
);
}
);
width = 509;
},
{
anchors = (
{
name = bottom;
position = "{263, 0}";
},
{
name = center;
position = "{263, 203}";
},
{
name = ogonek;
position = "{302, 0}";
},
{
name = top;
position = "{270, 417}";
},
{
name = topright;
position = "{392, 343}";
}
);
layerId = "14EEE41F-D714-4243-A717-73445EE7DABA";
paths = (
{
closed = 1;
nodes = (
"389 -10 OFFCURVE",
"486 84 OFFCURVE",
"486 216 CURVE SMOOTH",
"486 338 OFFCURVE",
"395 427 OFFCURVE",
"271 427 CURVE SMOOTH",
"138 427 OFFCURVE",
"39 333 OFFCURVE",
"39 202 CURVE SMOOTH",
"39 79 OFFCURVE",
"130 -10 OFFCURVE",
"255 -10 CURVE SMOOTH"
);
},
{
closed = 1;
nodes = (
"193 51 OFFCURVE",
"133 112 OFFCURVE",
"133 213 CURVE SMOOTH",
"133 297 OFFCURVE",
"178 366 OFFCURVE",
"259 366 CURVE SMOOTH",
"334 366 OFFCURVE",
"392 306 OFFCURVE",
"392 206 CURVE SMOOTH",
"392 124 OFFCURVE",
"349 51 OFFCURVE",
"267 51 CURVE SMOOTH"
);
}
);
width = 525;
},
{
anchors = (
{
name = bottom;
position = "{272, 0}";
},
{
name = center;
position = "{273, 203}";
},
{
name = ogonek;
position = "{327, 1}";
},
{
name = top;
position = "{284, 425}";
},
{
name = topright;
position = "{389, 319}";
}
);
layerId = "090CB6A0-BE7C-4D17-A551-206C7456A8A3";
paths = (
{
closed = 1;
nodes = (
"409 -15 OFFCURVE",
"516 86 OFFCURVE",
"516 222 CURVE SMOOTH",
"516 349 OFFCURVE",
"419 440 OFFCURVE",
"285 440 CURVE SMOOTH",
"139 440 OFFCURVE",
"31 342 OFFCURVE",
"31 204 CURVE SMOOTH",
"31 77 OFFCURVE",
"127 -15 OFFCURVE",
"263 -15 CURVE SMOOTH"
);
},
{
closed = 1;
nodes = (
"229 85 OFFCURVE",
"194 125 OFFCURVE",
"194 216 CURVE SMOOTH",
"194 292 OFFCURVE",
"216 339 OFFCURVE",
"270 339 CURVE SMOOTH",
"322 339 OFFCURVE",
"355 299 OFFCURVE",
"355 209 CURVE SMOOTH",
"355 134 OFFCURVE",
"335 85 OFFCURVE",
"280 85 CURVE SMOOTH"
);
}
);
width = 546;
}
);
leftKerningGroup = o;
rightKerningGroup = o;
unicode = 006F;
},
{
color = 3;
glyphname = oslash;
layers = (
{
anchors = (
{
name = bottom;
position = "{255, 0}";
},
{
name = center;
position = "{255, 203}";
},
{
name = ogonek;
position = "{283, 0}";
},
{
name = top;
position = "{257, 409}";
},
{
name = topright;
position = "{374, 364}";
}
);
layerId = "3114FB65-9464-41A5-B67E-A8F9F43C0EF1";
paths = (
{
closed = 1;
nodes = (
"373 -5 OFFCURVE",
"463 85 OFFCURVE",
"463 209 CURVE SMOOTH",
"463 328 OFFCURVE",
"377 415 OFFCURVE",
"261 415 CURVE SMOOTH",
"137 415 OFFCURVE",
"46 325 OFFCURVE",
"46 201 CURVE SMOOTH",
"46 82 OFFCURVE",
"132 -5 OFFCURVE",
"250 -5 CURVE SMOOTH"
);
},
{
closed = 1;
nodes = (
"154 20 OFFCURVE",
"80 96 OFFCURVE",
"80 205 CURVE SMOOTH",
"80 310 OFFCURVE",
"152 389 OFFCURVE",
"257 389 CURVE SMOOTH",
"356 389 OFFCURVE",
"429 314 OFFCURVE",
"429 206 CURVE SMOOTH",
"429 102 OFFCURVE",
"358 20 OFFCURVE",
"253 20 CURVE SMOOTH"
);
},
{
closed = 1;
nodes = (
"467 419 LINE",
"446 437 LINE",
"45 -13 LINE",
"65 -30 LINE"
);
}
);
width = 509;
},
{
anchors = (
{
name = bottom;
position = "{263, 0}";
},
{
name = center;
position = "{263, 203}";
},
{
name = ogonek;
position = "{302, 0}";
},
{
name = top;
position = "{267, 417}";
},
{
name = topright;
position = "{392, 343}";
}
);
layerId = "14EEE41F-D714-4243-A717-73445EE7DABA";
paths = (
{
closed = 1;
nodes = (
"389 -10 OFFCURVE",
"486 85 OFFCURVE",
"486 216 CURVE SMOOTH",
"486 338 OFFCURVE",
"395 427 OFFCURVE",
"271 427 CURVE SMOOTH",
"138 427 OFFCURVE",
"39 333 OFFCURVE",
"39 202 CURVE SMOOTH",
"39 80 OFFCURVE",
"130 -10 OFFCURVE",
"255 -10 CURVE SMOOTH"
);
},
{
closed = 1;
nodes = (
"189 50 OFFCURVE",
"126 112 OFFCURVE",
"126 213 CURVE SMOOTH",
"126 297 OFFCURVE",
"173 367 OFFCURVE",
"259 367 CURVE SMOOTH",
"338 367 OFFCURVE",
"400 306 OFFCURVE",
"400 206 CURVE SMOOTH",
"400 124 OFFCURVE",
"354 50 OFFCURVE",
"267 50 CURVE SMOOTH"
);
},
{
closed = 1;
nodes = (
"494 416 LINE",
"445 457 LINE",
"35 -3 LINE",
"83 -44 LINE"
);
}
);
width = 525;
},
{
anchors = (
{
name = bottom;
position = "{274, 0}";
},
{
name = center;
position = "{275, 203}";
},
{
name = ogonek;
position = "{329, 1}";
},
{
name = top;
position = "{284, 425}";
},
{
name = topright;
position = "{391, 319}";
}
);
layerId = "090CB6A0-BE7C-4D17-A551-206C7456A8A3";
paths = (
{
closed = 1;
nodes = (
"412 -15 OFFCURVE",
"520 87 OFFCURVE",
"520 222 CURVE SMOOTH",
"520 349 OFFCURVE",
"422 440 OFFCURVE",
"287 440 CURVE SMOOTH",
"140 440 OFFCURVE",
"31 341 OFFCURVE",
"31 204 CURVE SMOOTH",
"31 77 OFFCURVE",
"128 -15 OFFCURVE",
"265 -15 CURVE SMOOTH"
);
},
{
closed = 1;
nodes = (
"225 78 OFFCURVE",
"173 131 OFFCURVE",
"173 220 CURVE SMOOTH",
"173 286 OFFCURVE",
"203 345 OFFCURVE",
"270 345 CURVE SMOOTH",
"331 345 OFFCURVE",
"381 295 OFFCURVE",
"381 209 CURVE SMOOTH",
"381 143 OFFCURVE",
"352 78 OFFCURVE",
"285 78 CURVE SMOOTH"
);
},
{
closed = 1;
nodes = (
"524 417 LINE",
"454 476 LINE",
"31 3 LINE",
"100 -56 LINE"
);
}
);
width = 550;
}
);
leftKerningGroup = o;
rightKerningGroup = o;
unicode = 00F8;
},
{
color = 3;
glyphname = oe;
layers = (
{
anchors = (
{
name = bottom;
position = "{396, 0}";
},
{
name = top;
position = "{396, 409}";
}
);
layerId = "3114FB65-9464-41A5-B67E-A8F9F43C0EF1";
paths = (
{
closed = 1;
nodes = (
"348 -5 OFFCURVE",
"424 81 OFFCURVE",
"424 199 CURVE SMOOTH",
"424 324 OFFCURVE",
"354 415 OFFCURVE",
"244 415 CURVE SMOOTH",
"133 415 OFFCURVE",
"46 326 OFFCURVE",
"46 201 CURVE SMOOTH",
"46 82 OFFCURVE",
"127 -5 OFFCURVE",
"237 -5 CURVE SMOOTH"
);
},
{
closed = 1;
nodes = (
"151 21 OFFCURVE",
"82 96 OFFCURVE",
"82 204 CURVE SMOOTH",
"82 310 OFFCURVE",
"150 388 OFFCURVE",
"241 388 CURVE SMOOTH",
"333 388 OFFCURVE",
"395 310 OFFCURVE",
"395 197 CURVE SMOOTH",
"395 98 OFFCURVE",
"333 21 OFFCURVE",
"241 21 CURVE SMOOTH"
);
},
{
closed = 1;
nodes = (
"634 -5 OFFCURVE",
"683 12 OFFCURVE",
"731 57 CURVE",
"717 77 LINE",
"676 39 OFFCURVE",
"632 22 OFFCURVE",
"586 22 CURVE SMOOTH",
"491 22 OFFCURVE",
"427 93 OFFCURVE",
"427 199 CURVE SMOOTH",
"427 315 OFFCURVE",
"497 389 OFFCURVE",
"594 389 CURVE SMOOTH",
"662 389 OFFCURVE",
"699 353 OFFCURVE",
"699 280 CURVE SMOOTH",
"699 260 LINE",
"728 260 LINE",
"730 267 OFFCURVE",
"730 274 OFFCURVE",
"730 281 CURVE SMOOTH",
"730 362 OFFCURVE",
"687 415 OFFCURVE",
"597 415 CURVE SMOOTH",
"482 415 OFFCURVE",
"397 327 OFFCURVE",
"397 197 CURVE SMOOTH",
"397 74 OFFCURVE",
"472 -5 OFFCURVE",
"582 -5 CURVE SMOOTH"
);
},
{
closed = 1;
nodes = (
"722 260 LINE",
"722 284 LINE",
"424 284 LINE",
"419 260 LINE"
);
}
);
width = 781;
},
{
anchors = (
{
name = bottom;
position = "{390, 0}";
},
{
name = top;
position = "{390, 417}";
}
);
layerId = "14EEE41F-D714-4243-A717-73445EE7DABA";
paths = (
{
closed = 1;
nodes = (
"358 -10 OFFCURVE",
"429 82 OFFCURVE",
"429 205 CURVE SMOOTH",
"429 332 OFFCURVE",
"367 427 OFFCURVE",
"249 427 CURVE SMOOTH",
"130 427 OFFCURVE",
"39 336 OFFCURVE",
"39 204 CURVE SMOOTH",
"39 77 OFFCURVE",
"124 -10 OFFCURVE",
"240 -10 CURVE SMOOTH"
);
},
{
closed = 1;
nodes = (
"186 53 OFFCURVE",
"130 112 OFFCURVE",
"130 212 CURVE SMOOTH",
"130 298 OFFCURVE",
"172 364 OFFCURVE",
"242 364 CURVE SMOOTH",
"312 364 OFFCURVE",
"361 301 OFFCURVE",
"361 200 CURVE SMOOTH",
"361 123 OFFCURVE",
"326 53 OFFCURVE",
"253 53 CURVE SMOOTH"
);
},
{
closed = 1;
nodes = (
"607 -10 OFFCURVE",
"665 6 OFFCURVE",
"718 58 CURVE",
"688 104 LINE",
"650 72 OFFCURVE",
"608 56 OFFCURVE",
"567 56 CURVE SMOOTH",
"488 56 OFFCURVE",
"439 117 OFFCURVE",
"439 207 CURVE SMOOTH",
"439 308 OFFCURVE",
"489 366 OFFCURVE",
"560 366 CURVE SMOOTH",
"617 366 OFFCURVE",
"643 328 OFFCURVE",
"643 264 CURVE SMOOTH",
"643 221 LINE",
"715 221 LINE",
"718 236 OFFCURVE",
"718 250 OFFCURVE",
"718 266 CURVE SMOOTH",
"718 364 OFFCURVE",
"667 427 OFFCURVE",
"570 427 CURVE SMOOTH",
"454 427 OFFCURVE",
"368 335 OFFCURVE",
"368 200 CURVE SMOOTH",
"368 70 OFFCURVE",
"443 -10 OFFCURVE",
"556 -10 CURVE SMOOTH"
);
},
{
closed = 1;
nodes = (
"704 221 LINE",
"704 274 LINE",
"409 274 LINE",
"398 221 LINE"
);
}
);
width = 761;
},
{
anchors = (
{
name = bottom;
position = "{396, 0}";
},
{
name = top;
position = "{396, 425}";
}
);
layerId = "090CB6A0-BE7C-4D17-A551-206C7456A8A3";
paths = (
{
closed = 1;
nodes = (
"376 -15 OFFCURVE",
"457 84 OFFCURVE",
"457 216 CURVE SMOOTH",
"457 345 OFFCURVE",
"386 440 OFFCURVE",
"262 440 CURVE SMOOTH",
"130 440 OFFCURVE",
"31 343 OFFCURVE",
"31 205 CURVE SMOOTH",
"31 74 OFFCURVE",
"122 -15 OFFCURVE",
"250 -15 CURVE SMOOTH"
);
},
{
closed = 1;
nodes = (
"225 87 OFFCURVE",
"191 125 OFFCURVE",
"191 216 CURVE SMOOTH",
"191 294 OFFCURVE",
"212 337 OFFCURVE",
"260 337 CURVE SMOOTH",
"309 337 OFFCURVE",
"337 296 OFFCURVE",
"337 206 CURVE SMOOTH",
"337 134 OFFCURVE",
"322 87 OFFCURVE",
"271 87 CURVE SMOOTH"
);
},
{
closed = 1;
nodes = (
"603 -14 OFFCURVE",
"680 1 OFFCURVE",
"741 60 CURVE",
"698 131 LINE",
"663 108 OFFCURVE",
"623 94 OFFCURVE",
"585 94 CURVE SMOOTH",
"510 94 OFFCURVE",
"473 140 OFFCURVE",
"473 221 CURVE SMOOTH",
"473 301 OFFCURVE",
"504 349 OFFCURVE",
"556 349 CURVE SMOOTH",
"598 349 OFFCURVE",
"617 315 OFFCURVE",
"617 258 CURVE SMOOTH",
"617 196 LINE",
"737 196 LINE",
"741 222 OFFCURVE",
"741 244 OFFCURVE",
"741 270 CURVE SMOOTH",
"741 373 OFFCURVE",
"676 440 OFFCURVE",
"568 440 CURVE SMOOTH",
"433 440 OFFCURVE",
"350 341 OFFCURVE",
"350 199 CURVE SMOOTH",
"350 63 OFFCURVE",
"429 -14 OFFCURVE",
"550 -14 CURVE SMOOTH"
);
},
{
closed = 1;
nodes = (
"729 196 LINE",
"729 273 LINE",
"418 273 LINE",
"401 196 LINE"
);
}
);
width = 775;
}
);
leftKerningGroup = o;
leftMetricsKey = o;
rightKerningGroup = c;
rightMetricsKey = e;
unicode = 0153;
},
{
color = 3;
glyphname = p;
layers = (
{
anchors = (
{
name = bottom;
position = "{261, 0}";
},
{
name = top;
position = "{261, 410}";
}
);
layerId = "3114FB65-9464-41A5-B67E-A8F9F43C0EF1";
paths = (
{
closed = 1;
nodes = (
"386 -4 OFFCURVE",
"476 87 OFFCURVE",
"476 213 CURVE SMOOTH",
"476 328 OFFCURVE",
"401 413 OFFCURVE",
"286 413 CURVE SMOOTH",
"209 413 OFFCURVE",
"146 376 OFFCURVE",
"102 301 CURVE",
"119 287 LINE",
"161 359 OFFCURVE",
"220 386 OFFCURVE",
"280 386 CURVE SMOOTH",
"376 386 OFFCURVE",
"439 310 OFFCURVE",
"439 209 CURVE SMOOTH",
"439 99 OFFCURVE",
"365 22 OFFCURVE",
"263 22 CURVE SMOOTH",
"199 22 OFFCURVE",
"149 51 OFFCURVE",
"117 107 CURVE",
"106 88 LINE",
"138 26 OFFCURVE",
"197 -4 OFFCURVE",
"266 -4 CURVE SMOOTH"
);
},
{
closed = 1;
nodes = (
"122 -285 LINE",
"122 315 LINE",
"117 412 LINE",
"88 407 LINE",
"88 -289 LINE"
);
}
);
width = 522;
},
{
anchors = (
{
name = bottom;
position = "{265, 0}";
},
{
name = top;
position = "{265, 417}";
}
);
layerId = "14EEE41F-D714-4243-A717-73445EE7DABA";
paths = (
{
closed = 1;
nodes = (
"397 -6 OFFCURVE",
"492 90 OFFCURVE",
"492 220 CURVE SMOOTH",
"492 337 OFFCURVE",
"417 423 OFFCURVE",
"300 423 CURVE SMOOTH",
"221 423 OFFCURVE",
"163 384 OFFCURVE",
"118 303 CURVE",
"150 281 LINE",
"185 340 OFFCURVE",
"234 361 OFFCURVE",
"278 361 CURVE SMOOTH",
"353 361 OFFCURVE",
"398 294 OFFCURVE",
"398 210 CURVE SMOOTH",
"398 116 OFFCURVE",
"345 55 OFFCURVE",
"264 55 CURVE SMOOTH",
"216 55 OFFCURVE",
"174 77 OFFCURVE",
"149 122 CURVE",
"127 91 LINE",
"152 29 OFFCURVE",
"206 -6 OFFCURVE",
"277 -6 CURVE SMOOTH"
);
},
{
closed = 1;
nodes = (
"159 -274 LINE",
"159 335 LINE",
"143 425 LINE",
"72 409 LINE",
"72 -289 LINE"
);
}
);
width = 531;
},
{
anchors = (
{
name = bottom;
position = "{271, 0}";
},
{
name = top;
position = "{276, 425}";
}
);
layerId = "090CB6A0-BE7C-4D17-A551-206C7456A8A3";
paths = (
{
closed = 1;
nodes = (
"417 -9 OFFCURVE",
"521 94 OFFCURVE",
"521 232 CURVE SMOOTH",
"521 348 OFFCURVE",
"448 436 OFFCURVE",
"329 436 CURVE SMOOTH",
"251 436 OFFCURVE",
"197 397 OFFCURVE",
"147 314 CURVE",
"191 275 LINE",
"216 315 OFFCURVE",
"249 330 OFFCURVE",
"280 330 CURVE SMOOTH",
"333 330 OFFCURVE",
"360 282 OFFCURVE",
"360 212 CURVE SMOOTH",
"360 134 OFFCURVE",
"328 89 OFFCURVE",
"271 89 CURVE SMOOTH",
"241 89 OFFCURVE",
"212 102 OFFCURVE",
"194 131 CURVE",
"162 70 LINE",
"185 22 OFFCURVE",
"230 -9 OFFCURVE",
"294 -9 CURVE SMOOTH"
);
},
{
closed = 1;
nodes = (
"206 -263 LINE",
"206 351 LINE",
"177 437 LINE",
"54 414 LINE",
"54 -289 LINE"
);
}
);
width = 551;
}
);
leftKerningGroup = n;
rightKerningGroup = o;
rightMetricsKey = o;
unicode = 0070;
},
{
color = 3;
glyphname = thorn;
layers = (
{
anchors = (
{
name = bottom;
position = "{262, 0}";
},
{
name = top;
position = "{262, 410}";
}
);
layerId = "3114FB65-9464-41A5-B67E-A8F9F43C0EF1";
paths = (
{
closed = 1;
nodes = (
"387 -4 OFFCURVE",
"477 87 OFFCURVE",
"477 213 CURVE SMOOTH",
"477 328 OFFCURVE",
"401 413 OFFCURVE",
"287 413 CURVE SMOOTH",
"209 413 OFFCURVE",
"147 376 OFFCURVE",
"102 301 CURVE",
"120 288 LINE",
"161 360 OFFCURVE",
"221 387 OFFCURVE",
"280 387 CURVE SMOOTH",
"377 387 OFFCURVE",
"440 311 OFFCURVE",
"440 210 CURVE SMOOTH",
"440 100 OFFCURVE",
"366 23 OFFCURVE",
"263 23 CURVE SMOOTH",
"200 23 OFFCURVE",
"149 52 OFFCURVE",
"118 109 CURVE",
"106 88 LINE",
"139 26 OFFCURVE",
"198 -4 OFFCURVE",
"266 -4 CURVE SMOOTH"
);
},
{
closed = 1;
nodes = (
"122 -284 LINE",
"122 713 LINE",
"88 709 LINE",
"88 -289 LINE"
);
}
);
width = 523;
},
{
anchors = (
{
name = bottom;
position = "{266, 0}";
},
{
name = top;
position = "{266, 417}";
}
);
layerId = "14EEE41F-D714-4243-A717-73445EE7DABA";
paths = (
{
closed = 1;
nodes = (
"398 -6 OFFCURVE",
"493 90 OFFCURVE",
"493 220 CURVE SMOOTH",
"493 337 OFFCURVE",
"418 423 OFFCURVE",
"301 423 CURVE SMOOTH",
"222 423 OFFCURVE",
"164 384 OFFCURVE",
"119 303 CURVE",
"151 283 LINE",
"186 342 OFFCURVE",
"235 363 OFFCURVE",
"279 363 CURVE SMOOTH",
"354 363 OFFCURVE",
"399 296 OFFCURVE",
"399 212 CURVE SMOOTH",
"399 118 OFFCURVE",
"346 57 OFFCURVE",
"265 57 CURVE SMOOTH",
"217 57 OFFCURVE",
"175 79 OFFCURVE",
"150 124 CURVE",
"128 91 LINE",
"153 29 OFFCURVE",
"207 -6 OFFCURVE",
"278 -6 CURVE SMOOTH"
);
},
{
closed = 1;
nodes = (
"159 -274 LINE",
"159 718 LINE",
"73 703 LINE",
"73 -289 LINE"
);
}
);
width = 532;
},
{
anchors = (
{
name = bottom;
position = "{305, 0}";
},
{
name = top;
position = "{305, 425}";
}
);
layerId = "090CB6A0-BE7C-4D17-A551-206C7456A8A3";
paths = (
{
closed = 1;
nodes = (
"418 -9 OFFCURVE",
"521 94 OFFCURVE",
"521 232 CURVE SMOOTH",
"521 348 OFFCURVE",
"448 436 OFFCURVE",
"329 436 CURVE SMOOTH",
"252 436 OFFCURVE",
"197 397 OFFCURVE",
"147 314 CURVE",
"187 281 LINE",
"215 318 OFFCURVE",
"249 332 OFFCURVE",
"280 332 CURVE SMOOTH",
"333 332 OFFCURVE",
"361 285 OFFCURVE",
"361 214 CURVE SMOOTH",
"361 136 OFFCURVE",
"329 91 OFFCURVE",
"272 91 CURVE SMOOTH",
"242 91 OFFCURVE",
"213 104 OFFCURVE",
"195 133 CURVE",
"162 70 LINE",
"185 22 OFFCURVE",
"231 -9 OFFCURVE",
"295 -9 CURVE SMOOTH"
);
},
{
closed = 1;
nodes = (
"206 -263 LINE",
"207 723 LINE",
"55 698 LINE",
"55 -289 LINE"
);
}
);
width = 551;
}
);
leftKerningGroup = l;
rightKerningGroup = o;
rightMetricsKey = "=p";
unicode = 00FE;
},
{
color = 3;
glyphname = q;
layers = (
{
anchors = (
{
name = bottom;
position = "{259, 0}";
},
{
name = top;
position = "{259, 410}";
}
);
layerId = "3114FB65-9464-41A5-B67E-A8F9F43C0EF1";
paths = (
{
closed = 1;
nodes = (
"128 414 OFFCURVE",
"45 318 OFFCURVE",
"45 196 CURVE SMOOTH",
"45 78 OFFCURVE",
"123 -4 OFFCURVE",
"231 -4 CURVE SMOOTH",
"307 -4 OFFCURVE",
"372 38 OFFCURVE",
"417 110 CURVE",
"402 129 LINE",
"362 59 OFFCURVE",
"301 23 OFFCURVE",
"238 23 CURVE SMOOTH",
"147 23 OFFCURVE",
"82 96 OFFCURVE",
"82 201 CURVE SMOOTH",
"82 309 OFFCURVE",
"151 387 OFFCURVE",
"266 387 CURVE SMOOTH",
"310 387 OFFCURVE",
"366 381 OFFCURVE",
"394 366 CURVE",
"429 385 LINE",
"397 404 OFFCURVE",
"332 414 OFFCURVE",
"271 414 CURVE SMOOTH"
);
},
{
closed = 1;
nodes = (
"394 366 LINE",
"394 -289 LINE",
"429 -285 LINE",
"429 385 LINE"
);
}
);
width = 517;
},
{
anchors = (
{
name = bottom;
position = "{268, 0}";
},
{
name = top;
position = "{268, 417}";
}
);
layerId = "14EEE41F-D714-4243-A717-73445EE7DABA";
paths = (
{
closed = 1;
nodes = (
"116 423 OFFCURVE",
"38 314 OFFCURVE",
"38 196 CURVE SMOOTH",
"38 68 OFFCURVE",
"130 -6 OFFCURVE",
"229 -6 CURVE SMOOTH",
"313 -6 OFFCURVE",
"378 48 OFFCURVE",
"422 116 CURVE",
"394 142 LINE",
"362 90 OFFCURVE",
"314 59 OFFCURVE",
"261 59 CURVE SMOOTH",
"188 59 OFFCURVE",
"132 116 OFFCURVE",
"132 214 CURVE SMOOTH",
"132 301 OFFCURVE",
"172 365 OFFCURVE",
"265 365 CURVE SMOOTH",
"300 365 OFFCURVE",
"347 357 OFFCURVE",
"370 342 CURVE",
"457 393 LINE",
"428 412 OFFCURVE",
"352 423 OFFCURVE",
"281 423 CURVE SMOOTH"
);
},
{
closed = 1;
nodes = (
"370 342 LINE",
"370 -289 LINE",
"457 -274 LINE",
"457 393 LINE"
);
}
);
width = 529;
},
{
anchors = (
{
name = bottom;
position = "{284, 0}";
},
{
name = top;
position = "{289, 425}";
}
);
layerId = "090CB6A0-BE7C-4D17-A551-206C7456A8A3";
paths = (
{
closed = 1;
nodes = (
"108 435 OFFCURVE",
"31 321 OFFCURVE",
"31 191 CURVE SMOOTH",
"31 53 OFFCURVE",
"135 -9 OFFCURVE",
"220 -9 CURVE SMOOTH",
"314 -9 OFFCURVE",
"382 53 OFFCURVE",
"423 107 CURVE",
"375 152 LINE",
"347 115 OFFCURVE",
"313 94 OFFCURVE",
"277 94 CURVE SMOOTH",
"230 94 OFFCURVE",
"191 128 OFFCURVE",
"191 217 CURVE SMOOTH",
"191 295 OFFCURVE",
"211 340 OFFCURVE",
"274 340 CURVE SMOOTH",
"299 340 OFFCURVE",
"330 332 OFFCURVE",
"345 320 CURVE",
"496 398 LINE",
"464 420 OFFCURVE",
"390 435 OFFCURVE",
"308 435 CURVE SMOOTH"
);
},
{
closed = 1;
nodes = (
"345 320 LINE",
"345 -289 LINE",
"496 -263 LINE",
"496 398 LINE"
);
}
);
width = 549;
}
);
leftKerningGroup = o;
rightKerningGroup = q;
rightMetricsKey = u;
unicode = 0071;
},
{
color = 3;
glyphname = r;
layers = (
{
anchors = (
{
name = bottom;
position = "{194, 0}";
},
{
name = top;
position = "{218, 410}";
}
);
layerId = "3114FB65-9464-41A5-B67E-A8F9F43C0EF1";
paths = (
{
closed = 1;
nodes = (
"122 0 LINE",
"122 293 LINE",
"118 412 LINE",
"88 407 LINE",
"88 0 LINE"
);
},
{
closed = 1;
nodes = (
"160 337 OFFCURVE",
"205 383 OFFCURVE",
"265 383 CURVE SMOOTH",
"290 383 OFFCURVE",
"312 374 OFFCURVE",
"327 357 CURVE",
"344 385 LINE",
"326 404 OFFCURVE",
"302 413 OFFCURVE",
"274 413 CURVE SMOOTH",
"203 413 OFFCURVE",
"150 363 OFFCURVE",
"106 278 CURVE",
"116 261 LINE"
);
}
);
width = 365;
},
{
anchors = (
{
name = bottom;
position = "{173, 0}";
},
{
name = top;
position = "{215, 417}";
}
);
layerId = "14EEE41F-D714-4243-A717-73445EE7DABA";
paths = (
{
closed = 1;
nodes = (
"159 0 LINE",
"159 328 LINE",
"144 425 LINE",
"72 410 LINE",
"72 0 LINE"
);
},
{
closed = 1;
nodes = (
"178 317 OFFCURVE",
"221 346 OFFCURVE",
"268 346 CURVE SMOOTH",
"293 346 OFFCURVE",
"317 338 OFFCURVE",
"334 325 CURVE",
"369 400 LINE",
"350 415 OFFCURVE",
"323 423 OFFCURVE",
"294 423 CURVE SMOOTH",
"224 423 OFFCURVE",
"167 370 OFFCURVE",
"124 287 CURVE",
"144 262 LINE"
);
}
);
width = 377;
},
{
anchors = (
{
name = bottom;
position = "{156, 0}";
},
{
name = top;
position = "{222, 425}";
}
);
layerId = "090CB6A0-BE7C-4D17-A551-206C7456A8A3";
paths = (
{
closed = 1;
nodes = (
"207 0 LINE",
"207 351 LINE",
"178 437 LINE",
"53 414 LINE",
"53 0 LINE"
);
},
{
closed = 1;
nodes = (
"201 286 OFFCURVE",
"240 304 OFFCURVE",
"284 304 CURVE SMOOTH",
"309 304 OFFCURVE",
"332 296 OFFCURVE",
"349 284 CURVE",
"399 414 LINE",
"379 427 OFFCURVE",
"353 434 OFFCURVE",
"325 434 CURVE SMOOTH",
"250 434 OFFCURVE",
"196 377 OFFCURVE",
"151 285 CURVE",
"175 252 LINE"
);
}
);
width = 400;
}
);
leftKerningGroup = n;
leftMetricsKey = n;
rightKerningGroup = r;
unicode = 0072;
},
{
color = 3;
glyphname = s;
layers = (
{
anchors = (
{
name = bottom;
position = "{191, 0}";
},
{
name = top;
position = "{193, 410}";
}
);
layerId = "3114FB65-9464-41A5-B67E-A8F9F43C0EF1";
paths = (
{
closed = 1;
nodes = (
"264 -5 OFFCURVE",
"322 45 OFFCURVE",
"322 111 CURVE SMOOTH",
"322 245 OFFCURVE",
"99 210 OFFCURVE",
"99 316 CURVE SMOOTH",
"99 360 OFFCURVE",
"138 390 OFFCURVE",
"194 390 CURVE SMOOTH",
"228 390 OFFCURVE",
"268 378 OFFCURVE",
"292 355 CURVE",
"303 384 LINE",
"275 404 OFFCURVE",
"234 415 OFFCURVE",
"195 415 CURVE SMOOTH",
"125 415 OFFCURVE",
"67 378 OFFCURVE",
"67 311 CURVE SMOOTH",
"67 181 OFFCURVE",
"289 218 OFFCURVE",
"289 106 CURVE SMOOTH",
"289 57 OFFCURVE",
"244 20 OFFCURVE",
"181 20 CURVE SMOOTH",
"134 20 OFFCURVE",
"83 39 OFFCURVE",
"55 68 CURVE",
"43 39 LINE",
"72 14 OFFCURVE",
"122 -5 OFFCURVE",
"179 -5 CURVE SMOOTH"
);
}
);
width = 368;
},
{
anchors = (
{
name = bottom;
position = "{200, 0}";
},
{
name = top;
position = "{196, 417}";
}
);
layerId = "14EEE41F-D714-4243-A717-73445EE7DABA";
paths = (
{
closed = 1;
nodes = (
"288 -11 OFFCURVE",
"345 53 OFFCURVE",
"345 126 CURVE SMOOTH",
"345 269 OFFCURVE",
"132 234 OFFCURVE",
"132 321 CURVE SMOOTH",
"132 348 OFFCURVE",
"155 371 OFFCURVE",
"201 371 CURVE SMOOTH",
"229 371 OFFCURVE",
"276 358 OFFCURVE",
"302 331 CURVE",
"326 398 LINE",
"295 418 OFFCURVE",
"248 428 OFFCURVE",
"205 428 CURVE SMOOTH",
"122 428 OFFCURVE",
"53 385 OFFCURVE",
"53 303 CURVE SMOOTH",
"53 161 OFFCURVE",
"263 201 OFFCURVE",
"263 108 CURVE SMOOTH",
"263 77 OFFCURVE",
"237 49 OFFCURVE",
"188 49 CURVE SMOOTH",
"145 49 OFFCURVE",
"92 68 OFFCURVE",
"58 98 CURVE",
"34 28 LINE",
"67 6 OFFCURVE",
"123 -11 OFFCURVE",
"183 -11 CURVE SMOOTH"
);
}
);
width = 383;
},
{
anchors = (
{
name = bottom;
position = "{211, 0}";
},
{
name = top;
position = "{209, 425}";
}
);
layerId = "090CB6A0-BE7C-4D17-A551-206C7456A8A3";
paths = (
{
closed = 1;
nodes = (
"326 -15 OFFCURVE",
"375 62 OFFCURVE",
"375 138 CURVE SMOOTH",
"375 290 OFFCURVE",
"175 252 OFFCURVE",
"175 316 CURVE SMOOTH",
"175 333 OFFCURVE",
"190 348 OFFCURVE",
"230 348 CURVE SMOOTH",
"255 348 OFFCURVE",
"302 336 OFFCURVE",
"327 314 CURVE",
"362 415 LINE",
"325 431 OFFCURVE",
"270 440 OFFCURVE",
"225 440 CURVE SMOOTH",
"117 440 OFFCURVE",
"40 391 OFFCURVE",
"40 296 CURVE SMOOTH",
"40 147 OFFCURVE",
"235 186 OFFCURVE",
"235 119 CURVE SMOOTH",
"235 101 OFFCURVE",
"216 84 OFFCURVE",
"175 84 CURVE SMOOTH",
"139 84 OFFCURVE",
"91 100 OFFCURVE",
"60 124 CURVE",
"26 18 LINE",
"62 -2 OFFCURVE",
"128 -15 OFFCURVE",
"186 -15 CURVE SMOOTH"
);
}
);
width = 405;
}
);
leftKerningGroup = o;
rightKerningGroup = o;
unicode = 0073;
},
{
color = 3;
glyphname = germandbls;
layers = (
{
anchors = (
{
name = bottom;
position = "{283, 0}";
},
{
name = top;
position = "{295, 711}";
}
);
layerId = "3114FB65-9464-41A5-B67E-A8F9F43C0EF1";
paths = (
{
closed = 1;
nodes = (
"437 -7 OFFCURVE",
"486 53 OFFCURVE",
"486 130 CURVE SMOOTH",
"486 259 OFFCURVE",
"337 285 OFFCURVE",
"337 366 CURVE SMOOTH",
"337 432 OFFCURVE",
"433 476 OFFCURVE",
"433 573 CURVE SMOOTH",
"433 655 OFFCURVE",
"375 711 OFFCURVE",
"289 711 CURVE SMOOTH",
"165 711 OFFCURVE",
"88 617 OFFCURVE",
"88 472 CURVE SMOOTH",
"88 0 LINE",
"124 0 LINE",
"124 471 LINE SMOOTH",
"124 608 OFFCURVE",
"181 684 OFFCURVE",
"283 684 CURVE SMOOTH",
"351 684 OFFCURVE",
"398 637 OFFCURVE",
"398 567 CURVE SMOOTH",
"398 474 OFFCURVE",
"303 431 OFFCURVE",
"303 358 CURVE SMOOTH",
"303 268 OFFCURVE",
"452 243 OFFCURVE",
"452 126 CURVE SMOOTH",
"452 65 OFFCURVE",
"416 20 OFFCURVE",
"351 20 CURVE SMOOTH",
"307 20 OFFCURVE",
"272 37 OFFCURVE",
"248 60 CURVE",
"232 33 LINE",
"273 -3 OFFCURVE",
"321 -7 OFFCURVE",
"350 -7 CURVE SMOOTH"
);
}
);
width = 532;
},
{
anchors = (
{
name = bottom;
position = "{295, 0}";
},
{
name = top;
position = "{309, 711}";
}
);
layerId = "14EEE41F-D714-4243-A717-73445EE7DABA";
paths = (
{
closed = 1;
nodes = (
"464 -8 OFFCURVE",
"508 73 OFFCURVE",
"508 146 CURVE SMOOTH",
"508 271 OFFCURVE",
"372 300 OFFCURVE",
"372 370 CURVE SMOOTH",
"372 429 OFFCURVE",
"462 465 OFFCURVE",
"462 565 CURVE SMOOTH",
"462 648 OFFCURVE",
"402 711 OFFCURVE",
"300 711 CURVE SMOOTH",
"160 711 OFFCURVE",
"74 603 OFFCURVE",
"74 451 CURVE SMOOTH",
"74 0 LINE",
"163 0 LINE",
"163 449 LINE SMOOTH",
"163 580 OFFCURVE",
"200 645 OFFCURVE",
"280 645 CURVE SMOOTH",
"339 645 OFFCURVE",
"374 604 OFFCURVE",
"374 545 CURVE SMOOTH",
"374 455 OFFCURVE",
"284 420 OFFCURVE",
"284 350 CURVE SMOOTH",
"284 263 OFFCURVE",
"423 230 OFFCURVE",
"423 133 CURVE SMOOTH",
"423 94 OFFCURVE",
"404 57 OFFCURVE",
"356 57 CURVE SMOOTH",
"323 57 OFFCURVE",
"294 74 OFFCURVE",
"273 91 CURVE",
"240 21 LINE",
"282 -4 OFFCURVE",
"326 -8 OFFCURVE",
"355 -8 CURVE SMOOTH"
);
}
);
width = 546;
},
{
anchors = (
{
name = bottom;
position = "{315, 0}";
},
{
name = top;
position = "{332, 711}";
}
);
layerId = "090CB6A0-BE7C-4D17-A551-206C7456A8A3";
paths = (
{
closed = 1;
nodes = (
"517 -11 OFFCURVE",
"550 90 OFFCURVE",
"550 155 CURVE SMOOTH",
"550 277 OFFCURVE",
"432 308 OFFCURVE",
"432 380 CURVE SMOOTH",
"432 439 OFFCURVE",
"507 471 OFFCURVE",
"507 561 CURVE SMOOTH",
"507 642 OFFCURVE",
"445 711 OFFCURVE",
"325 711 CURVE SMOOTH",
"160 711 OFFCURVE",
"56 592 OFFCURVE",
"56 420 CURVE SMOOTH",
"57 0 LINE",
"211 0 LINE",
"211 441 LINE SMOOTH",
"211 553 OFFCURVE",
"234 610 OFFCURVE",
"292 610 CURVE SMOOTH",
"340 610 OFFCURVE",
"362 572 OFFCURVE",
"362 528 CURVE SMOOTH",
"362 451 OFFCURVE",
"286 417 OFFCURVE",
"286 348 CURVE SMOOTH",
"286 263 OFFCURVE",
"404 227 OFFCURVE",
"404 148 CURVE SMOOTH",
"404 121 OFFCURVE",
"393 98 OFFCURVE",
"363 98 CURVE SMOOTH",
"342 98 OFFCURVE",
"321 110 OFFCURVE",
"303 123 CURVE",
"260 24 LINE",
"297 1 OFFCURVE",
"338 -11 OFFCURVE",
"382 -11 CURVE SMOOTH"
);
}
);
width = 580;
}
);
rightKerningGroup = a;
rightMetricsKey = s;
unicode = 00DF;
},
{
color = 3;
glyphname = t;
layers = (
{
anchors = (
{
name = bottom;
position = "{230, 0}";
},
{
name = center;
position = "{176, 234}";
},
{
name = top;
position = "{182, 464}";
},
{
name = topright;
position = "{281, 763}";
}
);
layerId = "3114FB65-9464-41A5-B67E-A8F9F43C0EF1";
paths = (
{
closed = 1;
nodes = (
"274 -7 OFFCURVE",
"315 7 OFFCURVE",
"354 43 CURVE",
"341 62 LINE",
"309 33 OFFCURVE",
"276 20 OFFCURVE",
"242 20 CURVE SMOOTH",
"187 20 OFFCURVE",
"157 55 OFFCURVE",
"157 118 CURVE SMOOTH",
"157 500 LINE",
"131 497 LINE",
"121 389 LINE",
"121 113 LINE SMOOTH",
"121 38 OFFCURVE",
"165 -7 OFFCURVE",
"235 -7 CURVE SMOOTH"
);
},
{
closed = 1;
nodes = (
"335 398 LINE",
"33 396 LINE",
"31 369 LINE",
"333 369 LINE"
);
}
);
width = 377;
},
{
anchors = (
{
name = bottom;
position = "{232, 0}";
},
{
name = center;
position = "{170, 234}";
},
{
name = top;
position = "{185, 475}";
},
{
name = topright;
position = "{330, 763}";
}
);
layerId = "14EEE41F-D714-4243-A717-73445EE7DABA";
paths = (
{
closed = 1;
nodes = (
"277 -7 OFFCURVE",
"325 10 OFFCURVE",
"364 48 CURVE",
"339 87 LINE",
"311 67 OFFCURVE",
"283 58 OFFCURVE",
"257 58 CURVE SMOOTH",
"215 58 OFFCURVE",
"188 85 OFFCURVE",
"188 139 CURVE SMOOTH",
"188 517 LINE",
"131 505 LINE",
"100 397 LINE",
"100 123 LINE SMOOTH",
"100 39 OFFCURVE",
"159 -7 OFFCURVE",
"233 -7 CURVE SMOOTH"
);
},
{
closed = 1;
nodes = (
"343 413 LINE",
"26 407 LINE",
"21 353 LINE",
"338 352 LINE"
);
}
);
width = 381;
},
{
anchors = (
{
name = bottom;
position = "{234, 0}";
},
{
name = center;
position = "{167, 234}";
},
{
name = top;
position = "{194, 490}";
},
{
name = topright;
position = "{388, 763}";
}
);
layerId = "090CB6A0-BE7C-4D17-A551-206C7456A8A3";
paths = (
{
closed = 1;
nodes = (
"293 -9 OFFCURVE",
"348 13 OFFCURVE",
"389 57 CURVE",
"354 121 LINE",
"333 108 OFFCURVE",
"307 102 OFFCURVE",
"288 102 CURVE SMOOTH",
"254 102 OFFCURVE",
"233 121 OFFCURVE",
"233 167 CURVE SMOOTH",
"233 536 LINE",
"134 518 LINE",
"82 404 LINE",
"82 136 LINE SMOOTH",
"82 40 OFFCURVE",
"143 -9 OFFCURVE",
"236 -9 CURVE SMOOTH"
);
},
{
closed = 1;
nodes = (
"367 425 LINE",
"22 415 LINE",
"13 325 LINE",
"357 320 LINE"
);
}
);
width = 397;
}
);
leftKerningGroup = n;
rightKerningGroup = t;
unicode = 0074;
},
{
color = 3;
glyphname = tcaron;
layers = (
{
layerId = "3114FB65-9464-41A5-B67E-A8F9F43C0EF1";
paths = (
{
closed = 1;
nodes = (
"274 -7 OFFCURVE",
"317 9 OFFCURVE",
"356 48 CURVE",
"343 65 LINE",
"311 34 OFFCURVE",
"275 20 OFFCURVE",
"240 20 CURVE SMOOTH",
"187 20 OFFCURVE",
"156 55 OFFCURVE",
"156 118 CURVE SMOOTH",
"156 382 LINE",
"156 389 LINE",
"156 501 LINE",
"131 497 LINE",
"121 389 LINE",
"121 113 LINE SMOOTH",
"121 38 OFFCURVE",
"164 -7 OFFCURVE",
"233 -7 CURVE SMOOTH"
);
},
{
closed = 1;
nodes = (
"335 398 LINE",
"33 396 LINE",
"31 373 LINE",
"333 373 LINE"
);
},
{
closed = 1;
nodes = (
"278 710 LINE",
"247 710 LINE",
"247 464 LINE",
"272 464 LINE"
);
}
);
width = 377;
},
{
layerId = "14EEE41F-D714-4243-A717-73445EE7DABA";
paths = (
{
closed = 1;
nodes = (
"277 -7 OFFCURVE",
"326 11 OFFCURVE",
"366 51 CURVE",
"340 89 LINE",
"312 68 OFFCURVE",
"283 59 OFFCURVE",
"256 59 CURVE SMOOTH",
"215 59 OFFCURVE",
"188 84 OFFCURVE",
"188 140 CURVE SMOOTH",
"188 376 LINE",
"188 390 LINE",
"188 517 LINE",
"131 505 LINE",
"100 397 LINE",
"100 123 LINE SMOOTH",
"100 39 OFFCURVE",
"158 -7 OFFCURVE",
"232 -7 CURVE SMOOTH"
);
},
{
closed = 1;
nodes = (
"343 413 LINE",
"26 407 LINE",
"21 356 LINE",
"338 355 LINE"
);
},
{
closed = 1;
nodes = (
"326 710 LINE",
"249 710 LINE",
"249 463 LINE",
"304 463 LINE"
);
}
);
width = 381;
},
{
layerId = "090CB6A0-BE7C-4D17-A551-206C7456A8A3";
paths = (
{
closed = 1;
nodes = (
"293 -9 OFFCURVE",
"348 13 OFFCURVE",
"389 57 CURVE",
"354 121 LINE",
"333 108 OFFCURVE",
"307 102 OFFCURVE",
"288 102 CURVE SMOOTH",
"254 102 OFFCURVE",
"233 121 OFFCURVE",
"233 167 CURVE SMOOTH",
"233 364 LINE",
"213 387 LINE",
"213 536 LINE",
"123 526 LINE",
"82 404 LINE",
"82 136 LINE SMOOTH",
"82 40 OFFCURVE",
"143 -9 OFFCURVE",
"236 -9 CURVE SMOOTH"
);
},
{
closed = 1;
nodes = (
"367 425 LINE",
"22 415 LINE",
"13 325 LINE",
"357 320 LINE"
);
},
{
closed = 1;
nodes = (
"380 710 LINE",
"254 710 LINE",
"254 464 LINE",
"342 465 LINE"
);
}
);
width = 397;
}
);
unicode = 0165;
},
{
color = 3;
glyphname = u;
layers = (
{
anchors = (
{
name = bottom;
position = "{252, 0}";
},
{
name = ogonek;
position = "{426, 2}";
},
{
name = top;
position = "{261, 410}";
},
{
name = topright;
position = "{476, 406}";
}
);
layerId = "3114FB65-9464-41A5-B67E-A8F9F43C0EF1";
paths = (
{
closed = 1;
nodes = (
"292 -4 OFFCURVE",
"378 35 OFFCURVE",
"414 129 CURVE",
"399 145 LINE",
"365 58 OFFCURVE",
"293 23 OFFCURVE",
"235 23 CURVE SMOOTH",
"164 23 OFFCURVE",
"122 76 OFFCURVE",
"122 164 CURVE SMOOTH",
"122 412 LINE",
"87 407 LINE",
"87 155 LINE SMOOTH",
"87 55 OFFCURVE",
"140 -4 OFFCURVE",
"223 -4 CURVE SMOOTH"
);
},
{
closed = 1;
nodes = (
"426 2 LINE",
"426 412 LINE",
"391 407 LINE",
"391 111 LINE",
"396 -2 LINE"
);
}
);
width = 514;
},
{
anchors = (
{
name = bottom;
position = "{253, 0}";
},
{
name = ogonek;
position = "{454, 8}";
},
{
name = top;
position = "{271, 417}";
},
{
name = topright;
position = "{485, 406}";
}
);
layerId = "14EEE41F-D714-4243-A717-73445EE7DABA";
paths = (
{
closed = 1;
nodes = (
"292 -6 OFFCURVE",
"369 37 OFFCURVE",
"418 123 CURVE",
"388 146 LINE",
"358 88 OFFCURVE",
"301 59 OFFCURVE",
"254 59 CURVE SMOOTH",
"193 59 OFFCURVE",
"160 105 OFFCURVE",
"160 179 CURVE SMOOTH",
"160 425 LINE",
"72 409 LINE",
"72 149 LINE SMOOTH",
"72 52 OFFCURVE",
"132 -6 OFFCURVE",
"217 -6 CURVE SMOOTH"
);
},
{
closed = 1;
nodes = (
"454 8 LINE",
"454 425 LINE",
"366 409 LINE",
"366 87 LINE",
"381 -8 LINE"
);
}
);
width = 526;
},
{
anchors = (
{
name = bottom;
position = "{271, 0}";
},
{
name = ogonek;
position = "{494, 11}";
},
{
name = top;
position = "{282, 425}";
},
{
name = topright;
position = "{495, 406}";
}
);
layerId = "090CB6A0-BE7C-4D17-A551-206C7456A8A3";
paths = (
{
closed = 1;
nodes = (
"278 -8 OFFCURVE",
"340 31 OFFCURVE",
"398 95 CURVE",
"360 141 LINE",
"341 112 OFFCURVE",
"303 95 OFFCURVE",
"272 95 CURVE SMOOTH",
"229 95 OFFCURVE",
"208 129 OFFCURVE",
"208 180 CURVE SMOOTH",
"208 438 LINE",
"53 412 LINE",
"53 142 LINE SMOOTH",
"53 50 OFFCURVE",
"117 -8 OFFCURVE",
"205 -8 CURVE SMOOTH"
);
},
{
closed = 1;
nodes = (
"494 11 LINE",
"494 438 LINE",
"340 412 LINE",
"340 74 LINE",
"369 -13 LINE"
);
}
);
width = 547;
}
);
leftKerningGroup = u;
leftMetricsKey = "=|n";
rightKerningGroup = u;
rightMetricsKey = "=|n";
unicode = 0075;
},
{
color = 3;
glyphname = v;
layers = (
{
anchors = (
{
name = bottom;
position = "{224, 0}";
},
{
name = top;
position = "{224, 410}";
}
);
layerId = "3114FB65-9464-41A5-B67E-A8F9F43C0EF1";
paths = (
{
closed = 1;
nodes = (
"241 0 LINE",
"416 410 LINE",
"380 410 LINE",
"220 12 LINE",
"242 13 LINE",
"74 410 LINE",
"36 410 LINE",
"211 0 LINE"
);
}
);
width = 452;
},
{
anchors = (
{
name = bottom;
position = "{225, 0}";
},
{
name = top;
position = "{225, 417}";
}
);
layerId = "14EEE41F-D714-4243-A717-73445EE7DABA";
paths = (
{
closed = 1;
nodes = (
"265 0 LINE",
"433 417 LINE",
"344 417 LINE",
"213 25 LINE",
"253 25 LINE",
"117 417 LINE",
"20 417 LINE",
"186 0 LINE"
);
}
);
width = 451;
},
{
anchors = (
{
name = bottom;
position = "{238, 0}";
},
{
name = top;
position = "{243, 425}";
}
);
layerId = "090CB6A0-BE7C-4D17-A551-206C7456A8A3";
paths = (
{
closed = 1;
nodes = (
"313 0 LINE",
"470 425 LINE",
"322 425 LINE",
"224 39 LINE",
"268 39 LINE",
"169 425 LINE",
"7 425 LINE",
"162 0 LINE"
);
}
);
width = 476;
}
);
leftKerningGroup = v;
rightKerningGroup = v;
unicode = 0076;
},
{
color = 3;
glyphname = w;
layers = (
{
anchors = (
{
name = bottom;
position = "{361, 0}";
},
{
name = top;
position = "{361, 410}";
}
);
layerId = "3114FB65-9464-41A5-B67E-A8F9F43C0EF1";
paths = (
{
closed = 1;
nodes = (
"214 0 LINE",
"368 382 LINE",
"354 382 LINE",
"511 0 LINE",
"542 0 LINE",
"690 410 LINE",
"653 410 LINE",
"525 25 LINE",
"536 26 LINE",
"379 410 LINE",
"348 410 LINE",
"196 26 LINE",
"209 26 LINE",
"74 410 LINE",
"36 410 LINE",
"184 0 LINE"
);
}
);
width = 726;
},
{
anchors = (
{
name = bottom;
position = "{364, 0}";
},
{
name = top;
position = "{364, 417}";
}
);
layerId = "14EEE41F-D714-4243-A717-73445EE7DABA";
paths = (
{
closed = 1;
nodes = (
"245 0 LINE",
"367 344 LINE",
"352 344 LINE",
"483 0 LINE",
"562 0 LINE",
"709 417 LINE",
"617 417 LINE",
"520 56 LINE",
"543 57 LINE",
"408 417 LINE",
"327 417 LINE",
"202 57 LINE",
"222 57 LINE",
"115 417 LINE",
"20 417 LINE",
"166 0 LINE"
);
}
);
width = 727;
},
{
anchors = (
{
name = bottom;
position = "{373, 0}";
},
{
name = top;
position = "{380, 425}";
}
);
layerId = "090CB6A0-BE7C-4D17-A551-206C7456A8A3";
paths = (
{
closed = 1;
nodes = (
"286 0 LINE",
"378 292 LINE",
"358 292 LINE",
"462 0 LINE",
"596 0 LINE",
"743 425 LINE",
"590 425 LINE",
"524 80 LINE",
"554 81 LINE",
"444 425 LINE",
"319 425 LINE",
"222 82 LINE",
"250 82 LINE",
"165 425 LINE",
"7 425 LINE",
"152 0 LINE"
);
}
);
width = 749;
}
);
leftKerningGroup = v;
leftMetricsKey = v;
rightKerningGroup = v;
rightMetricsKey = v;
unicode = 0077;
},
{
color = 3;
glyphname = x;
layers = (
{
anchors = (
{
name = bottom;
position = "{218, 0}";
},
{
name = top;
position = "{218, 409}";
}
);
layerId = "3114FB65-9464-41A5-B67E-A8F9F43C0EF1";
paths = (
{
closed = 1;
nodes = (
"71 0 LINE",
"217 190 LINE",
"362 0 LINE",
"406 0 LINE",
"238 213 LINE",
"395 409 LINE",
"356 409 LINE",
"221 235 LINE",
"86 409 LINE",
"43 409 LINE",
"200 211 LINE",
"30 0 LINE"
);
}
);
width = 435;
},
{
anchors = (
{
name = bottom;
position = "{226, 0}";
},
{
name = top;
position = "{226, 417}";
}
);
layerId = "14EEE41F-D714-4243-A717-73445EE7DABA";
paths = (
{
closed = 1;
nodes = (
"115 0 LINE",
"222 162 LINE",
"327 0 LINE",
"437 0 LINE",
"277 218 LINE",
"428 417 LINE",
"333 417 LINE",
"235 271 LINE",
"140 417 LINE",
"31 417 LINE",
"181 214 LINE",
"16 0 LINE"
);
}
);
width = 452;
},
{
anchors = (
{
name = bottom;
position = "{249, 0}";
},
{
name = top;
position = "{249, 425}";
}
);
layerId = "090CB6A0-BE7C-4D17-A551-206C7456A8A3";
paths = (
{
closed = 1;
nodes = (
"172 0 LINE",
"244 143 LINE",
"320 0 LINE",
"499 0 LINE",
"345 220 LINE",
"490 425 LINE",
"327 425 LINE",
"258 293 LINE",
"191 425 LINE",
"14 425 LINE",
"155 217 LINE",
"3 0 LINE"
);
}
);
width = 500;
}
);
leftKerningGroup = n;
unicode = 0078;
},
{
color = 3;
glyphname = y;
layers = (
{
anchors = (
{
name = bottom;
position = "{333, 0}";
},
{
name = top;
position = "{234, 410}";
}
);
layerId = "3114FB65-9464-41A5-B67E-A8F9F43C0EF1";
paths = (
{
closed = 1;
nodes = (
"251 26 LINE",
"74 410 LINE",
"36 410 LINE",
"233 -13 LINE"
);
},
{
closed = 1;
nodes = (
"235 17 LINE",
"96 -289 LINE",
"134 -289 LINE",
"430 410 LINE",
"394 410 LINE"
);
}
);
width = 466;
},
{
anchors = (
{
name = bottom;
position = "{356, 0}";
},
{
name = top;
position = "{235, 417}";
}
);
layerId = "14EEE41F-D714-4243-A717-73445EE7DABA";
paths = (
{
closed = 1;
nodes = (
"264 57 LINE",
"116 417 LINE",
"20 417 LINE",
"227 -41 LINE"
);
},
{
closed = 1;
nodes = (
"232 30 LINE",
"79 -289 LINE",
"172 -289 LINE",
"451 417 LINE",
"363 417 LINE"
);
}
);
width = 469;
},
{
anchors = (
{
name = bottom;
position = "{399, -24}";
},
{
name = top;
position = "{252, 425}";
}
);
layerId = "090CB6A0-BE7C-4D17-A551-206C7456A8A3";
paths = (
{
closed = 1;
nodes = (
"281 78 LINE",
"168 425 LINE",
"7 425 LINE",
"224 -79 LINE"
);
},
{
closed = 1;
nodes = (
"244 46 LINE",
"69 -289 LINE",
"229 -289 LINE",
"493 425 LINE",
"342 425 LINE"
);
}
);
width = 499;
}
);
leftKerningGroup = v;
leftMetricsKey = v;
rightKerningGroup = v;
rightMetricsKey = v;
unicode = 0079;
},
{
color = 3;
glyphname = z;
layers = (
{
anchors = (
{
name = bottom;
position = "{209, 0}";
},
{
name = center;
position = "{211, 205}";
},
{
name = top;
position = "{218, 409}";
}
);
layerId = "3114FB65-9464-41A5-B67E-A8F9F43C0EF1";
paths = (
{
closed = 1;
nodes = (
"46 0 LINE",
"388 0 LINE",
"390 25 LINE",
"62 24 LINE",
"79 11 LINE",
"377 385 LINE",
"372 398 LINE",
"59 398 LINE",
"58 373 LINE",
"357 374 LINE",
"339 386 LINE",
"41 15 LINE"
);
}
);
width = 422;
},
{
anchors = (
{
name = bottom;
position = "{204, 0}";
},
{
name = center;
position = "{212, 209}";
},
{
name = top;
position = "{221, 417}";
}
);
layerId = "14EEE41F-D714-4243-A717-73445EE7DABA";
paths = (
{
closed = 1;
nodes = (
"39 0 LINE",
"391 0 LINE",
"395 59 LINE",
"84 55 LINE",
"125 21 LINE",
"391 386 LINE",
"385 413 LINE",
"54 413 LINE",
"50 354 LINE",
"343 359 LINE",
"296 389 LINE",
"31 32 LINE"
);
}
);
width = 423;
},
{
anchors = (
{
name = bottom;
position = "{218, 0}";
},
{
name = center;
position = "{220, 213}";
},
{
name = top;
position = "{229, 425}";
}
);
layerId = "090CB6A0-BE7C-4D17-A551-206C7456A8A3";
paths = (
{
closed = 1;
nodes = (
"35 0 LINE",
"410 0 LINE",
"417 104 LINE",
"115 96 LINE",
"168 37 LINE",
"418 370 LINE",
"411 425 LINE",
"45 425 LINE",
"39 321 LINE",
"335 331 LINE",
"271 384 LINE",
"23 63 LINE"
);
}
);
width = 439;
}
);
leftKerningGroup = n;
unicode = 007A;
},
{
color = 3;
glyphname = ordfeminine;
layers = (
{
anchors = (
{
name = bottom;
position = "{201, 309}";
},
{
name = ogonek;
position = "{261, 398}";
},
{
name = top;
position = "{147, 658}";
}
);
layerId = "3114FB65-9464-41A5-B67E-A8F9F43C0EF1";
paths = (
{
closed = 1;
nodes = (
"358 303 OFFCURVE",
"382 317 OFFCURVE",
"396 338 CURVE",
"380 352 LINE",
"369 334 OFFCURVE",
"352 326 OFFCURVE",
"336 326 CURVE SMOOTH",
"311 326 OFFCURVE",
"299 345 OFFCURVE",
"300 379 CURVE SMOOTH",
"303 563 LINE SMOOTH",
"303 627 OFFCURVE",
"271 665 OFFCURVE",
"215 665 CURVE SMOOTH",
"149 665 OFFCURVE",
"74 618 OFFCURVE",
"66 549 CURVE",
"95 546 LINE",
"104 607 OFFCURVE",
"164 641 OFFCURVE",
"209 641 CURVE SMOOTH",
"250 641 OFFCURVE",
"276 616 OFFCURVE",
"275 560 CURVE SMOOTH",
"272 384 LINE SMOOTH",
"271 331 OFFCURVE",
"293 303 OFFCURVE",
"332 303 CURVE SMOOTH"
);
},
{
closed = 1;
nodes = (
"185 303 OFFCURVE",
"233 331 OFFCURVE",
"289 379 CURVE",
"288 400 LINE",
"230 355 OFFCURVE",
"183 327 OFFCURVE",
"145 327 CURVE SMOOTH",
"112 327 OFFCURVE",
"89 345 OFFCURVE",
"89 374 CURVE SMOOTH",
"89 398 OFFCURVE",
"103 417 OFFCURVE",
"151 435 CURVE SMOOTH",
"292 484 LINE",
"288 507 LINE",
"141 456 LINE SMOOTH",
"81 436 OFFCURVE",
"59 407 OFFCURVE",
"59 371 CURVE SMOOTH",
"59 330 OFFCURVE",
"92 303 OFFCURVE",
"136 303 CURVE SMOOTH"
);
}
);
width = 416;
},
{
anchors = (
{
name = bottom;
position = "{198, 308}";
},
{
name = ogonek;
position = "{264, 398}";
},
{
name = top;
position = "{150, 658}";
}
);
layerId = "14EEE41F-D714-4243-A717-73445EE7DABA";
paths = (
{
closed = 1;
nodes = (
"352 303 OFFCURVE",
"380 318 OFFCURVE",
"393 342 CURVE",
"362 373 LINE",
"354 361 OFFCURVE",
"341 355 OFFCURVE",
"329 355 CURVE SMOOTH",
"314 355 OFFCURVE",
"307 365 OFFCURVE",
"308 385 CURVE SMOOTH",
"310 560 LINE SMOOTH",
"310 626 OFFCURVE",
"278 664 OFFCURVE",
"215 664 CURVE SMOOTH",
"132 664 OFFCURVE",
"56 612 OFFCURVE",
"48 546 CURVE",
"118 538 LINE",
"126 589 OFFCURVE",
"167 610 OFFCURVE",
"199 610 CURVE SMOOTH",
"230 610 OFFCURVE",
"246 594 OFFCURVE",
"245 550 CURVE SMOOTH",
"242 398 LINE SMOOTH",
"241 335 OFFCURVE",
"268 303 OFFCURVE",
"318 303 CURVE SMOOTH"
);
},
{
closed = 1;
nodes = (
"186 303 OFFCURVE",
"232 334 OFFCURVE",
"285 382 CURVE",
"283 415 LINE",
"229 382 OFFCURVE",
"186 357 OFFCURVE",
"155 357 CURVE SMOOTH",
"130 357 OFFCURVE",
"113 371 OFFCURVE",
"113 393 CURVE SMOOTH",
"113 410 OFFCURVE",
"123 424 OFFCURVE",
"161 437 CURVE SMOOTH",
"286 476 LINE",
"282 516 LINE",
"143 478 LINE SMOOTH",
"63 458 OFFCURVE",
"40 425 OFFCURVE",
"40 385 CURVE SMOOTH",
"40 336 OFFCURVE",
"76 303 OFFCURVE",
"128 303 CURVE SMOOTH"
);
}
);
width = 399;
},
{
anchors = (
{
name = bottom;
position = "{197, 308}";
},
{
name = ogonek;
position = "{272, 398}";
},
{
name = top;
position = "{159, 658}";
}
);
layerId = "090CB6A0-BE7C-4D17-A551-206C7456A8A3";
paths = (
{
closed = 1;
nodes = (
"353 302 OFFCURVE",
"386 319 OFFCURVE",
"400 345 CURVE",
"364 388 LINE",
"357 379 OFFCURVE",
"346 374 OFFCURVE",
"337 374 CURVE SMOOTH",
"328 374 OFFCURVE",
"324 380 OFFCURVE",
"324 392 CURVE SMOOTH",
"326 558 LINE SMOOTH",
"327 626 OFFCURVE",
"288 664 OFFCURVE",
"220 664 CURVE SMOOTH",
"125 664 OFFCURVE",
"43 609 OFFCURVE",
"34 544 CURVE",
"139 533 LINE",
"147 573 OFFCURVE",
"172 586 OFFCURVE",
"195 586 CURVE SMOOTH",
"216 586 OFFCURVE",
"226 576 OFFCURVE",
"226 545 CURVE SMOOTH",
"223 405 LINE SMOOTH",
"221 338 OFFCURVE",
"254 302 OFFCURVE",
"314 302 CURVE SMOOTH"
);
},
{
closed = 1;
nodes = (
"191 302 OFFCURVE",
"235 335 OFFCURVE",
"286 385 CURVE",
"285 426 LINE",
"233 402 OFFCURVE",
"192 380 OFFCURVE",
"167 380 CURVE SMOOTH",
"149 380 OFFCURVE",
"137 391 OFFCURVE",
"137 406 CURVE SMOOTH",
"137 418 OFFCURVE",
"146 431 OFFCURVE",
"174 439 CURVE SMOOTH",
"288 472 LINE",
"284 526 LINE",
"148 496 LINE SMOOTH",
"50 475 OFFCURVE",
"26 437 OFFCURVE",
"26 392 CURVE SMOOTH",
"26 340 OFFCURVE",
"70 302 OFFCURVE",
"128 302 CURVE SMOOTH"
);
}
);
width = 399;
}
);
unicode = 00AA;
},
{
color = 3;
glyphname = ordmasculine;
layers = (
{
layerId = "3114FB65-9464-41A5-B67E-A8F9F43C0EF1";
paths = (
{
closed = 1;
nodes = (
"312 303 OFFCURVE",
"388 380 OFFCURVE",
"388 488 CURVE SMOOTH",
"388 590 OFFCURVE",
"317 665 OFFCURVE",
"218 665 CURVE SMOOTH",
"116 665 OFFCURVE",
"40 587 OFFCURVE",
"40 481 CURVE SMOOTH",
"40 378 OFFCURVE",
"112 303 OFFCURVE",
"211 303 CURVE SMOOTH"
);
},
{
closed = 1;
nodes = (
"132 326 OFFCURVE",
"72 392 OFFCURVE",
"72 484 CURVE SMOOTH",
"72 574 OFFCURVE",
"132 641 OFFCURVE",
"216 641 CURVE SMOOTH",
"298 641 OFFCURVE",
"356 576 OFFCURVE",
"356 485 CURVE SMOOTH",
"356 396 OFFCURVE",
"298 326 OFFCURVE",
"214 326 CURVE SMOOTH"
);
}
);
width = 428;
},
{
layerId = "14EEE41F-D714-4243-A717-73445EE7DABA";
paths = (
{
closed = 1;
nodes = (
"319 302 OFFCURVE",
"398 381 OFFCURVE",
"398 489 CURVE SMOOTH",
"398 590 OFFCURVE",
"324 664 OFFCURVE",
"223 664 CURVE SMOOTH",
"113 664 OFFCURVE",
"33 586 OFFCURVE",
"33 478 CURVE SMOOTH",
"33 377 OFFCURVE",
"107 302 OFFCURVE",
"210 302 CURVE SMOOTH"
);
},
{
closed = 1;
nodes = (
"159 356 OFFCURVE",
"112 406 OFFCURVE",
"112 487 CURVE SMOOTH",
"112 554 OFFCURVE",
"148 610 OFFCURVE",
"213 610 CURVE SMOOTH",
"273 610 OFFCURVE",
"319 560 OFFCURVE",
"319 481 CURVE SMOOTH",
"319 415 OFFCURVE",
"285 356 OFFCURVE",
"220 356 CURVE SMOOTH"
);
}
);
width = 431;
},
{
layerId = "090CB6A0-BE7C-4D17-A551-206C7456A8A3";
paths = (
{
closed = 1;
nodes = (
"324 302 OFFCURVE",
"407 381 OFFCURVE",
"407 490 CURVE SMOOTH",
"407 590 OFFCURVE",
"329 663 OFFCURVE",
"225 663 CURVE SMOOTH",
"110 663 OFFCURVE",
"26 585 OFFCURVE",
"26 476 CURVE SMOOTH",
"26 376 OFFCURVE",
"103 302 OFFCURVE",
"209 302 CURVE SMOOTH"
);
},
{
closed = 1;
nodes = (
"184 388 OFFCURVE",
"151 424 OFFCURVE",
"151 488 CURVE SMOOTH",
"151 536 OFFCURVE",
"170 578 OFFCURVE",
"212 578 CURVE SMOOTH",
"250 578 OFFCURVE",
"282 542 OFFCURVE",
"282 479 CURVE SMOOTH",
"282 433 OFFCURVE",
"265 388 OFFCURVE",
"222 388 CURVE SMOOTH"
);
}
);
width = 435;
}
);
unicode = 00BA;
},
{
glyphname = "hamza-ar";
layers = (
{
anchors = (
{
name = bottom;
position = "{249, -96}";
},
{
name = top;
position = "{249, 509}";
}
);
layerId = "14EEE41F-D714-4243-A717-73445EE7DABA";
paths = (
{
closed = 1;
nodes = (
"236 75 LINE",
"209 75 OFFCURVE",
"192 96 OFFCURVE",
"192 122 CURVE SMOOTH",
"192 157 OFFCURVE",
"229 211 OFFCURVE",
"378 301 CURVE",
"341 362 LINE",
"334 362 LINE",
"240 304 OFFCURVE",
"120 235 OFFCURVE",
"120 134 CURVE SMOOTH",
"120 105 OFFCURVE",
"130 74 OFFCURVE",
"152 40 CURVE"
);
},
{
closed = 1;
nodes = (
"427 0 LINE",
"448 68 LINE",
"448 75 LINE",
"190 75 LINE",
"177 68 LINE",
"177 68 OFFCURVE",
"131 75 OFFCURVE",
"89 75 CURVE SMOOTH",
"87 75 LINE",
"50 6 LINE",
"53 0 LINE"
);
}
);
width = 498;
},
{
anchors = (
{
name = bottom;
position = "{271, -96}";
},
{
name = top;
position = "{271, 509}";
}
);
layerId = "090CB6A0-BE7C-4D17-A551-206C7456A8A3";
paths = (
{
closed = 1;
nodes = (
"313 119 LINE",
"290 119 OFFCURVE",
"276 136 OFFCURVE",
"276 158 CURVE SMOOTH",
"276 188 OFFCURVE",
"307 232 OFFCURVE",
"431 308 CURVE",
"362 406 LINE",
"355 406 LINE",
"261 348 OFFCURVE",
"141 279 OFFCURVE",
"141 178 CURVE SMOOTH",
"141 149 OFFCURVE",
"151 118 OFFCURVE",
"173 84 CURVE"
);
},
{
closed = 1;
nodes = (
"462 0 LINE",
"496 112 LINE",
"496 119 LINE",
"210 119 LINE",
"177 112 LINE",
"177 112 OFFCURVE",
"142 119 OFFCURVE",
"111 119 CURVE SMOOTH",
"103 119 LINE",
"45 9 LINE",
"50 0 LINE"
);
}
);
width = 541;
},
{
anchors = (
{
name = bottom;
position = "{219, -96}";
},
{
name = top;
position = "{219, 509}";
}
);
associatedMasterId = "090CB6A0-BE7C-4D17-A551-206C7456A8A3";
layerId = "B246FC91-93F8-4DCF-B897-BCAAE2BC900C";
name = "Mar 24 20, 14:37";
paths = (
{
closed = 1;
nodes = (
"158 0 LINE",
"158 0 OFFCURVE",
"167 106 OFFCURVE",
"167 137 CURVE SMOOTH",
"167 209 OFFCURVE",
"221 266 OFFCURVE",
"288 266 CURVE SMOOTH",
"362 266 LINE",
"372 361 LINE",
"288 361 LINE SMOOTH",
"162 361 OFFCURVE",
"59 261 OFFCURVE",
"59 137 CURVE SMOOTH",
"59 77 OFFCURVE",
"50 12 OFFCURVE",
"50 12 CURVE",
"59 0 LINE"
);
},
{
closed = 1;
nodes = (
"400 0 LINE",
"400 110 LINE",
"273 110 LINE SMOOTH",
"210 110 OFFCURVE",
"84 101 OFFCURVE",
"84 101 CURVE",
"84 0 LINE"
);
}
);
width = 600;
},
{
anchors = (
{
name = bottom;
position = "{226, -96}";
},
{
name = top;
position = "{226, 509}";
}
);
associatedMasterId = "090CB6A0-BE7C-4D17-A551-206C7456A8A3";
layerId = "C6BBE24D-4ABF-4E51-9CA1-B3CF4E022E54";
name = "Mar 25 20, 15:45";
paths = (
{
closed = 1;
nodes = (
"175 0 LINE",
"181 48 OFFCURVE",
"184 98 OFFCURVE",
"184 138 CURVE SMOOTH",
"184 202 OFFCURVE",
"231 252 OFFCURVE",
"289 252 CURVE SMOOTH",
"370 252 LINE",
"383 362 LINE",
"289 362 LINE SMOOTH",
"162 362 OFFCURVE",
"59 262 OFFCURVE",
"59 138 CURVE SMOOTH",
"59 96 OFFCURVE",
"55 47 OFFCURVE",
"51 12 CURVE",
"59 0 LINE"
);
},
{
closed = 1;
nodes = (
"400 0 LINE",
"400 119 LINE",
"303 119 LINE SMOOTH",
"240 119 OFFCURVE",
"114 110 OFFCURVE",
"114 110 CURVE",
"114 0 LINE"
);
}
);
width = 440;
},
{
anchors = (
{
name = bottom;
position = "{183, -96}";
},
{
name = top;
position = "{183, 381}";
}
);
associatedMasterId = "14EEE41F-D714-4243-A717-73445EE7DABA";
layerId = "1AD2DFE8-5B3A-4C9E-904F-52AE6D0D4E35";
name = "Sep 26 22, 14:47";
paths = (
{
closed = 1;
nodes = (
"135 0 LINE",
"135 0 OFFCURVE",
"142 72 OFFCURVE",
"142 108 CURVE SMOOTH",
"142 165 OFFCURVE",
"185 210 OFFCURVE",
"238 210 CURVE SMOOTH",
"296 210 LINE",
"304 285 LINE",
"238 285 LINE SMOOTH",
"138 285 OFFCURVE",
"57 206 OFFCURVE",
"57 108 CURVE SMOOTH",
"57 61 OFFCURVE",
"50 10 OFFCURVE",
"50 10 CURVE",
"57 0 LINE"
);
},
{
closed = 1;
nodes = (
"326 0 LINE",
"326 75 LINE",
"226 75 LINE SMOOTH",
"176 75 OFFCURVE",
"77 68 OFFCURVE",
"77 68 CURVE",
"77 0 LINE"
);
}
);
width = 366;
},
{
anchors = (
{
name = bottom;
position = "{183, -96}";
},
{
name = top;
position = "{183, 381}";
}
);
associatedMasterId = "14EEE41F-D714-4243-A717-73445EE7DABA";
layerId = "9545BBB6-8E10-43C2-B396-4495067B81ED";
name = "Sep 26 22, 18:07";
paths = (
{
closed = 1;
nodes = (
"326 0 LINE",
"326 85 LINE",
"226 85 LINE SMOOTH",
"176 85 OFFCURVE",
"77 78 OFFCURVE",
"77 78 CURVE",
"77 0 LINE"
);
},
{
closed = 1;
nodes = (
"124 0 LINE",
"129 35 OFFCURVE",
"132 77 OFFCURVE",
"132 108 CURVE SMOOTH",
"132 158 OFFCURVE",
"179 200 OFFCURVE",
"238 200 CURVE SMOOTH",
"295 200 LINE",
"304 285 LINE",
"238 285 LINE SMOOTH",
"138 285 OFFCURVE",
"57 206 OFFCURVE",
"57 108 CURVE SMOOTH",
"57 75 OFFCURVE",
"53 36 OFFCURVE",
"50 10 CURVE",
"57 0 LINE"
);
}
);
width = 366;
},
{
anchors = (
{
name = bottom;
position = "{228, -96}";
},
{
name = top;
position = "{228, 465}";
}
);
layerId = "3114FB65-9464-41A5-B67E-A8F9F43C0EF1";
paths = (
{
closed = 1;
nodes = (
"160 30 LINE",
"147 30 OFFCURVE",
"123 68 OFFCURVE",
"123 113 CURVE SMOOTH",
"123 209 OFFCURVE",
"238 276 OFFCURVE",
"337 340 CURVE",
"323 362 LINE",
"316 362 LINE",
"218 299 OFFCURVE",
"93 224 OFFCURVE",
"93 113 CURVE SMOOTH",
"93 81 OFFCURVE",
"103 48 OFFCURVE",
"126 10 CURVE"
);
},
{
closed = 1;
nodes = (
"394 0 LINE",
"401 23 LINE",
"401 30 LINE",
"142 30 LINE",
"136 23 LINE",
"136 23 OFFCURVE",
"108 30 OFFCURVE",
"74 30 CURVE SMOOTH",
"68 30 LINE",
"55 6 LINE",
"58 0 LINE"
);
}
);
width = 456;
},
{
anchors = (
{
name = bottom;
position = "{215, -96}";
},
{
name = top;
position = "{215, 509}";
}
);
associatedMasterId = "090CB6A0-BE7C-4D17-A551-206C7456A8A3";
layerId = "71A6EE0E-4526-4EF4-AE9C-D3BD436F0830";
name = "Oct 9 22, 12:37";
paths = (
{
closed = 1;
nodes = (
"164 0 LINE",
"170 48 OFFCURVE",
"173 99 OFFCURVE",
"173 138 CURVE SMOOTH",
"173 202 OFFCURVE",
"220 252 OFFCURVE",
"278 252 CURVE SMOOTH",
"359 252 LINE",
"372 362 LINE",
"278 362 LINE SMOOTH",
"151 362 OFFCURVE",
"48 262 OFFCURVE",
"48 138 CURVE SMOOTH",
"48 96 OFFCURVE",
"44 47 OFFCURVE",
"40 12 CURVE",
"48 0 LINE"
);
},
{
closed = 1;
nodes = (
"389 0 LINE",
"389 119 LINE",
"289 119 LINE SMOOTH",
"239 119 OFFCURVE",
"140 112 OFFCURVE",
"140 112 CURVE",
"140 0 LINE"
);
}
);
width = 429;
},
{
anchors = (
{
name = bottom;
position = "{183, -96}";
},
{
name = top;
position = "{183, 381}";
}
);
associatedMasterId = "14EEE41F-D714-4243-A717-73445EE7DABA";
layerId = "DD512D2B-5E84-4E5B-A474-443FC02E91C3";
name = "Oct 11 22, 13:48";
paths = (
{
closed = 1;
nodes = (
"125 0 LINE",
"128 27 OFFCURVE",
"132 71 OFFCURVE",
"132 108 CURVE SMOOTH",
"132 164 OFFCURVE",
"179 210 OFFCURVE",
"238 210 CURVE SMOOTH",
"296 210 LINE",
"303 274 LINE",
"303 285 LINE",
"238 285 LINE SMOOTH",
"138 285 OFFCURVE",
"57 206 OFFCURVE",
"57 108 CURVE SMOOTH",
"57 75 OFFCURVE",
"53 36 OFFCURVE",
"50 10 CURVE",
"57 0 LINE"
);
},
{
closed = 1;
nodes = (
"326 0 LINE",
"326 75 LINE",
"226 75 LINE SMOOTH",
"176 75 OFFCURVE",
"77 68 OFFCURVE",
"77 68 CURVE",
"77 0 LINE"
);
}
);
width = 376;
},
{
anchors = (
{
name = bottom;
position = "{215, -96}";
},
{
name = top;
position = "{215, 509}";
}
);
associatedMasterId = "090CB6A0-BE7C-4D17-A551-206C7456A8A3";
layerId = "E371FC15-7A5F-400F-9AB7-B5C6ABFE6AC8";
name = "Oct 11 22, 13:50";
paths = (
{
closed = 1;
nodes = (
"164 0 LINE",
"170 48 OFFCURVE",
"173 99 OFFCURVE",
"173 138 CURVE SMOOTH",
"173 202 OFFCURVE",
"220 252 OFFCURVE",
"278 252 CURVE SMOOTH",
"359 252 LINE",
"371 351 LINE",
"371 362 LINE",
"278 362 LINE SMOOTH",
"151 362 OFFCURVE",
"48 262 OFFCURVE",
"48 138 CURVE SMOOTH",
"48 96 OFFCURVE",
"44 47 OFFCURVE",
"40 12 CURVE",
"48 0 LINE"
);
},
{
closed = 1;
nodes = (
"389 0 LINE",
"389 119 LINE",
"289 119 LINE SMOOTH",
"239 119 OFFCURVE",
"140 112 OFFCURVE",
"140 112 CURVE",
"140 0 LINE"
);
}
);
width = 429;
},
{
anchors = (
{
name = bottom;
position = "{193, -96}";
},
{
name = top;
position = "{193, 381}";
}
);
associatedMasterId = "3114FB65-9464-41A5-B67E-A8F9F43C0EF1";
layerId = "33857271-8D60-4D64-A06A-8211F3EE1A75";
name = "Oct 11 22, 13:51";
paths = (
{
closed = 1;
nodes = (
"89 0 LINE",
"92 25 OFFCURVE",
"97 70 OFFCURVE",
"97 108 CURVE SMOOTH",
"97 189 OFFCURVE",
"165 255 OFFCURVE",
"248 255 CURVE SMOOTH",
"298 255 LINE",
"300 274 LINE",
"300 285 LINE",
"248 285 LINE SMOOTH",
"148 285 OFFCURVE",
"67 206 OFFCURVE",
"67 108 CURVE SMOOTH",
"67 75 OFFCURVE",
"63 36 OFFCURVE",
"60 10 CURVE",
"67 0 LINE"
);
},
{
closed = 1;
nodes = (
"336 0 LINE",
"336 30 LINE",
"216 30 LINE SMOOTH",
"166 30 OFFCURVE",
"67 23 OFFCURVE",
"67 23 CURVE",
"67 0 LINE"
);
}
);
width = 396;
}
);
unicode = 0621;
},
{
glyphname = "alef-ar";
layers = (
{
anchors = (
{
name = bottom;
position = "{108, -48}";
},
{
name = top;
position = "{108, 804}";
}
);
layerId = "14EEE41F-D714-4243-A717-73445EE7DABA";
paths = (
{
closed = 1;
nodes = (
"145 0 LINE",
"160 14 LINE",
"160 14 OFFCURVE",
"145 138 OFFCURVE",
"145 247 CURVE SMOOTH",
"145 747 LINE",
"142 755 LINE",
"70 746 LINE",
"70 0 LINE"
);
}
);
width = 230;
},
{
anchors = (
{
name = bottom;
position = "{95, -70}";
},
{
name = top;
position = "{93, 780}";
}
);
associatedMasterId = "14EEE41F-D714-4243-A717-73445EE7DABA";
layerId = "000178C5-23D3-4A14-B85E-7A97FCC399F3";
name = "Dec 4 19, 13:45";
paths = (
{
closed = 1;
nodes = (
"135 0 LINE",
"150 14 LINE",
"144 95 OFFCURVE",
"134 166 OFFCURVE",
"135 237 CURVE",
"135 716 LINE",
"50 716 LINE",
"50 0 LINE"
);
}
);
width = 200;
},
{
anchors = (
{
name = bottom;
position = "{129, -48}";
},
{
name = top;
position = "{129, 804}";
}
);
layerId = "090CB6A0-BE7C-4D17-A551-206C7456A8A3";
paths = (
{
closed = 1;
nodes = (
"195 0 LINE",
"210 14 LINE",
"210 14 OFFCURVE",
"195 138 OFFCURVE",
"195 247 CURVE SMOOTH",
"195 753 LINE",
"192 761 LINE",
"60 745 LINE",
"60 0 LINE"
);
}
);
width = 270;
},
{
anchors = (
{
name = bottom;
position = "{104, -48}";
},
{
name = top;
position = "{104, 804}";
}
);
associatedMasterId = "14EEE41F-D714-4243-A717-73445EE7DABA";
layerId = "7F3F5221-23E9-47ED-BC99-F374C7E686C9";
name = "Sep 26 22, 14:44";
paths = (
{
closed = 1;
nodes = (
"145 0 LINE",
"160 14 LINE",
"160 14 OFFCURVE",
"145 138 OFFCURVE",
"145 247 CURVE SMOOTH",
"145 756 LINE",
"60 746 LINE",
"60 0 LINE"
);
}
);
width = 240;
},
{
anchors = (
{
name = bottom;
position = "{102, -48}";
},
{
name = top;
position = "{102, 804}";
}
);
layerId = "3114FB65-9464-41A5-B67E-A8F9F43C0EF1";
paths = (
{
closed = 1;
nodes = (
"110 0 LINE",
"125 14 LINE",
"125 14 OFFCURVE",
"110 138 OFFCURVE",
"110 247 CURVE SMOOTH",
"110 743 LINE",
"107 751 LINE",
"80 747 LINE",
"80 0 LINE"
);
}
);
width = 205;
}
);
unicode = 0627;
},
{
glyphname = "alef-ar.fina";
layers = (
{
anchors = (
{
name = bottom;
position = "{108, -48}";
},
{
name = top;
position = "{108, 804}";
}
);
components = (
{
name = _connection.r;
transform = "{1, 0, 0, 1, 181, 0}";
}
);
layerId = "14EEE41F-D714-4243-A717-73445EE7DABA";
paths = (
{
closed = 1;
nodes = (
"145 747 LINE",
"142 755 LINE",
"70 746 LINE",
"70 1 LINE",
"145 0 LINE"
);
},
{
closed = 1;
nodes = (
"231 0 LINE",
"231 75 LINE",
"70 75 LINE",
"70 0 LINE"
);
}
);
width = 231;
},
{
anchors = (
{
name = bottom;
position = "{95, -70}";
},
{
name = top;
position = "{95, 800}";
}
);
associatedMasterId = "14EEE41F-D714-4243-A717-73445EE7DABA";
components = (
{
name = _connection.r;
transform = "{1, 0, 0, 1, 201, 0}";
}
);
layerId = "6C46519A-E7B5-4255-B537-29BE5CAB0258";
name = "Dec 4 19, 13:52";
paths = (
{
closed = 1;
nodes = (
"251 0 LINE",
"251 75 LINE",
"221 75 LINE",
"125 67 LINE",
"125 0 LINE"
);
},
{
closed = 1;
nodes = (
"135 0 LINE",
"135 716 LINE",
"50 716 LINE",
"50 0 LINE"
);
}
);
width = 251;
},
{
anchors = (
{
name = bottom;
position = "{95, -70}";
},
{
name = top;
position = "{93, 760}";
}
);
associatedMasterId = "14EEE41F-D714-4243-A717-73445EE7DABA";
components = (
{
name = _connection.r;
transform = "{1, 0, 0, 1, 201, 0}";
}
);
layerId = "4329D98B-ABBA-4C60-B72B-0C6E96E377C0";
name = "Dec 4 19, 14:08";
paths = (
{
closed = 1;
nodes = (
"135 0 LINE",
"150 14 LINE",
"150 14 OFFCURVE",
"135 138 OFFCURVE",
"135 247 CURVE SMOOTH",
"135 716 LINE",
"50 706 LINE",
"50 0 LINE"
);
},
{
closed = 1;
nodes = (
"251 0 LINE",
"251 75 LINE",
"221 75 LINE",
"125 67 LINE",
"125 0 LINE"
);
}
);
width = 251;
},
{
anchors = (
{
name = bottom;
position = "{95, -70}";
},
{
name = top;
position = "{93, 760}";
}
);
associatedMasterId = "14EEE41F-D714-4243-A717-73445EE7DABA";
components = (
{
name = _connection.r;
transform = "{1, 0, 0, 1, 201, 0}";
}
);
layerId = "A2719580-B9B8-4878-9E29-1F1E5D8123EE";
name = "Dec 4 19, 14:10";
paths = (
{
closed = 1;
nodes = (
"135 0 LINE",
"135 14 LINE",
"135 716 LINE",
"50 706 LINE",
"50 0 LINE"
);
},
{
closed = 1;
nodes = (
"251 0 LINE",
"251 75 LINE",
"125 75 LINE",
"125 0 LINE"
);
},
{
closed = 1;
nodes = (
"135 247 LINE",
"50 247 LINE",
"50 138 OFFCURVE",
"35 14 OFFCURVE",
"35 14 CURVE",
"50 0 LINE",
"135 0 LINE"
);
}
);
width = 251;
},
{
anchors = (
{
name = bottom;
position = "{128, -48}";
},
{
name = top;
position = "{128, 804}";
}
);
components = (
{
name = _connection.r;
transform = "{1, 0, 0, 1, 231, 0}";
}
);
layerId = "090CB6A0-BE7C-4D17-A551-206C7456A8A3";
paths = (
{
closed = 1;
nodes = (
"195 753 LINE",
"192 761 LINE",
"60 745 LINE",
"60 1 LINE",
"195 0 LINE"
);
},
{
closed = 1;
nodes = (
"281 0 LINE",
"281 119 LINE",
"60 119 LINE",
"60 0 LINE"
);
}
);
width = 281;
},
{
anchors = (
{
name = bottom;
position = "{95, -48}";
},
{
name = top;
position = "{95, 804}";
}
);
components = (
{
name = _connection.r;
transform = "{1, 0, 0, 1, 146, 0}";
}
);
layerId = "3114FB65-9464-41A5-B67E-A8F9F43C0EF1";
paths = (
{
closed = 1;
nodes = (
"110 743 LINE",
"107 751 LINE",
"80 747 LINE",
"80 1 LINE",
"110 0 LINE"
);
},
{
closed = 1;
nodes = (
"196 0 LINE",
"196 30 LINE",
"80 30 LINE",
"80 0 LINE"
);
}
);
width = 196;
},
{
anchors = (
{
name = bottom;
position = "{128, -48}";
},
{
name = top;
position = "{128, 804}";
}
);
associatedMasterId = "090CB6A0-BE7C-4D17-A551-206C7456A8A3";
components = (
{
name = _connection.r;
transform = "{1, 0, 0, 1, 231, 0}";
}
);
layerId = "11D1FF1E-E260-4171-A6E0-6A9C24D95C97";
name = "Oct 7 22, 12:42";
paths = (
{
closed = 1;
nodes = (
"195 756 LINE",
"60 740 LINE",
"60 1 LINE",
"195 0 LINE"
);
},
{
closed = 1;
nodes = (
"281 0 LINE",
"281 119 LINE",
"60 119 LINE",
"60 0 LINE"
);
}
);
width = 281;
},
{
anchors = (
{
name = bottom;
position = "{108, -48}";
},
{
name = top;
position = "{108, 804}";
}
);
associatedMasterId = "14EEE41F-D714-4243-A717-73445EE7DABA";
components = (
{
name = _connection.r;
transform = "{1, 0, 0, 1, 181, 0}";
}
);
layerId = "CE5ECA3C-0F8A-4540-9E42-9B5D40A8FC49";
name = "Oct 7 22, 12:42";
paths = (
{
closed = 1;
nodes = (
"145 0 LINE",
"145 755 LINE",
"70 746 LINE",
"70 0 LINE"
);
},
{
closed = 1;
nodes = (
"231 0 LINE",
"231 75 LINE",
"70 75 LINE",
"70 0 LINE"
);
}
);
width = 231;
},
{
anchors = (
{
name = bottom;
position = "{95, -48}";
},
{
name = top;
position = "{95, 804}";
}
);
associatedMasterId = "3114FB65-9464-41A5-B67E-A8F9F43C0EF1";
components = (
{
name = _connection.r;
transform = "{1, 0, 0, 1, 146, 0}";
}
);
layerId = "6B496B63-7FB5-44C6-AAA0-092D43F11A69";
name = "Oct 7 22, 12:42";
paths = (
{
closed = 1;
nodes = (
"110 0 LINE",
"110 752 LINE",
"80 748 LINE",
"80 0 LINE"
);
},
{
closed = 1;
nodes = (
"196 0 LINE",
"196 30 LINE",
"80 30 LINE",
"80 0 LINE"
);
}
);
width = 196;
}
);
leftMetricsKey = "=alef-ar";
rightMetricsKey = "=-20";
},
{
glyphname = "alef-ar.short";
layers = (
{
anchors = (
{
name = bottom;
position = "{115, -48}";
},
{
name = top;
position = "{115, 716}";
}
);
layerId = "14EEE41F-D714-4243-A717-73445EE7DABA";
paths = (
{
closed = 1;
nodes = (
"145 0 LINE",
"160 14 LINE",
"160 14 OFFCURVE",
"145 138 OFFCURVE",
"145 247 CURVE SMOOTH",
"145 659 LINE",
"142 667 LINE",
"70 658 LINE",
"70 0 LINE"
);
}
);
width = 230;
},
{
associatedMasterId = "14EEE41F-D714-4243-A717-73445EE7DABA";
components = (
{
name = "alef-ar";
}
);
layerId = "63067D81-B144-4BC7-9223-DE3B49682313";
name = "Dec 20 19, 16:30";
width = 230;
},
{
anchors = (
{
name = bottom;
position = "{135, -48}";
},
{
name = top;
position = "{135, 714}";
}
);
layerId = "090CB6A0-BE7C-4D17-A551-206C7456A8A3";
paths = (
{
closed = 1;
nodes = (
"195 0 LINE",
"210 14 LINE",
"210 14 OFFCURVE",
"195 138 OFFCURVE",
"195 247 CURVE SMOOTH",
"195 663 LINE",
"192 671 LINE",
"60 655 LINE",
"60 0 LINE"
);
}
);
width = 270;
},
{
anchors = (
{
name = bottom;
position = "{103, -48}";
},
{
name = top;
position = "{103, 717}";
}
);
layerId = "3114FB65-9464-41A5-B67E-A8F9F43C0EF1";
paths = (
{
closed = 1;
nodes = (
"110 0 LINE",
"125 14 LINE",
"125 14 OFFCURVE",
"110 138 OFFCURVE",
"110 247 CURVE SMOOTH",
"110 656 LINE",
"107 664 LINE",
"80 660 LINE",
"80 0 LINE"
);
}
);
width = 205;
}
);
},
{
glyphname = "alef-ar.short.fina";
layers = (
{
anchors = (
{
name = bottom;
position = "{108, -48}";
},
{
name = top;
position = "{108, 716}";
}
);
components = (
{
name = _connection.r;
transform = "{1, 0, 0, 1, 181, 0}";
}
);
layerId = "14EEE41F-D714-4243-A717-73445EE7DABA";
paths = (
{
closed = 1;
nodes = (
"145 659 LINE",
"142 667 LINE",
"70 658 LINE",
"70 1 LINE",
"145 0 LINE"
);
},
{
closed = 1;
nodes = (
"231 0 LINE",
"231 75 LINE",
"70 75 LINE",
"70 0 LINE"
);
}
);
width = 231;
},
{
anchors = (
{
name = bottom;
position = "{128, -48}";
},
{
name = top;
position = "{128, 714}";
}
);
components = (
{
name = _connection.r;
transform = "{1, 0, 0, 1, 231, 0}";
}
);
layerId = "090CB6A0-BE7C-4D17-A551-206C7456A8A3";
paths = (
{
closed = 1;
nodes = (
"195 663 LINE",
"192 671 LINE",
"60 655 LINE",
"60 1 LINE",
"195 0 LINE"
);
},
{
closed = 1;
nodes = (
"281 0 LINE",
"281 119 LINE",
"60 119 LINE",
"60 0 LINE"
);
}
);
width = 281;
},
{
anchors = (
{
name = bottom;
position = "{95, -48}";
},
{
name = top;
position = "{95, 717}";
}
);
components = (
{
name = _connection.r;
transform = "{1, 0, 0, 1, 146, 0}";
}
);
layerId = "3114FB65-9464-41A5-B67E-A8F9F43C0EF1";
paths = (
{
closed = 1;
nodes = (
"110 656 LINE",
"107 664 LINE",
"80 660 LINE",
"80 1 LINE",
"110 0 LINE"
);
},
{
closed = 1;
nodes = (
"196 0 LINE",
"196 30 LINE",
"80 30 LINE",
"80 0 LINE"
);
}
);
width = 196;
}
);
},
